MingjianCaoshuHeiti.ufo
<glyph name="Eng" format="2">
  <advance width="701"/>
  <unicode hex="014A"/>
  <outline>
    <component base="N"/>
    <contour>
      <point x="403" y="-151" type="curve"/>
      <point x="403" y="-231" type="line"/>
      <point x="558" y="-228"/>
      <point x="632" y="-139"/>
      <point x="632" y="0" type="curve"/>
      <point x="544" y="0" type="line"/>
      <point x="544" y="-105"/>
      <point x="506" y="-152"/>
    </contour>
  </outline>
</glyph>
<glyph name="eng" format="2">
  <advance width="587"/>
  <unicode hex="014B"/>
  <outline>
    <contour>
      <point x="293" y="-151" type="curve"/>
      <point x="293" y="-231" type="line"/>
      <point x="448" y="-228"/>
      <point x="522" y="-139"/>
      <point x="522" y="0" type="curve"/>
      <point x="434" y="0" type="line"/>
      <point x="434" y="-105"/>
      <point x="396" y="-152"/>
    </contour>
    <component base="n"/>
  </outline>
</glyph>
<glyph name="uni2E86" format="2">
  <advance width="1000"/>
  <unicode hex="2E86"/>
  <outline>
    <contour>
      <point x="792" y="-80" type="curve" smooth="yes"/>
      <point x="852" y="-80"/>
      <point x="885" y="-60"/>
      <point x="885" y="15" type="curve" smooth="yes"/>
      <point x="885" y="622" type="line" smooth="yes"/>
      <point x="885" y="757"/>
      <point x="836" y="809"/>
      <point x="689" y="809" type="curve" smooth="yes"/>
      <point x="431" y="809" type="line" smooth="yes"/>
      <point x="321" y="809"/>
      <point x="258" y="798"/>
      <point x="204" y="779" type="curve"/>
      <point x="204" y="699" type="line"/>
      <point x="266" y="719"/>
      <point x="325" y="729"/>
      <point x="425" y="729" type="curve" smooth="yes"/>
      <point x="684" y="729" type="line" smooth="yes"/>
      <point x="773" y="729"/>
      <point x="805" y="701"/>
      <point x="805" y="618" type="curve" smooth="yes"/>
      <point x="805" y="30" type="line" smooth="yes"/>
      <point x="805" y="7"/>
      <point x="798" y="-2"/>
      <point x="773" y="-2" type="curve" smooth="yes"/>
      <point x="733" y="-2"/>
      <point x="688" y="7"/>
      <point x="646" y="20" type="curve"/>
      <point x="646" y="-69" type="line"/>
      <point x="689" y="-75"/>
      <point x="739" y="-80"/>
    </contour>
    <contour>
      <point x="33" y="-40" type="curve"/>
      <point x="106" y="-76" type="line"/>
      <point x="219" y="88"/>
      <point x="222" y="289"/>
      <point x="222" y="468" type="curve" smooth="yes"/>
      <point x="222" y="804" type="line"/>
      <point x="142" y="804" type="line"/>
      <point x="142" y="468" type="line" smooth="yes"/>
      <point x="142" y="300"/>
      <point x="138" y="115"/>
    </contour>
  </outline>
</glyph>
<glyph name="uni2E88" format="2">
  <advance width="1000"/>
  <unicode hex="2E88"/>
  <outline>
    <contour>
      <point x="395" y="433" type="curve"/>
      <point x="474" y="388" type="line"/>
      <point x="596" y="480"/>
      <point x="718" y="596"/>
      <point x="815" y="714" type="curve"/>
      <point x="746" y="755" type="line"/>
      <point x="728" y="741" type="line"/>
      <point x="358" y="741" type="line"/>
      <point x="358" y="661" type="line"/>
      <point x="663" y="661" type="line"/>
      <point x="606" y="599"/>
      <point x="507" y="510"/>
    </contour>
    <contour>
      <point x="121" y="559" type="curve"/>
      <point x="175" y="493" type="line"/>
      <point x="294" y="580"/>
      <point x="419" y="688"/>
      <point x="512" y="807" type="curve"/>
      <point x="436" y="844" type="line"/>
      <point x="353" y="734"/>
      <point x="240" y="637"/>
    </contour>
  </outline>
</glyph>
<glyph name="uni2E89" format="2">
  <advance width="1000"/>
  <unicode hex="2E89"/>
  <outline>
    <contour>
      <point x="797" y="-61" type="curve" smooth="yes"/>
      <point x="852" y="-60"/>
      <point x="884" y="-28"/>
      <point x="884" y="41" type="curve" smooth="yes"/>
      <point x="884" y="813" type="line"/>
      <point x="804" y="813" type="line"/>
      <point x="804" y="51" type="line" smooth="yes"/>
      <point x="804" y="29"/>
      <point x="798" y="17"/>
      <point x="778" y="17" type="curve" smooth="yes"/>
      <point x="740" y="17"/>
      <point x="692" y="26"/>
      <point x="638" y="42" type="curve"/>
      <point x="638" y="-46" type="line"/>
      <point x="689" y="-56"/>
      <point x="741" y="-62"/>
    </contour>
    <contour>
      <point x="569" y="661" type="line"/>
      <point x="569" y="172" type="line"/>
      <point x="649" y="172" type="line"/>
      <point x="649" y="661" type="line"/>
    </contour>
  </outline>
</glyph>
<glyph name="uni2E8B" format="2">
  <advance width="1000"/>
  <unicode hex="2E8B"/>
  <outline>
    <contour>
      <point x="242" y="100" type="curve" smooth="yes"/>
      <point x="242" y="621" type="line"/>
      <point x="162" y="621" type="line"/>
      <point x="162" y="98" type="line" smooth="yes"/>
      <point x="162" y="-18"/>
      <point x="210" y="-43"/>
      <point x="353" y="-43" type="curve" smooth="yes"/>
      <point x="748" y="-43" type="line" smooth="yes"/>
      <point x="884" y="-43"/>
      <point x="924" y="20"/>
      <point x="947" y="191" type="curve"/>
      <point x="868" y="201" type="line"/>
      <point x="853" y="61"/>
      <point x="833" y="37"/>
      <point x="744" y="37" type="curve" smooth="yes"/>
      <point x="353" y="37" type="line" smooth="yes"/>
      <point x="261" y="37"/>
      <point x="242" y="48"/>
    </contour>
    <contour>
      <point x="694" y="355" type="curve" smooth="yes"/>
      <point x="805" y="355"/>
      <point x="839" y="461"/>
      <point x="856" y="763" type="curve"/>
      <point x="796" y="784" type="line"/>
      <point x="776" y="772" type="line"/>
      <point x="130" y="772" type="line"/>
      <point x="130" y="692" type="line"/>
      <point x="774" y="692" type="line"/>
      <point x="764" y="484"/>
      <point x="724" y="434"/>
      <point x="677" y="434" type="curve" smooth="yes"/>
      <point x="577" y="434"/>
      <point x="508" y="447"/>
      <point x="430" y="464" type="curve"/>
      <point x="430" y="378" type="line"/>
      <point x="509" y="364"/>
      <point x="589" y="355"/>
    </contour>
  </outline>
</glyph>
<glyph name="uni2E8C" format="2">
  <advance width="1000"/>
  <unicode hex="2E8C"/>
  <outline>
    <contour>
      <point x="264" y="483" type="curve"/>
      <point x="338" y="521" type="line"/>
      <point x="311" y="592"/>
      <point x="255" y="696"/>
      <point x="202" y="773" type="curve"/>
      <point x="132" y="740" type="line"/>
      <point x="183" y="664"/>
      <point x="238" y="556"/>
    </contour>
    <contour>
      <point x="460" y="404" type="line"/>
      <point x="540" y="404" type="line"/>
      <point x="540" y="841" type="line"/>
      <point x="460" y="841" type="line"/>
    </contour>
    <contour>
      <point x="651" y="516" type="curve"/>
      <point x="720" y="481" type="line"/>
      <point x="767" y="548"/>
      <point x="828" y="657"/>
      <point x="873" y="748" type="curve"/>
      <point x="795" y="783" type="line"/>
      <point x="760" y="697"/>
      <point x="699" y="587"/>
    </contour>
  </outline>
</glyph>
<glyph name="uni2E8D" format="2">
  <advance width="1000"/>
  <unicode hex="2E8D"/>
  <outline>
    <contour>
      <point x="203" y="421" type="curve"/>
      <point x="282" y="450" type="line"/>
      <point x="261" y="536"/>
      <point x="218" y="661"/>
      <point x="179" y="752" type="curve"/>
      <point x="103" y="724" type="line"/>
      <point x="140" y="637"/>
      <point x="181" y="507"/>
    </contour>
    <contour>
      <point x="472" y="463" type="curve"/>
      <point x="556" y="487" type="line"/>
      <point x="542" y="582"/>
      <point x="508" y="705"/>
      <point x="472" y="809" type="curve"/>
      <point x="392" y="788" type="line"/>
      <point x="426" y="686"/>
      <point x="458" y="558"/>
    </contour>
    <contour>
      <point x="698" y="440" type="curve"/>
      <point x="772" y="415" type="line"/>
      <point x="815" y="514"/>
      <point x="862" y="647"/>
      <point x="895" y="756" type="curve"/>
      <point x="807" y="781" type="line"/>
      <point x="781" y="673"/>
      <point x="738" y="537"/>
    </contour>
  </outline>
</glyph>
<glyph name="uni2E94" format="2">
  <advance width="1000"/>
  <unicode hex="2E94"/>
  <outline>
    <contour>
      <point x="576" y="300" type="curve"/>
      <point x="654" y="281" type="line"/>
      <point x="697" y="402"/>
      <point x="651" y="532"/>
      <point x="503" y="532" type="curve" smooth="yes"/>
      <point x="394" y="532"/>
      <point x="342" y="467"/>
      <point x="342" y="393" type="curve" smooth="yes"/>
      <point x="342" y="313"/>
      <point x="402" y="246"/>
      <point x="540" y="246" type="curve" smooth="yes"/>
      <point x="752" y="246"/>
      <point x="877" y="332"/>
      <point x="877" y="538" type="curve" smooth="yes"/>
      <point x="877" y="675"/>
      <point x="789" y="800"/>
      <point x="575" y="800" type="curve" smooth="yes"/>
      <point x="410" y="800"/>
      <point x="277" y="759"/>
      <point x="179" y="716" type="curve"/>
      <point x="211" y="644" type="line"/>
      <point x="305" y="686"/>
      <point x="447" y="720"/>
      <point x="575" y="720" type="curve" smooth="yes"/>
      <point x="731" y="720"/>
      <point x="797" y="644"/>
      <point x="797" y="538" type="curve" smooth="yes"/>
      <point x="797" y="394"/>
      <point x="706" y="325"/>
      <point x="540" y="325" type="curve" smooth="yes"/>
      <point x="454" y="325"/>
      <point x="422" y="352"/>
      <point x="422" y="393" type="curve" smooth="yes"/>
      <point x="422" y="429"/>
      <point x="449" y="453"/>
      <point x="503" y="453" type="curve" smooth="yes"/>
      <point x="590" y="453"/>
      <point x="599" y="382"/>
    </contour>
  </outline>
</glyph>
<glyph name="uni2E97" format="2">
  <advance width="1000"/>
  <unicode hex="2E97"/>
  <outline>
    <contour>
      <point x="70" y="50" type="curve"/>
      <point x="142" y="13" type="line"/>
      <point x="197" y="88"/>
      <point x="243" y="194"/>
      <point x="264" y="301" type="curve"/>
      <point x="185" y="316" type="line"/>
      <point x="168" y="216"/>
      <point x="120" y="112"/>
    </contour>
    <contour>
      <point x="580" y="10" type="curve" smooth="yes"/>
      <point x="618" y="10"/>
      <point x="659" y="25"/>
      <point x="703" y="50" type="curve"/>
      <point x="661" y="127" type="line"/>
      <point x="634" y="110"/>
      <point x="612" y="100"/>
      <point x="595" y="100" type="curve" smooth="yes"/>
      <point x="571" y="100"/>
      <point x="558" y="116"/>
      <point x="529" y="307" type="curve"/>
      <point x="451" y="294" type="line"/>
      <point x="482" y="62"/>
      <point x="516" y="10"/>
    </contour>
    <contour>
      <point x="878" y="6" type="curve"/>
      <point x="951" y="42" type="line"/>
      <point x="920" y="117"/>
      <point x="861" y="225"/>
      <point x="810" y="309" type="curve"/>
      <point x="741" y="272" type="line"/>
      <point x="792" y="186"/>
      <point x="849" y="80"/>
    </contour>
    <contour>
      <point x="309" y="-79" type="curve" smooth="yes"/>
      <point x="368" y="-79"/>
      <point x="400" y="-48"/>
      <point x="400" y="7" type="curve" smooth="yes"/>
      <point x="400" y="416" type="line"/>
      <point x="321" y="416" type="line"/>
      <point x="321" y="25" type="line" smooth="yes"/>
      <point x="321" y="7"/>
      <point x="314" y="-1"/>
      <point x="293" y="-1" type="curve" smooth="yes"/>
      <point x="262" y="-1"/>
      <point x="231" y="4"/>
      <point x="197" y="16" type="curve"/>
      <point x="197" y="-70" type="line"/>
      <point x="233" y="-77"/>
      <point x="265" y="-79"/>
    </contour>
  </outline>
</glyph>
<glyph name="uni2E98" format="2">
  <advance width="1000"/>
  <unicode hex="2E98"/>
  <outline>
    <contour>
      <point x="247" y="-79" type="curve" smooth="yes"/>
      <point x="299" y="-79"/>
      <point x="329" y="-56"/>
      <point x="329" y="7" type="curve" smooth="yes"/>
      <point x="329" y="834" type="line"/>
      <point x="249" y="834" type="line"/>
      <point x="249" y="14" type="line" smooth="yes"/>
      <point x="249" y="0"/>
      <point x="244" y="-8"/>
      <point x="230" y="-8" type="curve" smooth="yes"/>
      <point x="202" y="-8"/>
      <point x="168" y="-1"/>
      <point x="129" y="14" type="curve"/>
      <point x="129" y="-68" type="line"/>
      <point x="167" y="-75"/>
      <point x="206" y="-79"/>
    </contour>
    <contour>
      <point x="66" y="567" type="line"/>
      <point x="484" y="567" type="line"/>
      <point x="484" y="647" type="line"/>
      <point x="66" y="647" type="line"/>
    </contour>
    <contour>
      <point x="496" y="387" type="line"/>
      <point x="464" y="458" type="line"/>
      <point x="42" y="265" type="line"/>
      <point x="76" y="190" type="line"/>
    </contour>
  </outline>
</glyph>
<glyph name="uni2EA1" format="2">
  <advance width="1000"/>
  <unicode hex="2EA1"/>
  <outline>
    <contour>
      <point x="141" y="-36" type="curve"/>
      <point x="222" y="-27" type="line"/>
      <point x="169" y="115"/>
      <point x="159" y="218"/>
      <point x="191" y="303" type="curve" smooth="yes"/>
      <point x="228" y="399"/>
      <point x="232" y="475"/>
      <point x="176" y="556" type="curve"/>
      <point x="97" y="537" type="line"/>
      <point x="147" y="449"/>
      <point x="149" y="383"/>
      <point x="116" y="309" type="curve" smooth="yes"/>
      <point x="79" y="228"/>
      <point x="85" y="115"/>
    </contour>
    <contour>
      <point x="252" y="635" type="curve"/>
      <point x="301" y="704" type="line"/>
      <point x="259" y="734"/>
      <point x="178" y="781"/>
      <point x="118" y="812" type="curve"/>
      <point x="71" y="751" type="line"/>
      <point x="132" y="717"/>
      <point x="212" y="666"/>
    </contour>
  </outline>
</glyph>
<glyph name="uni2EA2" format="2">
  <advance width="1000"/>
  <unicode hex="2EA2"/>
  <outline>
    <contour>
      <point x="455" y="-75" type="curve" smooth="yes"/>
      <point x="516" y="-75"/>
      <point x="550" y="-50"/>
      <point x="550" y="22" type="curve" smooth="yes"/>
      <point x="550" y="678" type="line"/>
      <point x="470" y="678" type="line"/>
      <point x="470" y="30" type="line" smooth="yes"/>
      <point x="470" y="10"/>
      <point x="463" y="4"/>
      <point x="444" y="4" type="curve" smooth="yes"/>
      <point x="404" y="4"/>
      <point x="349" y="16"/>
      <point x="300" y="31" type="curve"/>
      <point x="300" y="-62" type="line"/>
      <point x="344" y="-70"/>
      <point x="403" y="-75"/>
    </contour>
    <contour>
      <point x="145" y="510" type="line"/>
      <point x="114" y="436" type="line"/>
      <point x="366" y="335" type="line"/>
      <point x="397" y="408" type="line"/>
    </contour>
    <contour>
      <point x="42" y="110" type="line"/>
      <point x="75" y="37" type="line"/>
      <point x="423" y="207" type="line"/>
      <point x="390" y="280" type="line"/>
    </contour>
    <contour>
      <point x="453" y="356" type="curve"/>
      <point x="423" y="291" type="line"/>
      <point x="620" y="208"/>
      <point x="789" y="112"/>
      <point x="911" y="17" type="curve"/>
      <point x="961" y="103" type="line"/>
      <point x="832" y="181"/>
      <point x="662" y="270"/>
    </contour>
    <contour>
      <point x="556" y="401" type="curve"/>
      <point x="582" y="330" type="line"/>
      <point x="695" y="371"/>
      <point x="779" y="401"/>
      <point x="876" y="466" type="curve"/>
      <point x="827" y="536" type="line"/>
      <point x="740" y="478"/>
      <point x="668" y="441"/>
    </contour>
  </outline>
</glyph>
<glyph name="uni2EA8" format="2">
  <advance width="1000"/>
  <unicode hex="2EA8"/>
  <outline>
    <contour>
      <point x="247" y="-84" type="curve" smooth="yes"/>
      <point x="299" y="-84"/>
      <point x="329" y="-61"/>
      <point x="329" y="9" type="curve" smooth="yes"/>
      <point x="329" y="834" type="line"/>
      <point x="249" y="834" type="line"/>
      <point x="249" y="17" type="line" smooth="yes"/>
      <point x="249" y="3"/>
      <point x="244" y="-5"/>
      <point x="230" y="-5" type="curve" smooth="yes"/>
      <point x="202" y="-5"/>
      <point x="168" y="2"/>
      <point x="129" y="17" type="curve"/>
      <point x="129" y="-71" type="line"/>
      <point x="167" y="-80"/>
      <point x="206" y="-84"/>
    </contour>
    <contour>
      <point x="38" y="565" type="curve"/>
      <point x="80" y="492" type="line"/>
      <point x="214" y="552"/>
      <point x="347" y="622"/>
      <point x="456" y="686" type="curve"/>
      <point x="413" y="751" type="line"/>
      <point x="306" y="687"/>
      <point x="175" y="622"/>
    </contour>
    <contour>
      <point x="53" y="202" type="line"/>
      <point x="112" y="160" type="line"/>
      <point x="129" y="180" type="line"/>
      <point x="466" y="259" type="line"/>
      <point x="449" y="336" type="line"/>
      <point x="180" y="273" type="line"/>
      <point x="305" y="534" type="line"/>
      <point x="248" y="564" type="line"/>
    </contour>
  </outline>
</glyph>
<glyph name="uni2EAD" format="2">
  <advance width="1000"/>
  <unicode hex="2EAD"/>
  <outline>
    <contour>
      <point x="207" y="-61" type="curve" smooth="yes"/>
      <point x="364" y="-61"/>
      <point x="416" y="105"/>
      <point x="416" y="250" type="curve" smooth="yes"/>
      <point x="416" y="487"/>
      <point x="329" y="562"/>
      <point x="74" y="539" type="curve"/>
      <point x="74" y="459" type="line"/>
      <point x="293" y="482"/>
      <point x="335" y="439"/>
      <point x="335" y="242" type="curve" smooth="yes"/>
      <point x="335" y="146"/>
      <point x="302" y="19"/>
      <point x="207" y="19" type="curve" smooth="yes"/>
      <point x="163" y="19"/>
      <point x="131" y="41"/>
      <point x="131" y="86" type="curve" smooth="yes"/>
      <point x="131" y="190"/>
      <point x="261" y="309"/>
      <point x="469" y="392" type="curve"/>
      <point x="441" y="463" type="line"/>
      <point x="214" y="373"/>
      <point x="50" y="215"/>
      <point x="50" y="86" type="curve" smooth="yes"/>
      <point x="50" y="-8"/>
      <point x="123" y="-61"/>
    </contour>
    <contour>
      <point x="357" y="602" type="curve"/>
      <point x="395" y="678" type="line"/>
      <point x="298" y="724"/>
      <point x="218" y="756"/>
      <point x="126" y="785" type="curve"/>
      <point x="92" y="714" type="line"/>
      <point x="184" y="685"/>
      <point x="261" y="651"/>
    </contour>
  </outline>
</glyph>
<glyph name="uni2EB7" format="2">
  <advance width="1000"/>
  <unicode hex="2EB7"/>
  <outline>
    <contour>
      <point x="312" y="631" type="curve"/>
      <point x="385" y="659" type="line"/>
      <point x="367" y="703"/>
      <point x="333" y="776"/>
      <point x="296" y="826" type="curve"/>
      <point x="224" y="798" type="line"/>
      <point x="259" y="748"/>
      <point x="292" y="685"/>
    </contour>
    <contour>
      <point x="613" y="635" type="curve"/>
      <point x="678" y="610" type="line"/>
      <point x="722" y="672"/>
      <point x="758" y="741"/>
      <point x="786" y="804" type="curve"/>
      <point x="703" y="830" type="line"/>
      <point x="683" y="769"/>
      <point x="653" y="697"/>
    </contour>
    <contour>
      <point x="512" y="44" type="curve"/>
      <point x="626" y="44" type="line"/>
      <point x="698" y="101"/>
      <point x="741" y="184"/>
      <point x="741" y="262" type="curve" smooth="yes"/>
      <point x="741" y="370"/>
      <point x="657" y="443"/>
      <point x="510" y="443" type="curve" smooth="yes"/>
      <point x="340" y="443"/>
      <point x="245" y="389"/>
      <point x="245" y="284" type="curve" smooth="yes"/>
      <point x="245" y="192"/>
      <point x="314" y="138"/>
      <point x="430" y="138" type="curve" smooth="yes"/>
      <point x="508" y="138"/>
      <point x="546" y="184"/>
      <point x="546" y="246" type="curve" smooth="yes"/>
      <point x="546" y="591" type="line"/>
      <point x="466" y="591" type="line"/>
      <point x="466" y="275" type="line" smooth="yes"/>
      <point x="466" y="231"/>
      <point x="441" y="216"/>
      <point x="411" y="216" type="curve" smooth="yes"/>
      <point x="378" y="216"/>
      <point x="330" y="245"/>
      <point x="330" y="284" type="curve" smooth="yes"/>
      <point x="330" y="333"/>
      <point x="372" y="360"/>
      <point x="510" y="360" type="curve" smooth="yes"/>
      <point x="604" y="360"/>
      <point x="656" y="314"/>
      <point x="656" y="260" type="curve" smooth="yes"/>
      <point x="656" y="205"/>
      <point x="634" y="136"/>
    </contour>
    <contour>
      <point x="72" y="-36" type="line"/>
      <point x="928" y="-36" type="line"/>
      <point x="928" y="44" type="line"/>
      <point x="72" y="44" type="line"/>
    </contour>
    <contour>
      <point x="92" y="553" type="line"/>
      <point x="908" y="553" type="line"/>
      <point x="908" y="633" type="line"/>
      <point x="92" y="633" type="line"/>
    </contour>
  </outline>
</glyph>
<glyph name="uni2EC8" format="2">
  <advance width="1000"/>
  <unicode hex="2EC8"/>
  <outline>
    <contour>
      <point x="199" y="803" type="curve"/>
      <point x="141" y="751" type="line"/>
      <point x="195" y="704"/>
      <point x="255" y="646"/>
      <point x="285" y="605" type="curve"/>
      <point x="345" y="662" type="line"/>
      <point x="313" y="702"/>
      <point x="253" y="759"/>
    </contour>
    <contour>
      <point x="171" y="25" type="line"/>
      <point x="243" y="10" type="line"/>
      <point x="382" y="494" type="line"/>
      <point x="319" y="527" type="line"/>
      <point x="300" y="514" type="line"/>
      <point x="56" y="514" type="line"/>
      <point x="56" y="434" type="line"/>
      <point x="280" y="434" type="line"/>
    </contour>
    <contour>
      <point x="409" y="164" type="line"/>
      <point x="83" y="12" type="line"/>
      <point x="118" y="-69" type="line"/>
      <point x="444" y="94" type="line"/>
    </contour>
  </outline>
</glyph>
<glyph name="uni2ED7" format="2">
  <advance width="1000"/>
  <unicode hex="2ED7"/>
  <outline>
    <contour>
      <point x="790" y="398" type="curve"/>
      <point x="857" y="348" type="line"/>
      <point x="899" y="384"/>
      <point x="932" y="430"/>
      <point x="932" y="498" type="curve" smooth="yes"/>
      <point x="932" y="592"/>
      <point x="843" y="660"/>
      <point x="583" y="660" type="curve" smooth="yes"/>
      <point x="406" y="660"/>
      <point x="265" y="626"/>
      <point x="155" y="561" type="curve"/>
      <point x="155" y="635" type="line"/>
      <point x="75" y="635" type="line"/>
      <point x="75" y="370" type="line"/>
      <point x="155" y="370" type="line"/>
      <point x="155" y="499" type="line"/>
      <point x="269" y="550"/>
      <point x="418" y="580"/>
      <point x="582" y="580" type="curve" smooth="yes"/>
      <point x="798" y="580"/>
      <point x="846" y="535"/>
      <point x="846" y="498" type="curve" smooth="yes"/>
      <point x="846" y="461"/>
      <point x="829" y="428"/>
    </contour>
    <contour>
      <point x="460" y="459" type="line"/>
      <point x="540" y="459" type="line"/>
      <point x="540" y="747" type="line"/>
      <point x="460" y="747" type="line"/>
    </contour>
    <contour>
      <point x="703" y="489" type="line"/>
      <point x="298" y="488" type="line"/>
      <point x="298" y="409" type="line"/>
      <point x="703" y="409" type="line"/>
    </contour>
    <contour>
      <point x="823" y="789" type="line"/>
      <point x="168" y="788" type="line"/>
      <point x="168" y="709" type="line"/>
      <point x="823" y="709" type="line"/>
    </contour>
  </outline>
</glyph>
<glyph name="uni2F01" format="2">
  <advance width="1000"/>
  <unicode hex="2F01"/>
  <outline>
    <contour>
      <point x="461" y="-51" type="line"/>
      <point x="541" y="-51" type="line"/>
      <point x="541" y="817" type="line"/>
      <point x="461" y="817" type="line"/>
    </contour>
  </outline>
</glyph>
<glyph name="uni2F02" format="2">
  <advance width="1000"/>
  <unicode hex="2F02"/>
  <outline>
    <contour>
      <point x="632" y="187" type="curve"/>
      <point x="695" y="239" type="line"/>
      <point x="598" y="351"/>
      <point x="487" y="463"/>
      <point x="360" y="576" type="curve"/>
      <point x="301" y="524" type="line"/>
      <point x="427" y="411"/>
      <point x="538" y="298"/>
    </contour>
  </outline>
</glyph>
<glyph name="uni2F04" format="2">
  <advance width="1000"/>
  <unicode hex="2F04"/>
  <outline>
    <contour>
      <point x="263" y="-45" type="curve" smooth="yes"/>
      <point x="817" y="-45" type="line" smooth="yes"/>
      <point x="887" y="-45"/>
      <point x="914" y="20"/>
      <point x="932" y="185" type="curve"/>
      <point x="852" y="196" type="line"/>
      <point x="844" y="75"/>
      <point x="827" y="35"/>
      <point x="793" y="35" type="curve" smooth="yes"/>
      <point x="295" y="35" type="line" smooth="yes"/>
      <point x="249" y="35"/>
      <point x="231" y="41"/>
      <point x="231" y="57" type="curve" smooth="yes"/>
      <point x="231" y="81"/>
      <point x="249" y="112"/>
      <point x="873" y="684" type="curve"/>
      <point x="822" y="751" type="line"/>
      <point x="801" y="739" type="line"/>
      <point x="166" y="739" type="line"/>
      <point x="166" y="659" type="line"/>
      <point x="726" y="660" type="line"/>
      <point x="172" y="156"/>
      <point x="138" y="107"/>
      <point x="138" y="52" type="curve" smooth="yes"/>
      <point x="138" y="-3"/>
      <point x="169" y="-45"/>
    </contour>
  </outline>
</glyph>
<glyph name="uni2F05" format="2">
  <advance width="1000"/>
  <unicode hex="2F05"/>
  <outline>
    <contour>
      <point x="455" y="-79" type="curve" smooth="yes"/>
      <point x="515" y="-79"/>
      <point x="549" y="-44"/>
      <point x="549" y="16" type="curve" smooth="yes"/>
      <point x="549" y="814" type="line"/>
      <point x="470" y="814" type="line"/>
      <point x="470" y="30" type="line" smooth="yes"/>
      <point x="470" y="11"/>
      <point x="458" y="-4"/>
      <point x="436" y="-4" type="curve" smooth="yes"/>
      <point x="386" y="-4"/>
      <point x="334" y="6"/>
      <point x="275" y="27" type="curve"/>
      <point x="275" y="-58" type="line"/>
      <point x="335" y="-73"/>
      <point x="387" y="-79"/>
    </contour>
  </outline>
</glyph>
<glyph name="uni2F0B" format="2">
  <advance width="1000"/>
  <unicode hex="2F0B"/>
  <outline>
    <contour>
      <point x="55" y="79" type="curve"/>
      <point x="127" y="37" type="line"/>
      <point x="231" y="248"/>
      <point x="313" y="495"/>
      <point x="364" y="715" type="curve"/>
      <point x="281" y="732" type="line"/>
      <point x="237" y="520"/>
      <point x="149" y="265"/>
    </contour>
    <contour>
      <point x="848" y="29" type="curve"/>
      <point x="935" y="55" type="line"/>
      <point x="867" y="289"/>
      <point x="772" y="551"/>
      <point x="688" y="747" type="curve"/>
      <point x="613" y="711" type="line"/>
      <point x="696" y="523"/>
      <point x="784" y="271"/>
    </contour>
  </outline>
</glyph>
<glyph name="uni2F0C" format="2">
  <advance width="1000"/>
  <unicode hex="2F0C"/>
  <outline>
    <contour>
      <point x="121" y="750" type="curve"/>
      <point x="140" y="676" type="line"/>
      <point x="217" y="698"/>
      <point x="299" y="708"/>
      <point x="402" y="708" type="curve" smooth="yes"/>
      <point x="737" y="708" type="line" smooth="yes"/>
      <point x="804" y="708"/>
      <point x="835" y="681"/>
      <point x="835" y="622" type="curve" smooth="yes"/>
      <point x="835" y="42" type="line" smooth="yes"/>
      <point x="835" y="14"/>
      <point x="830" y="0"/>
      <point x="802" y="0" type="curve" smooth="yes"/>
      <point x="771" y="0"/>
      <point x="724" y="8"/>
      <point x="673" y="24" type="curve"/>
      <point x="673" y="-62" type="line"/>
      <point x="722" y="-73"/>
      <point x="767" y="-79"/>
      <point x="806" y="-79" type="curve" smooth="yes"/>
      <point x="879" y="-79"/>
      <point x="915" y="-48"/>
      <point x="915" y="30" type="curve" smooth="yes"/>
      <point x="915" y="633" type="line" smooth="yes"/>
      <point x="915" y="730"/>
      <point x="865" y="788"/>
      <point x="744" y="788" type="curve" smooth="yes"/>
      <point x="400" y="788" type="line" smooth="yes"/>
      <point x="288" y="788"/>
      <point x="205" y="774"/>
    </contour>
    <contour>
      <point x="168" y="-82" type="line"/>
      <point x="168" y="788" type="line"/>
      <point x="88" y="788" type="line"/>
      <point x="88" y="-82" type="line"/>
    </contour>
  </outline>
</glyph>
<glyph name="uni2F0D" format="2">
  <advance width="1000"/>
  <unicode hex="2F0D"/>
  <outline>
    <contour>
      <point x="810" y="531" type="curve"/>
      <point x="883" y="497" type="line"/>
      <point x="908" y="555"/>
      <point x="920" y="593"/>
      <point x="920" y="635" type="curve" smooth="yes"/>
      <point x="920" y="737"/>
      <point x="818" y="781"/>
      <point x="587" y="781" type="curve" smooth="yes"/>
      <point x="414" y="781"/>
      <point x="261" y="744"/>
      <point x="164" y="694" type="curve"/>
      <point x="164" y="764" type="line"/>
      <point x="84" y="764" type="line"/>
      <point x="84" y="516" type="line"/>
      <point x="164" y="516" type="line"/>
      <point x="164" y="626" type="line"/>
      <point x="276" y="671"/>
      <point x="433" y="700"/>
      <point x="587" y="700" type="curve" smooth="yes"/>
      <point x="782" y="700"/>
      <point x="839" y="670"/>
      <point x="839" y="630" type="curve" smooth="yes"/>
      <point x="839" y="603"/>
      <point x="832" y="578"/>
    </contour>
  </outline>
</glyph>
<glyph name="uni2F0E" format="2">
  <advance width="1000"/>
  <unicode hex="2F0E"/>
  <outline>
    <contour>
      <point x="38" y="32" type="curve"/>
      <point x="112" y="-17" type="line"/>
      <point x="206" y="83"/>
      <point x="315" y="212"/>
      <point x="392" y="331" type="curve"/>
      <point x="330" y="378" type="line"/>
      <point x="247" y="252"/>
      <point x="126" y="115"/>
    </contour>
    <contour>
      <point x="320" y="540" type="curve"/>
      <point x="377" y="604" type="line"/>
      <point x="314" y="655"/>
      <point x="206" y="721"/>
      <point x="125" y="761" type="curve"/>
      <point x="82" y="699" type="line"/>
      <point x="163" y="657"/>
      <point x="260" y="591"/>
    </contour>
  </outline>
</glyph>
<glyph name="uni2F10" format="2">
  <advance width="1000"/>
  <unicode hex="2F10"/>
  <outline>
    <contour>
      <point x="890" y="29" type="curve"/>
      <point x="890" y="113" type="line"/>
      <point x="667" y="37"/>
      <point x="410" y="18"/>
      <point x="266" y="61" type="curve" smooth="yes"/>
      <point x="180" y="88"/>
      <point x="145" y="147"/>
      <point x="140" y="304" type="curve"/>
      <point x="60" y="297" type="line"/>
      <point x="63" y="126"/>
      <point x="117" y="20"/>
      <point x="236" y="-17" type="curve" smooth="yes"/>
      <point x="384" y="-63"/>
      <point x="662" y="-46"/>
    </contour>
    <contour>
      <point x="840" y="326" type="line"/>
      <point x="840" y="-50" type="line"/>
      <point x="920" y="-50" type="line"/>
      <point x="920" y="326" type="line"/>
    </contour>
  </outline>
</glyph>
<glyph name="uni2F12" format="2">
  <advance width="1000"/>
  <unicode hex="2F12"/>
  <outline>
    <contour>
      <point x="683" y="-66" type="curve" smooth="yes"/>
      <point x="868" y="-66"/>
      <point x="901" y="106"/>
      <point x="901" y="345" type="curve" smooth="yes"/>
      <point x="901" y="523"/>
      <point x="808" y="605"/>
      <point x="631" y="605" type="curve" smooth="yes"/>
      <point x="443" y="605"/>
      <point x="277" y="577"/>
      <point x="98" y="532" type="curve"/>
      <point x="116" y="452" type="line"/>
      <point x="292" y="497"/>
      <point x="463" y="525"/>
      <point x="631" y="525" type="curve" smooth="yes"/>
      <point x="781" y="525"/>
      <point x="821" y="455"/>
      <point x="821" y="345" type="curve" smooth="yes"/>
      <point x="821" y="143"/>
      <point x="794" y="12"/>
      <point x="682" y="12" type="curve" smooth="yes"/>
      <point x="624" y="12"/>
      <point x="566" y="22"/>
      <point x="507" y="41" type="curve"/>
      <point x="507" y="-48" type="line"/>
      <point x="565" y="-61"/>
      <point x="618" y="-66"/>
    </contour>
    <contour>
      <point x="55" y="-17" type="curve"/>
      <point x="111" y="-76" type="line"/>
      <point x="402" y="101"/>
      <point x="511" y="354"/>
      <point x="572" y="834" type="curve"/>
      <point x="492" y="840" type="line"/>
      <point x="431" y="364"/>
      <point x="324" y="145"/>
    </contour>
  </outline>
</glyph>
<glyph name="uni2F13" format="2">
  <advance width="1000"/>
  <unicode hex="2F13"/>
  <outline>
    <contour>
      <point x="629" y="-69" type="curve" smooth="yes"/>
      <point x="832" y="-69"/>
      <point x="897" y="113"/>
      <point x="897" y="358" type="curve" smooth="yes"/>
      <point x="897" y="602"/>
      <point x="776" y="699"/>
      <point x="601" y="699" type="curve" smooth="yes"/>
      <point x="451" y="699"/>
      <point x="307" y="668"/>
      <point x="214" y="624" type="curve"/>
      <point x="240" y="549" type="line"/>
      <point x="333" y="593"/>
      <point x="470" y="619"/>
      <point x="601" y="619" type="curve" smooth="yes"/>
      <point x="742" y="619"/>
      <point x="817" y="516"/>
      <point x="817" y="358" type="curve" smooth="yes"/>
      <point x="817" y="155"/>
      <point x="760" y="11"/>
      <point x="622" y="11" type="curve" smooth="yes"/>
      <point x="525" y="11"/>
      <point x="451" y="24"/>
      <point x="389" y="48" type="curve"/>
      <point x="359" y="-31" type="line"/>
      <point x="421" y="-51"/>
      <point x="498" y="-69"/>
    </contour>
    <contour>
      <point x="43" y="408" type="curve"/>
      <point x="108" y="356" type="line"/>
      <point x="228" y="480"/>
      <point x="313" y="651"/>
      <point x="367" y="815" type="curve"/>
      <point x="289" y="837" type="line"/>
      <point x="238" y="672"/>
      <point x="155" y="516"/>
    </contour>
  </outline>
</glyph>
<glyph name="uni2F14" format="2">
  <advance width="1000"/>
  <unicode hex="2F14"/>
  <outline>
    <contour>
      <point x="175" y="370" type="curve"/>
      <point x="232" y="303" type="line"/>
      <point x="464" y="399"/>
      <point x="686" y="510"/>
      <point x="866" y="627" type="curve"/>
      <point x="805" y="683" type="line"/>
      <point x="627" y="569"/>
      <point x="411" y="461"/>
    </contour>
    <contour>
      <point x="293" y="-64" type="curve" smooth="yes"/>
      <point x="762" y="-64" type="line" smooth="yes"/>
      <point x="868" y="-64"/>
      <point x="888" y="-11"/>
      <point x="900" y="163" type="curve"/>
      <point x="821" y="169" type="line"/>
      <point x="814" y="31"/>
      <point x="805" y="16"/>
      <point x="749" y="16" type="curve" smooth="yes"/>
      <point x="311" y="16" type="line" smooth="yes"/>
      <point x="255" y="16"/>
      <point x="242" y="31"/>
      <point x="242" y="81" type="curve" smooth="yes"/>
      <point x="242" y="816" type="line"/>
      <point x="162" y="816" type="line"/>
      <point x="162" y="75" type="line" smooth="yes"/>
      <point x="162" y="-36"/>
      <point x="187" y="-64"/>
    </contour>
  </outline>
</glyph>
<glyph name="uni2F15" format="2">
  <advance width="1000"/>
  <unicode hex="2F15"/>
  <outline>
    <contour>
      <point x="103" y="774" type="line"/>
      <point x="103" y="694" type="line"/>
      <point x="897" y="694" type="line"/>
      <point x="897" y="774" type="line"/>
    </contour>
    <contour>
      <point x="931" y="-31" type="curve"/>
      <point x="931" y="51" type="line"/>
      <point x="708" y="0"/>
      <point x="424" y="12"/>
      <point x="280" y="60" type="curve" smooth="yes"/>
      <point x="194" y="90"/>
      <point x="157" y="166"/>
      <point x="152" y="342" type="curve"/>
      <point x="74" y="330" type="line"/>
      <point x="77" y="139"/>
      <point x="131" y="26"/>
      <point x="250" y="-15" type="curve" smooth="yes"/>
      <point x="398" y="-67"/>
      <point x="703" y="-81"/>
    </contour>
  </outline>
</glyph>
<glyph name="uni2F17" format="2">
  <advance width="1000"/>
  <unicode hex="2F17"/>
  <outline>
    <contour>
      <point x="540" y="-77" type="line"/>
      <point x="540" y="834" type="line"/>
      <point x="460" y="834" type="line"/>
      <point x="460" y="-77" type="line"/>
    </contour>
    <contour>
      <point x="56" y="391" type="line"/>
      <point x="944" y="391" type="line"/>
      <point x="944" y="471" type="line"/>
      <point x="56" y="471" type="line"/>
    </contour>
  </outline>
</glyph>
<glyph name="uni2F18" format="2">
  <advance width="1000"/>
  <unicode hex="2F18"/>
  <outline>
    <contour>
      <point x="359" y="-71" type="line"/>
      <point x="440" y="-71" type="line"/>
      <point x="440" y="817" type="line"/>
      <point x="359" y="817" type="line"/>
    </contour>
    <contour>
      <point x="747" y="298" type="curve"/>
      <point x="784" y="371" type="line"/>
      <point x="689" y="424"/>
      <point x="557" y="487"/>
      <point x="428" y="533" type="curve"/>
      <point x="394" y="463" type="line"/>
      <point x="522" y="415"/>
      <point x="658" y="348"/>
    </contour>
  </outline>
</glyph>
<glyph name="uni2F1A" format="2">
  <advance width="1000"/>
  <unicode hex="2F1A"/>
  <outline>
    <contour>
      <point x="939" y="791" type="line"/>
      <point x="127" y="791" type="line"/>
      <point x="127" y="470" type="line" smooth="yes"/>
      <point x="127" y="325"/>
      <point x="119" y="116"/>
      <point x="29" y="-22" type="curve"/>
      <point x="100" y="-61" type="line"/>
      <point x="190" y="91"/>
      <point x="207" y="317"/>
      <point x="207" y="470" type="curve" smooth="yes"/>
      <point x="207" y="711" type="line"/>
      <point x="939" y="711" type="line"/>
    </contour>
  </outline>
</glyph>
<glyph name="uni2F1B" format="2">
  <advance width="1000"/>
  <unicode hex="2F1B"/>
  <outline>
    <contour>
      <point x="79" y="58" type="curve"/>
      <point x="121" y="-24" type="line"/>
      <point x="166" y="-7" type="line"/>
      <point x="811" y="64" type="line"/>
      <point x="804" y="140" type="line"/>
      <point x="233" y="84" type="line"/>
      <point x="341" y="245"/>
      <point x="469" y="496"/>
      <point x="568" y="761" type="curve"/>
      <point x="484" y="787" type="line"/>
      <point x="395" y="520"/>
      <point x="254" y="250"/>
      <point x="173" y="136" type="curve" smooth="yes"/>
      <point x="142" y="93"/>
      <point x="108" y="71"/>
    </contour>
    <contour>
      <point x="860" y="-75" type="curve"/>
      <point x="936" y="-34" type="line"/>
      <point x="886" y="74"/>
      <point x="810" y="205"/>
      <point x="719" y="326" type="curve"/>
      <point x="651" y="287" type="line"/>
      <point x="741" y="164"/>
      <point x="809" y="31"/>
    </contour>
  </outline>
</glyph>
<glyph name="uni2F1C" format="2">
  <advance width="1000"/>
  <unicode hex="2F1C"/>
  <outline>
    <contour>
      <point x="556" y="775" type="curve" smooth="yes"/>
      <point x="378" y="775"/>
      <point x="240" y="723"/>
      <point x="108" y="646" type="curve"/>
      <point x="154" y="577" type="line"/>
      <point x="280" y="654"/>
      <point x="402" y="696"/>
      <point x="556" y="696" type="curve" smooth="yes"/>
      <point x="687" y="696"/>
      <point x="764" y="638"/>
      <point x="764" y="555" type="curve" smooth="yes"/>
      <point x="764" y="330"/>
      <point x="435" y="30"/>
      <point x="282" y="30" type="curve" smooth="yes"/>
      <point x="227" y="30"/>
      <point x="163" y="81"/>
      <point x="163" y="194" type="curve" smooth="yes"/>
      <point x="163" y="280"/>
      <point x="220" y="350"/>
      <point x="315" y="350" type="curve" smooth="yes"/>
      <point x="479" y="350"/>
      <point x="633" y="110"/>
      <point x="894" y="-72" type="curve"/>
      <point x="946" y="-9" type="line"/>
      <point x="693" y="164"/>
      <point x="518" y="430"/>
      <point x="315" y="430" type="curve" smooth="yes"/>
      <point x="192" y="430"/>
      <point x="83" y="353"/>
      <point x="83" y="194" type="curve" smooth="yes"/>
      <point x="83" y="36"/>
      <point x="175" y="-50"/>
      <point x="282" y="-50" type="curve" smooth="yes"/>
      <point x="455" y="-50"/>
      <point x="844" y="278"/>
      <point x="844" y="555" type="curve" smooth="yes"/>
      <point x="844" y="707"/>
      <point x="741" y="775"/>
    </contour>
  </outline>
</glyph>
<glyph name="uni2F1F" format="2">
  <advance width="1000"/>
  <unicode hex="2F1F"/>
  <outline>
    <contour>
      <point x="540" y="34" type="line"/>
      <point x="540" y="833" type="line"/>
      <point x="460" y="833" type="line"/>
      <point x="460" y="34" type="line"/>
    </contour>
    <contour>
      <point x="132" y="435" type="line"/>
      <point x="868" y="435" type="line"/>
      <point x="868" y="515" type="line"/>
      <point x="132" y="515" type="line"/>
    </contour>
    <contour>
      <point x="930" y="58" type="line"/>
      <point x="70" y="58" type="line"/>
      <point x="70" y="-22" type="line"/>
      <point x="930" y="-22" type="line"/>
    </contour>
  </outline>
</glyph>
<glyph name="uni2F20" format="2">
  <advance width="1000"/>
  <unicode hex="2F20"/>
  <outline>
    <contour>
      <point x="540" y="34" type="line"/>
      <point x="540" y="833" type="line"/>
      <point x="460" y="833" type="line"/>
      <point x="460" y="34" type="line"/>
    </contour>
    <contour>
      <point x="72" y="444" type="line"/>
      <point x="928" y="444" type="line"/>
      <point x="928" y="524" type="line"/>
      <point x="72" y="524" type="line"/>
    </contour>
    <contour>
      <point x="870" y="59" type="line"/>
      <point x="130" y="59" type="line"/>
      <point x="130" y="-22" type="line"/>
      <point x="870" y="-22" type="line"/>
    </contour>
  </outline>
</glyph>
<glyph name="uni2F21" format="2">
  <advance width="1000"/>
  <unicode hex="2F21"/>
  <outline>
    <contour>
      <point x="129" y="479" type="curve"/>
      <point x="204" y="435" type="line"/>
      <point x="288" y="539"/>
      <point x="364" y="670"/>
      <point x="428" y="802" type="curve"/>
      <point x="351" y="831" type="line"/>
      <point x="290" y="696"/>
      <point x="213" y="575"/>
    </contour>
    <contour>
      <point x="113" y="-2" type="curve"/>
      <point x="163" y="-71" type="line"/>
      <point x="473" y="38"/>
      <point x="778" y="237"/>
      <point x="868" y="625" type="curve"/>
      <point x="804" y="658" type="line"/>
      <point x="785" y="645" type="line"/>
      <point x="275" y="645" type="line"/>
      <point x="275" y="565" type="line"/>
      <point x="766" y="565" type="line"/>
      <point x="678" y="275"/>
      <point x="403" y="96"/>
    </contour>
    <contour>
      <point x="841" y="-72" type="curve"/>
      <point x="904" y="-4" type="line"/>
      <point x="659" y="171"/>
      <point x="460" y="289"/>
      <point x="232" y="383" type="curve"/>
      <point x="190" y="322" type="line"/>
      <point x="415" y="223"/>
      <point x="606" y="107"/>
    </contour>
  </outline>
</glyph>
<glyph name="uni2F23" format="2">
  <advance width="1000"/>
  <unicode hex="2F23"/>
  <outline>
    <contour>
      <point x="138" y="-6" type="curve"/>
      <point x="181" y="-84" type="line"/>
      <point x="557" y="26"/>
      <point x="773" y="224"/>
      <point x="886" y="639" type="curve"/>
      <point x="822" y="674" type="line"/>
      <point x="798" y="659" type="line"/>
      <point x="359" y="659" type="line"/>
      <point x="359" y="579" type="line"/>
      <point x="783" y="579" type="line"/>
      <point x="683" y="260"/>
      <point x="472" y="83"/>
    </contour>
    <contour>
      <point x="616" y="214" type="curve"/>
      <point x="673" y="279" type="line"/>
      <point x="581" y="340"/>
      <point x="486" y="392"/>
      <point x="383" y="442" type="curve"/>
      <point x="343" y="378" type="line"/>
      <point x="443" y="326"/>
      <point x="533" y="272"/>
    </contour>
    <contour>
      <point x="133" y="374" type="curve"/>
      <point x="204" y="320" type="line"/>
      <point x="326" y="468"/>
      <point x="420" y="652"/>
      <point x="482" y="823" type="curve"/>
      <point x="401" y="845" type="line"/>
      <point x="342" y="669"/>
      <point x="248" y="504"/>
    </contour>
  </outline>
</glyph>
<glyph name="uni2F24" format="2">
  <advance width="1000"/>
  <unicode hex="2F24"/>
  <outline>
    <contour>
      <point x="46" y="-11" type="curve"/>
      <point x="101" y="-73" type="line"/>
      <point x="496" y="143"/>
      <point x="563" y="565"/>
      <point x="557" y="837" type="curve"/>
      <point x="476" y="837" type="line"/>
      <point x="475" y="570"/>
      <point x="425" y="192"/>
    </contour>
    <contour>
      <point x="900" y="-76" type="curve"/>
      <point x="961" y="-20" type="line"/>
      <point x="834" y="124"/>
      <point x="657" y="281"/>
      <point x="481" y="419" type="curve"/>
      <point x="438" y="360" type="line"/>
      <point x="597" y="231"/>
      <point x="776" y="70"/>
    </contour>
    <contour>
      <point x="62" y="475" type="line"/>
      <point x="942" y="475" type="line"/>
      <point x="942" y="555" type="line"/>
      <point x="62" y="555" type="line"/>
    </contour>
  </outline>
</glyph>
<glyph name="uni2F25" format="2">
  <advance width="1000"/>
  <unicode hex="2F25"/>
  <outline>
    <contour>
      <point x="562" y="3" type="curve"/>
      <point x="609" y="-74" type="line"/>
      <point x="803" y="-34"/>
      <point x="936" y="97"/>
      <point x="936" y="296" type="curve" smooth="yes"/>
      <point x="936" y="523"/>
      <point x="756" y="623"/>
      <point x="532" y="623" type="curve" smooth="yes"/>
      <point x="258" y="623"/>
      <point x="62" y="452"/>
      <point x="62" y="220" type="curve" smooth="yes"/>
      <point x="62" y="51"/>
      <point x="171" y="-32"/>
      <point x="288" y="-32" type="curve" smooth="yes"/>
      <point x="557" y="-32"/>
      <point x="690" y="348"/>
      <point x="716" y="786" type="curve"/>
      <point x="632" y="796" type="line"/>
      <point x="611" y="393"/>
      <point x="500" y="52"/>
      <point x="292" y="52" type="curve" smooth="yes"/>
      <point x="208" y="52"/>
      <point x="146" y="120"/>
      <point x="146" y="220" type="curve" smooth="yes"/>
      <point x="146" y="400"/>
      <point x="310" y="541"/>
      <point x="532" y="541" type="curve" smooth="yes"/>
      <point x="687" y="541"/>
      <point x="851" y="481"/>
      <point x="851" y="296" type="curve" smooth="yes"/>
      <point x="851" y="142"/>
      <point x="751" y="31"/>
    </contour>
    <contour>
      <point x="478" y="144" type="curve"/>
      <point x="532" y="210" type="line"/>
      <point x="381" y="331"/>
      <point x="317" y="492"/>
      <point x="407" y="812" type="curve"/>
      <point x="324" y="827" type="line"/>
      <point x="231" y="489"/>
      <point x="309" y="260"/>
    </contour>
  </outline>
</glyph>
<glyph name="uni2F26" format="2">
  <advance width="1000"/>
  <unicode hex="2F26"/>
  <outline>
    <contour>
      <point x="446" y="-78" type="curve" smooth="yes"/>
      <point x="498" y="-78"/>
      <point x="553" y="-44"/>
      <point x="553" y="16" type="curve" smooth="yes"/>
      <point x="553" y="462" type="line"/>
      <point x="668" y="530"/>
      <point x="786" y="627"/>
      <point x="868" y="722" type="curve"/>
      <point x="808" y="775" type="line"/>
      <point x="791" y="764" type="line"/>
      <point x="129" y="764" type="line"/>
      <point x="129" y="684" type="line"/>
      <point x="717" y="684" type="line"/>
      <point x="651" y="615"/>
      <point x="558" y="549"/>
      <point x="473" y="501" type="curve"/>
      <point x="473" y="29" type="line" smooth="yes"/>
      <point x="473" y="10"/>
      <point x="458" y="-5"/>
      <point x="433" y="-5" type="curve" smooth="yes"/>
      <point x="380" y="-6"/>
      <point x="325" y="3"/>
      <point x="271" y="20" type="curve"/>
      <point x="271" y="-62" type="line"/>
      <point x="328" y="-74"/>
      <point x="375" y="-78"/>
    </contour>
    <contour>
      <point x="939" y="304" type="curve"/>
      <point x="959" y="389" type="line"/>
      <point x="738" y="421"/>
      <point x="444" y="422"/>
      <point x="55" y="388" type="curve"/>
      <point x="55" y="310" type="line"/>
      <point x="439" y="341"/>
      <point x="734" y="334"/>
    </contour>
  </outline>
</glyph>
<glyph name="uni2F27" format="2">
  <advance width="1000"/>
  <unicode hex="2F27"/>
  <outline>
    <contour>
      <point x="499" y="628" type="curve"/>
      <point x="578" y="649" type="line"/>
      <point x="561" y="700"/>
      <point x="531" y="760"/>
      <point x="500" y="807" type="curve"/>
      <point x="424" y="785" type="line"/>
      <point x="452" y="739"/>
      <point x="485" y="676"/>
    </contour>
    <contour>
      <point x="809" y="438" type="curve"/>
      <point x="888" y="407" type="line"/>
      <point x="912" y="461"/>
      <point x="923" y="496"/>
      <point x="923" y="533" type="curve" smooth="yes"/>
      <point x="923" y="628"/>
      <point x="818" y="673"/>
      <point x="587" y="673" type="curve" smooth="yes"/>
      <point x="415" y="673"/>
      <point x="262" y="639"/>
      <point x="164" y="593" type="curve"/>
      <point x="164" y="655" type="line"/>
      <point x="84" y="655" type="line"/>
      <point x="84" y="425" type="line"/>
      <point x="164" y="425" type="line"/>
      <point x="164" y="522" type="line"/>
      <point x="276" y="563"/>
      <point x="433" y="590"/>
      <point x="587" y="590" type="curve" smooth="yes"/>
      <point x="782" y="590"/>
      <point x="836" y="564"/>
      <point x="836" y="528" type="curve" smooth="yes"/>
      <point x="836" y="504"/>
      <point x="830" y="481"/>
    </contour>
  </outline>
</glyph>
<glyph name="uni2F28" format="2">
  <advance width="1000"/>
  <unicode hex="2F28"/>
  <outline>
    <contour>
      <point x="699" y="31" type="curve" smooth="yes"/>
      <point x="699" y="816" type="line"/>
      <point x="619" y="816" type="line"/>
      <point x="619" y="48" type="line" smooth="yes"/>
      <point x="619" y="29"/>
      <point x="607" y="14"/>
      <point x="585" y="14" type="curve" smooth="yes"/>
      <point x="542" y="14"/>
      <point x="481" y="24"/>
      <point x="419" y="39" type="curve"/>
      <point x="419" y="-51" type="line"/>
      <point x="482" y="-60"/>
      <point x="549" y="-66"/>
      <point x="605" y="-64" type="curve" smooth="yes"/>
      <point x="658" y="-62"/>
      <point x="699" y="-47"/>
    </contour>
    <contour>
      <point x="87" y="553" type="line"/>
      <point x="918" y="553" type="line"/>
      <point x="918" y="633" type="line"/>
      <point x="87" y="633" type="line"/>
    </contour>
    <contour>
      <point x="459" y="184" type="curve"/>
      <point x="520" y="237" type="line"/>
      <point x="462" y="305"/>
      <point x="377" y="391"/>
      <point x="290" y="464" type="curve"/>
      <point x="232" y="411" type="line"/>
      <point x="318" y="337"/>
      <point x="404" y="247"/>
    </contour>
  </outline>
</glyph>
<glyph name="uni2F29" format="2">
  <advance width="1000"/>
  <unicode hex="2F29"/>
  <outline>
    <contour>
      <point x="440" y="-76" type="curve" smooth="yes"/>
      <point x="519" y="-76"/>
      <point x="548" y="-42"/>
      <point x="548" y="28" type="curve" smooth="yes"/>
      <point x="548" y="827" type="line"/>
      <point x="468" y="827" type="line"/>
      <point x="468" y="48" type="line" smooth="yes"/>
      <point x="468" y="13"/>
      <point x="454" y="1"/>
      <point x="421" y="1" type="curve" smooth="yes"/>
      <point x="371" y="1"/>
      <point x="321" y="10"/>
      <point x="267" y="26" type="curve"/>
      <point x="267" y="-60" type="line"/>
      <point x="321" y="-71"/>
      <point x="375" y="-76"/>
    </contour>
    <contour>
      <point x="43" y="178" type="curve"/>
      <point x="114" y="138" type="line"/>
      <point x="193" y="261"/>
      <point x="253" y="433"/>
      <point x="284" y="576" type="curve"/>
      <point x="202" y="590" type="line"/>
      <point x="177" y="451"/>
      <point x="120" y="293"/>
    </contour>
    <contour>
      <point x="885" y="127" type="curve"/>
      <point x="965" y="147" type="line"/>
      <point x="939" y="266"/>
      <point x="868" y="455"/>
      <point x="777" y="600" type="curve"/>
      <point x="704" y="568" type="line"/>
      <point x="791" y="422"/>
      <point x="862" y="246"/>
    </contour>
  </outline>
</glyph>
<glyph name="uni2F2D" format="2">
  <advance width="1000"/>
  <unicode hex="2F2D"/>
  <outline>
    <contour>
      <point x="711" y="-35" type="curve"/>
      <point x="793" y="-67" type="line"/>
      <point x="850" y="40"/>
      <point x="903" y="162"/>
      <point x="903" y="313" type="curve" smooth="yes"/>
      <point x="903" y="434"/>
      <point x="820" y="520"/>
      <point x="694" y="520" type="curve" smooth="yes"/>
      <point x="615" y="520"/>
      <point x="554" y="495"/>
      <point x="511" y="471" type="curve"/>
      <point x="511" y="829" type="line"/>
      <point x="431" y="829" type="line"/>
      <point x="431" y="419" type="line"/>
      <point x="414" y="400" type="line"/>
      <point x="460" y="344" type="line"/>
      <point x="535" y="403"/>
      <point x="620" y="439"/>
      <point x="689" y="439" type="curve" smooth="yes"/>
      <point x="771" y="439"/>
      <point x="822" y="385"/>
      <point x="822" y="307" type="curve" smooth="yes"/>
      <point x="822" y="190"/>
      <point x="769" y="68"/>
    </contour>
    <contour>
      <point x="262" y="-11" type="curve" smooth="yes"/>
      <point x="383" y="-11"/>
      <point x="494" y="11"/>
      <point x="602" y="50" type="curve"/>
      <point x="570" y="126" type="line"/>
      <point x="476" y="92"/>
      <point x="360" y="70"/>
      <point x="260" y="70" type="curve" smooth="yes"/>
      <point x="206" y="70"/>
      <point x="180" y="97"/>
      <point x="180" y="157" type="curve" smooth="yes"/>
      <point x="180" y="247"/>
      <point x="203" y="365"/>
      <point x="244" y="497" type="curve"/>
      <point x="164" y="515" type="line"/>
      <point x="126" y="380"/>
      <point x="99" y="261"/>
      <point x="99" y="143" type="curve" smooth="yes"/>
      <point x="99" y="37"/>
      <point x="147" y="-11"/>
    </contour>
  </outline>
</glyph>
<glyph name="uni2F2E" format="2">
  <advance width="1000"/>
  <unicode hex="2F2E"/>
  <outline>
    <contour>
      <point x="445" y="111" type="line"/>
      <point x="525" y="111" type="line"/>
      <point x="525" y="700" type="line"/>
      <point x="445" y="700" type="line"/>
    </contour>
    <contour>
      <point x="730" y="31" type="line"/>
      <point x="810" y="31" type="line"/>
      <point x="810" y="810" type="line"/>
      <point x="730" y="810" type="line"/>
    </contour>
    <contour>
      <point x="155" y="91" type="line"/>
      <point x="235" y="91" type="line"/>
      <point x="235" y="720" type="line"/>
      <point x="155" y="720" type="line"/>
    </contour>
    <contour>
      <point x="941" y="66" type="line"/>
      <point x="622" y="66" type="line"/>
      <point x="622" y="-14" type="line"/>
      <point x="941" y="-14" type="line"/>
    </contour>
  </outline>
</glyph>
<glyph name="uni2F30" format="2">
  <advance width="1000"/>
  <unicode hex="2F30"/>
  <outline>
    <contour>
      <point x="233" y="85" type="curve" smooth="yes"/>
      <point x="233" y="448" type="line"/>
      <point x="153" y="448" type="line"/>
      <point x="153" y="85" type="line" smooth="yes"/>
      <point x="153" y="-32"/>
      <point x="201" y="-57"/>
      <point x="353" y="-57" type="curve" smooth="yes"/>
      <point x="735" y="-57" type="line" smooth="yes"/>
      <point x="880" y="-57"/>
      <point x="923" y="1"/>
      <point x="947" y="173" type="curve"/>
      <point x="860" y="188" type="line"/>
      <point x="845" y="46"/>
      <point x="825" y="23"/>
      <point x="736" y="23" type="curve" smooth="yes"/>
      <point x="353" y="23" type="line" smooth="yes"/>
      <point x="252" y="23"/>
      <point x="233" y="34"/>
    </contour>
    <contour>
      <point x="692" y="351" type="curve" smooth="yes"/>
      <point x="795" y="351"/>
      <point x="841" y="438"/>
      <point x="858" y="770" type="curve"/>
      <point x="796" y="793" type="line"/>
      <point x="776" y="781" type="line"/>
      <point x="140" y="781" type="line"/>
      <point x="140" y="701" type="line"/>
      <point x="770" y="701" type="line"/>
      <point x="760" y="493"/>
      <point x="724" y="431"/>
      <point x="677" y="431" type="curve" smooth="yes"/>
      <point x="577" y="431"/>
      <point x="508" y="444"/>
      <point x="430" y="461" type="curve"/>
      <point x="430" y="374" type="line"/>
      <point x="508" y="360"/>
      <point x="587" y="351"/>
    </contour>
  </outline>
</glyph>
<glyph name="uni2F31" format="2">
  <advance width="1000"/>
  <unicode hex="2F31"/>
  <outline>
    <contour>
      <point x="96" y="186" type="line"/>
      <point x="176" y="186" type="line"/>
      <point x="176" y="417" type="line"/>
      <point x="300" y="524"/>
      <point x="468" y="576"/>
      <point x="607" y="576" type="curve" smooth="yes"/>
      <point x="740" y="576"/>
      <point x="817" y="530"/>
      <point x="817" y="446" type="curve" smooth="yes"/>
      <point x="817" y="299"/>
      <point x="685" y="284"/>
      <point x="496" y="319" type="curve"/>
      <point x="496" y="233" type="line"/>
      <point x="738" y="200"/>
      <point x="900" y="232"/>
      <point x="900" y="446" type="curve" smooth="yes"/>
      <point x="900" y="595"/>
      <point x="783" y="658"/>
      <point x="607" y="658" type="curve" smooth="yes"/>
      <point x="460" y="658"/>
      <point x="302" y="608"/>
      <point x="176" y="496" type="curve"/>
      <point x="176" y="661" type="line"/>
      <point x="96" y="661" type="line"/>
    </contour>
    <contour>
      <point x="458" y="-79" type="line"/>
      <point x="538" y="-79" type="line"/>
      <point x="538" y="840" type="line"/>
      <point x="458" y="840" type="line"/>
    </contour>
  </outline>
</glyph>
<glyph name="uni2F33" format="2">
  <advance width="1000"/>
  <unicode hex="2F33"/>
  <outline>
    <contour>
      <point x="186" y="29" type="curve"/>
      <point x="248" y="-18" type="line"/>
      <point x="438" y="130"/>
      <point x="649" y="354"/>
      <point x="782" y="539" type="curve"/>
      <point x="708" y="585" type="line"/>
      <point x="585" y="406"/>
      <point x="374" y="174"/>
    </contour>
    <contour>
      <point x="151" y="-43" type="line"/>
      <point x="808" y="0" type="line"/>
      <point x="797" y="77" type="line"/>
      <point x="141" y="41" type="line"/>
    </contour>
    <contour>
      <point x="822" y="-79" type="curve"/>
      <point x="896" y="-37" type="line"/>
      <point x="855" y="49"/>
      <point x="770" y="163"/>
      <point x="690" y="247" type="curve"/>
      <point x="624" y="208" type="line"/>
      <point x="692" y="133"/>
      <point x="783" y="9"/>
    </contour>
    <contour>
      <point x="296" y="411" type="line"/>
      <point x="385" y="508"/>
      <point x="481" y="642"/>
      <point x="582" y="792" type="curve"/>
      <point x="500" y="825" type="line"/>
      <point x="408" y="677"/>
      <point x="298" y="517"/>
      <point x="171" y="390" type="curve"/>
      <point x="228" y="324" type="line"/>
      <point x="245" y="331" type="line"/>
      <point x="611" y="341" type="line"/>
      <point x="611" y="421" type="line"/>
    </contour>
  </outline>
</glyph>
<glyph name="uni2F34" format="2">
  <advance width="1000"/>
  <unicode hex="2F34"/>
  <outline>
    <contour>
      <point x="515" y="733" type="line"/>
      <point x="131" y="733" type="line"/>
      <point x="131" y="470" type="line" smooth="yes"/>
      <point x="131" y="325"/>
      <point x="123" y="122"/>
      <point x="35" y="-23" type="curve"/>
      <point x="107" y="-60" type="line"/>
      <point x="200" y="92"/>
      <point x="211" y="317"/>
      <point x="211" y="470" type="curve" smooth="yes"/>
      <point x="211" y="653" type="line"/>
      <point x="943" y="653" type="line"/>
      <point x="943" y="733" type="line"/>
      <point x="600" y="733" type="line"/>
      <point x="546" y="845" type="line"/>
      <point x="471" y="827" type="line"/>
    </contour>
  </outline>
</glyph>
<glyph name="uni2F3A" format="2">
  <advance width="1000"/>
  <unicode hex="2F3A"/>
  <outline>
    <contour>
      <point x="623" y="253" type="curve"/>
      <point x="669" y="203" type="line"/>
      <point x="863" y="303"/>
      <point x="919" y="353"/>
      <point x="919" y="430" type="curve" smooth="yes"/>
      <point x="919" y="520"/>
      <point x="806" y="566"/>
      <point x="547" y="582" type="curve"/>
      <point x="538" y="502" type="line"/>
      <point x="770" y="487"/>
      <point x="835" y="452"/>
      <point x="835" y="426" type="curve" smooth="yes"/>
      <point x="835" y="390"/>
      <point x="805" y="342"/>
    </contour>
    <contour>
      <point x="557" y="-31" type="curve"/>
      <point x="623" y="-93" type="line"/>
      <point x="767" y="-11"/>
      <point x="891" y="91"/>
      <point x="948" y="160" type="curve"/>
      <point x="888" y="228" type="line"/>
      <point x="865" y="223" type="line"/>
      <point x="776" y="247"/>
      <point x="674" y="268"/>
      <point x="541" y="277" type="curve"/>
      <point x="532" y="197" type="line"/>
      <point x="661" y="189"/>
      <point x="750" y="177"/>
      <point x="820" y="160" type="curve"/>
      <point x="778" y="108"/>
      <point x="687" y="35"/>
    </contour>
    <contour>
      <point x="569" y="560" type="curve"/>
      <point x="638" y="514" type="line"/>
      <point x="730" y="588"/>
      <point x="808" y="684"/>
      <point x="875" y="794" type="curve"/>
      <point x="794" y="828" type="line"/>
      <point x="732" y="724"/>
      <point x="656" y="630"/>
    </contour>
  </outline>
</glyph>
<glyph name="uni2F3B" format="2">
  <advance width="1000"/>
  <unicode hex="2F3B"/>
  <outline>
    <contour>
      <point x="38" y="299" type="curve"/>
      <point x="98" y="236" type="line"/>
      <point x="245" y="338"/>
      <point x="384" y="457"/>
      <point x="494" y="582" type="curve"/>
      <point x="431" y="634" type="line"/>
      <point x="322" y="509"/>
      <point x="187" y="393"/>
    </contour>
    <contour>
      <point x="56" y="553" type="curve"/>
      <point x="117" y="492" type="line"/>
      <point x="245" y="579"/>
      <point x="367" y="682"/>
      <point x="463" y="790" type="curve"/>
      <point x="401" y="842" type="line"/>
      <point x="306" y="734"/>
      <point x="187" y="634"/>
    </contour>
    <contour>
      <point x="260" y="439" type="line"/>
      <point x="260" y="-67" type="line"/>
      <point x="340" y="-67" type="line"/>
      <point x="340" y="439" type="line"/>
    </contour>
  </outline>
</glyph>
<glyph name="uni2F3D" format="2">
  <advance width="1000"/>
  <unicode hex="2F3D"/>
  <outline>
    <contour>
      <point x="779" y="-81" type="curve" smooth="yes"/>
      <point x="878" y="-81"/>
      <point x="920" y="-38"/>
      <point x="950" y="125" type="curve"/>
      <point x="869" y="136" type="line"/>
      <point x="855" y="25"/>
      <point x="836" y="-1"/>
      <point x="779" y="-1" type="curve" smooth="yes"/>
      <point x="542" y="-1"/>
      <point x="447" y="472"/>
      <point x="414" y="827" type="curve"/>
      <point x="333" y="823" type="line"/>
      <point x="373" y="437"/>
      <point x="468" y="-81"/>
    </contour>
    <contour>
      <point x="89" y="39" type="curve"/>
      <point x="144" y="-35" type="line"/>
      <point x="422" y="45"/>
      <point x="705" y="213"/>
      <point x="849" y="402" type="curve"/>
      <point x="777" y="446" type="line"/>
      <point x="664" y="291"/>
      <point x="401" y="118"/>
    </contour>
    <contour>
      <point x="88" y="415" type="line"/>
      <point x="901" y="518" type="line"/>
      <point x="890" y="598" type="line"/>
      <point x="77" y="495" type="line"/>
    </contour>
    <contour>
      <point x="749" y="612" type="curve"/>
      <point x="808" y="675" type="line"/>
      <point x="756" y="720"/>
      <point x="675" y="776"/>
      <point x="598" y="818" type="curve"/>
      <point x="545" y="761" type="line"/>
      <point x="622" y="718"/>
      <point x="700" y="658"/>
    </contour>
  </outline>
</glyph>
<glyph name="uni2F3F" format="2">
  <advance width="1000"/>
  <unicode hex="2F3F"/>
  <outline>
    <contour>
      <point x="462" y="-77" type="curve" smooth="yes"/>
      <point x="514" y="-76"/>
      <point x="548" y="-46"/>
      <point x="548" y="25" type="curve" smooth="yes"/>
      <point x="548" y="745" type="line"/>
      <point x="468" y="745" type="line"/>
      <point x="468" y="44" type="line" smooth="yes"/>
      <point x="468" y="14"/>
      <point x="456" y="1"/>
      <point x="427" y="1" type="curve" smooth="yes"/>
      <point x="392" y="1"/>
      <point x="338" y="13"/>
      <point x="276" y="35" type="curve"/>
      <point x="276" y="-54" type="line"/>
      <point x="335" y="-69"/>
      <point x="397" y="-78"/>
    </contour>
    <contour>
      <point x="53" y="243" type="line"/>
      <point x="947" y="243" type="line"/>
      <point x="947" y="323" type="line"/>
      <point x="53" y="323" type="line"/>
    </contour>
    <contour>
      <point x="116" y="475" type="line"/>
      <point x="884" y="475" type="line"/>
      <point x="884" y="555" type="line"/>
      <point x="116" y="555" type="line"/>
    </contour>
    <contour>
      <point x="117" y="746" type="curve"/>
      <point x="135" y="669" type="line"/>
      <point x="344" y="676"/>
      <point x="654" y="699"/>
      <point x="854" y="759" type="curve"/>
      <point x="806" y="832" type="line"/>
      <point x="641" y="780"/>
      <point x="337" y="755"/>
    </contour>
  </outline>
</glyph>
<glyph name="uni2F44" format="2">
  <advance width="1000"/>
  <unicode hex="2F44"/>
  <outline>
    <contour>
      <point x="176" y="748" type="curve"/>
      <point x="176" y="-15" type="line"/>
      <point x="256" y="-15" type="line"/>
      <point x="256" y="674" type="line"/>
      <point x="467" y="685"/>
      <point x="695" y="715"/>
      <point x="853" y="759" type="curve"/>
      <point x="795" y="831" type="line"/>
      <point x="654" y="791"/>
      <point x="396" y="759"/>
    </contour>
    <contour>
      <point x="636" y="-46" type="curve"/>
      <point x="706" y="-88" type="line"/>
      <point x="803" y="40"/>
      <point x="846" y="187"/>
      <point x="846" y="327" type="curve" smooth="yes"/>
      <point x="846" y="465"/>
      <point x="767" y="527"/>
      <point x="583" y="527" type="curve" smooth="yes"/>
      <point x="428" y="527"/>
      <point x="297" y="469"/>
      <point x="208" y="409" type="curve"/>
      <point x="248" y="345" type="line"/>
      <point x="340" y="402"/>
      <point x="466" y="447"/>
      <point x="583" y="447" type="curve" smooth="yes"/>
      <point x="686" y="447"/>
      <point x="765" y="424"/>
      <point x="765" y="327" type="curve" smooth="yes"/>
      <point x="765" y="200"/>
      <point x="729" y="78"/>
    </contour>
  </outline>
</glyph>
<glyph name="uni2F47" format="2">
  <advance width="1000"/>
  <unicode hex="2F47"/>
  <outline>
    <contour>
      <point x="553" y="-52" type="curve" smooth="yes"/>
      <point x="801" y="-52"/>
      <point x="854" y="144"/>
      <point x="854" y="392" type="curve" smooth="yes"/>
      <point x="854" y="631"/>
      <point x="780" y="786"/>
      <point x="575" y="786" type="curve" smooth="yes"/>
      <point x="431" y="786"/>
      <point x="327" y="741"/>
      <point x="245" y="673" type="curve"/>
      <point x="245" y="772" type="line"/>
      <point x="165" y="772" type="line"/>
      <point x="165" y="-49" type="line"/>
      <point x="245" y="-49" type="line"/>
      <point x="245" y="597" type="line"/>
      <point x="335" y="661"/>
      <point x="433" y="706"/>
      <point x="575" y="706" type="curve" smooth="yes"/>
      <point x="720" y="706"/>
      <point x="772" y="601"/>
      <point x="772" y="392" type="curve" smooth="yes"/>
      <point x="772" y="198"/>
      <point x="752" y="28"/>
      <point x="553" y="28" type="curve" smooth="yes"/>
      <point x="487" y="28"/>
      <point x="420" y="39"/>
      <point x="346" y="67" type="curve"/>
      <point x="346" y="-23" type="line"/>
      <point x="411" y="-43"/>
      <point x="481" y="-52"/>
    </contour>
    <contour>
      <point x="215" y="349" type="line"/>
      <point x="666" y="349" type="line"/>
      <point x="666" y="429" type="line"/>
      <point x="215" y="429" type="line"/>
    </contour>
  </outline>
</glyph>
<glyph name="uni2F4A" format="2">
  <advance width="1000"/>
  <unicode hex="2F4A"/>
  <outline>
    <contour>
      <point x="445" y="-60" type="curve" smooth="yes"/>
      <point x="518" y="-60"/>
      <point x="557" y="-21"/>
      <point x="557" y="52" type="curve" smooth="yes"/>
      <point x="557" y="815" type="line"/>
      <point x="477" y="815" type="line"/>
      <point x="477" y="67" type="line" smooth="yes"/>
      <point x="477" y="34"/>
      <point x="467" y="19"/>
      <point x="432" y="19" type="curve" smooth="yes"/>
      <point x="388" y="19"/>
      <point x="350" y="26"/>
      <point x="305" y="45" type="curve"/>
      <point x="305" y="-44" type="line"/>
      <point x="349" y="-55"/>
      <point x="399" y="-60"/>
    </contour>
    <contour>
      <point x="60" y="85" type="curve"/>
      <point x="127" y="28" type="line"/>
      <point x="257" y="170"/>
      <point x="352" y="355"/>
      <point x="390" y="529" type="curve"/>
      <point x="311" y="542" type="line"/>
      <point x="265" y="362"/>
      <point x="192" y="216"/>
    </contour>
    <contour>
      <point x="938" y="67" type="curve"/>
      <point x="975" y="147" type="line"/>
      <point x="744" y="243"/>
      <point x="516" y="317"/>
      <point x="283" y="370" type="curve"/>
      <point x="258" y="299" type="line"/>
      <point x="490" y="248"/>
      <point x="722" y="163"/>
    </contour>
    <contour>
      <point x="82" y="520" type="line"/>
      <point x="918" y="520" type="line"/>
      <point x="918" y="600" type="line"/>
      <point x="82" y="600" type="line"/>
    </contour>
  </outline>
</glyph>
<glyph name="uni2F4B" format="2">
  <advance width="1000"/>
  <unicode hex="2F4B"/>
  <outline>
    <contour>
      <point x="220" y="626" type="curve"/>
      <point x="255" y="557" type="line"/>
      <point x="350" y="614"/>
      <point x="480" y="659"/>
      <point x="596" y="659" type="curve" smooth="yes"/>
      <point x="728" y="659"/>
      <point x="790" y="603"/>
      <point x="790" y="537" type="curve" smooth="yes"/>
      <point x="790" y="445"/>
      <point x="732" y="356"/>
      <point x="354" y="402" type="curve"/>
      <point x="354" y="321" type="line"/>
      <point x="829" y="281"/>
      <point x="871" y="411"/>
      <point x="871" y="537" type="curve" smooth="yes"/>
      <point x="871" y="656"/>
      <point x="782" y="739"/>
      <point x="596" y="739" type="curve" smooth="yes"/>
      <point x="446" y="739"/>
      <point x="319" y="690"/>
    </contour>
    <contour>
      <point x="52" y="-7" type="curve"/>
      <point x="101" y="-75" type="line"/>
      <point x="496" y="52"/>
      <point x="555" y="292"/>
      <point x="553" y="500" type="curve"/>
      <point x="472" y="500" type="line"/>
      <point x="471" y="295"/>
      <point x="431" y="112"/>
    </contour>
    <contour>
      <point x="888" y="-83" type="curve"/>
      <point x="945" y="-18" type="line"/>
      <point x="828" y="70"/>
      <point x="684" y="160"/>
      <point x="552" y="234" type="curve"/>
      <point x="508" y="170" type="line"/>
      <point x="637" y="96"/>
      <point x="781" y="3"/>
    </contour>
    <contour>
      <point x="69" y="410" type="curve"/>
      <point x="135" y="363" type="line"/>
      <point x="246" y="502"/>
      <point x="331" y="668"/>
      <point x="371" y="835" type="curve"/>
      <point x="293" y="852" type="line"/>
      <point x="249" y="683"/>
      <point x="167" y="526"/>
    </contour>
  </outline>
</glyph>
<glyph name="uni2F4C" format="2">
  <advance width="1000"/>
  <unicode hex="2F4C"/>
  <outline>
    <contour>
      <point x="234" y="-17" type="curve" smooth="yes"/>
      <point x="590" y="-17" type="line" smooth="yes"/>
      <point x="662" y="-17"/>
      <point x="705" y="17"/>
      <point x="705" y="108" type="curve" smooth="yes"/>
      <point x="705" y="185"/>
      <point x="654" y="287"/>
      <point x="594" y="373" type="curve"/>
      <point x="514" y="342" type="line"/>
      <point x="577" y="253"/>
      <point x="620" y="165"/>
      <point x="620" y="116" type="curve" smooth="yes"/>
      <point x="620" y="84"/>
      <point x="603" y="62"/>
      <point x="572" y="62" type="curve" smooth="yes"/>
      <point x="234" y="62" type="line" smooth="yes"/>
      <point x="195" y="62"/>
      <point x="167" y="76"/>
      <point x="167" y="127" type="curve" smooth="yes"/>
      <point x="167" y="295"/>
      <point x="231" y="525"/>
      <point x="340" y="737" type="curve"/>
      <point x="263" y="771" type="line"/>
      <point x="142" y="550"/>
      <point x="84" y="304"/>
      <point x="84" y="101" type="curve" smooth="yes"/>
      <point x="84" y="1"/>
      <point x="138" y="-17"/>
    </contour>
    <contour>
      <point x="810" y="153" type="curve"/>
      <point x="891" y="132" type="line"/>
      <point x="910" y="202"/>
      <point x="922" y="282"/>
      <point x="922" y="425" type="curve" smooth="yes"/>
      <point x="922" y="553"/>
      <point x="845" y="628"/>
      <point x="719" y="628" type="curve" smooth="yes"/>
      <point x="602" y="628"/>
      <point x="506" y="600"/>
      <point x="419" y="550" type="curve"/>
      <point x="448" y="471" type="line"/>
      <point x="530" y="523"/>
      <point x="627" y="546"/>
      <point x="719" y="546" type="curve" smooth="yes"/>
      <point x="793" y="546"/>
      <point x="842" y="501"/>
      <point x="842" y="417" type="curve" smooth="yes"/>
      <point x="842" y="303"/>
      <point x="830" y="224"/>
    </contour>
  </outline>
</glyph>
<glyph name="uni2F51" format="2">
  <advance width="1000"/>
  <unicode hex="2F51"/>
  <outline>
    <contour>
      <point x="542" y="-61" type="curve" smooth="yes"/>
      <point x="782" y="-61" type="line" smooth="yes"/>
      <point x="885" y="-61"/>
      <point x="905" y="-11"/>
      <point x="917" y="143" type="curve"/>
      <point x="839" y="149" type="line"/>
      <point x="832" y="32"/>
      <point x="824" y="19"/>
      <point x="770" y="19" type="curve" smooth="yes"/>
      <point x="563" y="19" type="line" smooth="yes"/>
      <point x="508" y="19"/>
      <point x="497" y="33"/>
      <point x="497" y="83" type="curve" smooth="yes"/>
      <point x="497" y="732" type="line"/>
      <point x="417" y="732" type="line"/>
      <point x="417" y="79" type="line" smooth="yes"/>
      <point x="417" y="-32"/>
      <point x="440" y="-61"/>
    </contour>
    <contour>
      <point x="91" y="435" type="line"/>
      <point x="871" y="470" type="line"/>
      <point x="868" y="550" type="line"/>
      <point x="88" y="515" type="line"/>
    </contour>
    <contour>
      <point x="110" y="728" type="curve"/>
      <point x="126" y="650" type="line"/>
      <point x="352" y="664"/>
      <point x="624" y="698"/>
      <point x="814" y="748" type="curve"/>
      <point x="776" y="825" type="line"/>
      <point x="612" y="777"/>
      <point x="342" y="744"/>
    </contour>
    <contour>
      <point x="71" y="226" type="line"/>
      <point x="891" y="262" type="line"/>
      <point x="888" y="342" type="line"/>
      <point x="68" y="306" type="line"/>
    </contour>
  </outline>
</glyph>
<glyph name="uni2F53" format="2">
  <advance width="1000"/>
  <unicode hex="2F53"/>
  <outline>
    <contour>
      <point x="28" y="489" type="curve"/>
      <point x="101" y="442" type="line"/>
      <point x="192" y="544"/>
      <point x="262" y="688"/>
      <point x="303" y="829" type="curve"/>
      <point x="223" y="850" type="line"/>
      <point x="182" y="709"/>
      <point x="111" y="574"/>
    </contour>
    <contour>
      <point x="224" y="492" type="line"/>
      <point x="848" y="492" type="line"/>
      <point x="848" y="572" type="line"/>
      <point x="224" y="572" type="line"/>
    </contour>
    <contour>
      <point x="217" y="663" type="line"/>
      <point x="907" y="663" type="line"/>
      <point x="907" y="743" type="line"/>
      <point x="217" y="743" type="line"/>
    </contour>
    <contour>
      <point x="817" y="181" type="curve"/>
      <point x="896" y="147" type="line"/>
      <point x="921" y="205"/>
      <point x="933" y="243"/>
      <point x="933" y="285" type="curve" smooth="yes"/>
      <point x="933" y="387"/>
      <point x="826" y="433"/>
      <point x="590" y="433" type="curve" smooth="yes"/>
      <point x="414" y="433"/>
      <point x="251" y="398"/>
      <point x="130" y="350" type="curve"/>
      <point x="160" y="272" type="line"/>
      <point x="274" y="318"/>
      <point x="433" y="352"/>
      <point x="590" y="352" type="curve" smooth="yes"/>
      <point x="790" y="352"/>
      <point x="846" y="320"/>
      <point x="846" y="280" type="curve" smooth="yes"/>
      <point x="846" y="253"/>
      <point x="839" y="228"/>
    </contour>
  </outline>
</glyph>
<glyph name="uni2F54" format="2">
  <advance width="1000"/>
  <unicode hex="2F54"/>
  <outline>
    <contour>
      <point x="261" y="-68" type="curve" smooth="yes"/>
      <point x="400" y="-68"/>
      <point x="524" y="68"/>
      <point x="524" y="241" type="curve" smooth="yes"/>
      <point x="524" y="367"/>
      <point x="493" y="506"/>
      <point x="320" y="651" type="curve"/>
      <point x="252" y="606" type="line"/>
      <point x="412" y="460"/>
      <point x="442" y="330"/>
      <point x="442" y="241" type="curve" smooth="yes"/>
      <point x="442" y="114"/>
      <point x="352" y="13"/>
      <point x="261" y="14" type="curve" smooth="yes"/>
      <point x="186" y="15"/>
      <point x="141" y="66"/>
      <point x="141" y="131" type="curve" smooth="yes"/>
      <point x="141" y="322"/>
      <point x="550" y="399"/>
      <point x="735" y="391" type="curve"/>
      <point x="735" y="48" type="line"/>
      <point x="597" y="48" type="line"/>
      <point x="597" y="-32" type="line"/>
      <point x="953" y="-32" type="line"/>
      <point x="953" y="48" type="line"/>
      <point x="815" y="48" type="line"/>
      <point x="815" y="467" type="line"/>
      <point x="757" y="495" type="line"/>
      <point x="739" y="476" type="line"/>
      <point x="490" y="477"/>
      <point x="59" y="400"/>
      <point x="59" y="131" type="curve" smooth="yes"/>
      <point x="59" y="13"/>
      <point x="126" y="-68"/>
    </contour>
    <contour>
      <point x="137" y="625" type="curve"/>
      <point x="169" y="550" type="line"/>
      <point x="352" y="603"/>
      <point x="531" y="678"/>
      <point x="707" y="774" type="curve"/>
      <point x="641" y="840" type="line"/>
      <point x="502" y="762"/>
      <point x="304" y="674"/>
    </contour>
  </outline>
</glyph>
<glyph name="uni2F55" format="2">
  <advance width="1000"/>
  <unicode hex="2F55"/>
  <outline>
    <contour>
      <point x="329" y="106" type="curve"/>
      <point x="407" y="76" type="line"/>
      <point x="497" y="148"/>
      <point x="617" y="253"/>
      <point x="685" y="325" type="curve"/>
      <point x="627" y="397" type="line"/>
      <point x="605" y="387" type="line"/>
      <point x="441" y="387" type="line"/>
      <point x="510" y="498"/>
      <point x="545" y="617"/>
      <point x="570" y="827" type="curve"/>
      <point x="490" y="832" type="line"/>
      <point x="472" y="620"/>
      <point x="431" y="495"/>
      <point x="326" y="353" type="curve"/>
      <point x="373" y="296" type="line"/>
      <point x="402" y="307" type="line"/>
      <point x="547" y="307" type="line"/>
      <point x="494" y="243"/>
      <point x="414" y="173"/>
    </contour>
    <contour>
      <point x="875" y="-56" type="curve"/>
      <point x="910" y="19" type="line"/>
      <point x="635" y="82"/>
      <point x="390" y="127"/>
      <point x="146" y="160" type="curve"/>
      <point x="102" y="87" type="line"/>
      <point x="366" y="49"/>
      <point x="622" y="3"/>
    </contour>
    <contour>
      <point x="82" y="407" type="curve"/>
      <point x="157" y="371" type="line"/>
      <point x="220" y="444"/>
      <point x="261" y="566"/>
      <point x="286" y="666" type="curve"/>
      <point x="210" y="688" type="line"/>
      <point x="188" y="592"/>
      <point x="145" y="478"/>
    </contour>
    <contour>
      <point x="696" y="403" type="curve"/>
      <point x="762" y="373" type="line"/>
      <point x="810" y="446"/>
      <point x="870" y="561"/>
      <point x="914" y="656" type="curve"/>
      <point x="831" y="688" type="line"/>
      <point x="800" y="600"/>
      <point x="742" y="478"/>
    </contour>
  </outline>
</glyph>
<glyph name="uni2F5A" format="2">
  <advance width="1000"/>
  <unicode hex="2F5A"/>
  <outline>
    <contour>
      <point x="169" y="119" type="line"/>
      <point x="247" y="119" type="line"/>
      <point x="249" y="804" type="line"/>
      <point x="169" y="804" type="line"/>
    </contour>
    <contour>
      <point x="614" y="511" type="curve" smooth="yes"/>
      <point x="732" y="511"/>
      <point x="774" y="567"/>
      <point x="774" y="658" type="curve" smooth="yes"/>
      <point x="774" y="829" type="line"/>
      <point x="694" y="829" type="line"/>
      <point x="694" y="675" type="line" smooth="yes"/>
      <point x="694" y="611"/>
      <point x="669" y="590"/>
      <point x="614" y="590" type="curve" smooth="yes"/>
      <point x="515" y="590"/>
      <point x="428" y="599"/>
      <point x="348" y="618" type="curve"/>
      <point x="348" y="531" type="line"/>
      <point x="420" y="518"/>
      <point x="522" y="511"/>
    </contour>
    <contour>
      <point x="581" y="370" type="curve" smooth="yes"/>
      <point x="377" y="370"/>
      <point x="252" y="257"/>
      <point x="145" y="108" type="curve"/>
      <point x="202" y="51" type="line"/>
      <point x="324" y="206"/>
      <point x="444" y="289"/>
      <point x="581" y="289" type="curve" smooth="yes"/>
      <point x="691" y="289"/>
      <point x="755" y="254"/>
      <point x="755" y="176" type="curve" smooth="yes"/>
      <point x="755" y="81"/>
      <point x="691" y="34"/>
      <point x="598" y="-10" type="curve"/>
      <point x="639" y="-80" type="line"/>
      <point x="751" y="-29"/>
      <point x="836" y="49"/>
      <point x="836" y="176" type="curve" smooth="yes"/>
      <point x="836" y="311"/>
      <point x="733" y="370"/>
    </contour>
  </outline>
</glyph>
<glyph name="uni2F5C" format="2">
  <advance width="1000"/>
  <unicode hex="2F5C"/>
  <outline>
    <contour>
      <point x="80" y="397" type="curve"/>
      <point x="153" y="357" type="line"/>
      <point x="218" y="477"/>
      <point x="276" y="646"/>
      <point x="304" y="781" type="curve"/>
      <point x="226" y="794" type="line"/>
      <point x="196" y="657"/>
      <point x="140" y="501"/>
    </contour>
    <contour>
      <point x="206" y="558" type="line"/>
      <point x="864" y="558" type="line"/>
      <point x="864" y="638" type="line"/>
      <point x="206" y="638" type="line"/>
    </contour>
    <contour>
      <point x="465" y="-79" type="curve" smooth="yes"/>
      <point x="525" y="-79"/>
      <point x="560" y="-40"/>
      <point x="560" y="20" type="curve" smooth="yes"/>
      <point x="560" y="824" type="line"/>
      <point x="480" y="824" type="line"/>
      <point x="480" y="33" type="line" smooth="yes"/>
      <point x="480" y="14"/>
      <point x="468" y="-1"/>
      <point x="431" y="-1" type="curve" smooth="yes"/>
      <point x="383" y="-1"/>
      <point x="336" y="9"/>
      <point x="285" y="30" type="curve"/>
      <point x="285" y="-58" type="line"/>
      <point x="343" y="-73"/>
      <point x="395" y="-79"/>
    </contour>
    <contour>
      <point x="939" y="216" type="curve"/>
      <point x="959" y="300" type="line"/>
      <point x="738" y="332"/>
      <point x="444" y="333"/>
      <point x="55" y="299" type="curve"/>
      <point x="55" y="222" type="line"/>
      <point x="439" y="253"/>
      <point x="734" y="246"/>
    </contour>
  </outline>
</glyph>
<glyph name="uni2F5D" format="2">
  <advance width="1000"/>
  <unicode hex="2F5D"/>
  <outline>
    <contour>
      <point x="46" y="-11" type="curve"/>
      <point x="101" y="-73" type="line"/>
      <point x="496" y="143"/>
      <point x="563" y="565"/>
      <point x="557" y="837" type="curve"/>
      <point x="476" y="837" type="line"/>
      <point x="475" y="570"/>
      <point x="425" y="192"/>
    </contour>
    <contour>
      <point x="900" y="-76" type="curve"/>
      <point x="961" y="-20" type="line"/>
      <point x="834" y="124"/>
      <point x="657" y="281"/>
      <point x="481" y="419" type="curve"/>
      <point x="438" y="360" type="line"/>
      <point x="597" y="231"/>
      <point x="776" y="70"/>
    </contour>
    <contour>
      <point x="62" y="475" type="line"/>
      <point x="942" y="475" type="line"/>
      <point x="942" y="555" type="line"/>
      <point x="62" y="555" type="line"/>
    </contour>
    <contour>
      <point x="846" y="591" type="curve"/>
      <point x="926" y="626" type="line"/>
      <point x="899" y="691"/>
      <point x="859" y="762"/>
      <point x="819" y="816" type="curve"/>
      <point x="747" y="784" type="line"/>
      <point x="787" y="729"/>
      <point x="826" y="652"/>
    </contour>
  </outline>
</glyph>
<glyph name="uni2F5F" format="2">
  <advance width="1000"/>
  <unicode hex="2F5F"/>
  <outline>
    <contour>
      <point x="483" y="27" type="curve"/>
      <point x="558" y="1" type="line"/>
      <point x="689" y="113"/>
      <point x="771" y="206"/>
      <point x="771" y="337" type="curve" smooth="yes"/>
      <point x="771" y="480"/>
      <point x="687" y="553"/>
      <point x="503" y="553" type="curve" smooth="yes"/>
      <point x="309" y="553"/>
      <point x="209" y="478"/>
      <point x="209" y="363" type="curve" smooth="yes"/>
      <point x="209" y="253"/>
      <point x="277" y="183"/>
      <point x="399" y="183" type="curve" smooth="yes"/>
      <point x="490" y="183"/>
      <point x="550" y="249"/>
      <point x="550" y="328" type="curve" smooth="yes"/>
      <point x="550" y="729" type="line"/>
      <point x="470" y="729" type="line"/>
      <point x="470" y="353" type="line" smooth="yes"/>
      <point x="470" y="289"/>
      <point x="442" y="262"/>
      <point x="396" y="262" type="curve" smooth="yes"/>
      <point x="339" y="262"/>
      <point x="292" y="298"/>
      <point x="292" y="363" type="curve" smooth="yes"/>
      <point x="292" y="415"/>
      <point x="350" y="471"/>
      <point x="503" y="471" type="curve" smooth="yes"/>
      <point x="644" y="471"/>
      <point x="688" y="422"/>
      <point x="688" y="337" type="curve" smooth="yes"/>
      <point x="688" y="238"/>
      <point x="620" y="145"/>
    </contour>
    <contour>
      <point x="63" y="-36" type="line"/>
      <point x="940" y="-36" type="line"/>
      <point x="940" y="44" type="line"/>
      <point x="63" y="44" type="line"/>
    </contour>
    <contour>
      <point x="102" y="697" type="line"/>
      <point x="896" y="697" type="line"/>
      <point x="896" y="777" type="line"/>
      <point x="102" y="777" type="line"/>
    </contour>
    <contour>
      <point x="903" y="156" type="curve"/>
      <point x="969" y="201" type="line"/>
      <point x="931" y="263"/>
      <point x="888" y="323"/>
      <point x="839" y="382" type="curve"/>
      <point x="777" y="339" type="line"/>
      <point x="824" y="280"/>
      <point x="866" y="218"/>
    </contour>
  </outline>
</glyph>
<glyph name="uni2F61" format="2">
  <advance width="1000"/>
  <unicode hex="2F61"/>
  <outline>
    <contour>
      <point x="60" y="-19" type="curve"/>
      <point x="118" y="-78" type="line"/>
      <point x="314" y="75"/>
      <point x="336" y="289"/>
      <point x="336" y="475" type="curve" smooth="yes"/>
      <point x="336" y="706" type="line"/>
      <point x="645" y="706" type="line"/>
      <point x="645" y="69" type="line" smooth="yes"/>
      <point x="645" y="-30"/>
      <point x="670" y="-58"/>
      <point x="740" y="-58" type="curve" smooth="yes"/>
      <point x="836" y="-58" type="line" smooth="yes"/>
      <point x="921" y="-58"/>
      <point x="939" y="-21"/>
      <point x="945" y="151" type="curve"/>
      <point x="870" y="158" type="line"/>
      <point x="866" y="25"/>
      <point x="857" y="16"/>
      <point x="832" y="16" type="curve" smooth="yes"/>
      <point x="756" y="16" type="line" smooth="yes"/>
      <point x="734" y="16"/>
      <point x="725" y="27"/>
      <point x="725" y="67" type="curve" smooth="yes"/>
      <point x="725" y="786" type="line"/>
      <point x="256" y="786" type="line"/>
      <point x="256" y="481" type="line" smooth="yes"/>
      <point x="256" y="312"/>
      <point x="241" y="129"/>
    </contour>
    <contour>
      <point x="595" y="524" type="line"/>
      <point x="543" y="540"/>
      <point x="423" y="572"/>
      <point x="343" y="591" type="qcurve"/>
      <point x="319" y="519" type="line"/>
      <point x="396" y="499"/>
      <point x="516" y="464"/>
      <point x="569" y="448" type="qcurve"/>
    </contour>
    <contour>
      <point x="595" y="322" type="line"/>
      <point x="543" y="338"/>
      <point x="423" y="370"/>
      <point x="343" y="389" type="qcurve"/>
      <point x="319" y="317" type="line"/>
      <point x="396" y="297"/>
      <point x="516" y="262"/>
      <point x="569" y="246" type="qcurve"/>
    </contour>
  </outline>
</glyph>
<glyph name="uni2F62" format="2">
  <advance width="1000"/>
  <unicode hex="2F62"/>
  <outline>
    <contour>
      <point x="329" y="58" type="curve" smooth="yes"/>
      <point x="577" y="58" type="line"/>
      <point x="577" y="138" type="line"/>
      <point x="342" y="138" type="line" smooth="yes"/>
      <point x="302" y="138"/>
      <point x="279" y="162"/>
      <point x="279" y="218" type="curve" smooth="yes"/>
      <point x="279" y="810" type="line"/>
      <point x="199" y="810" type="line"/>
      <point x="199" y="213" type="line" smooth="yes"/>
      <point x="199" y="112"/>
      <point x="253" y="58"/>
    </contour>
    <contour>
      <point x="650" y="-77" type="curve" smooth="yes"/>
      <point x="828" y="-77"/>
      <point x="884" y="111"/>
      <point x="884" y="377" type="curve" smooth="yes"/>
      <point x="884" y="634"/>
      <point x="755" y="724"/>
      <point x="551" y="724" type="curve" smooth="yes"/>
      <point x="362" y="724"/>
      <point x="183" y="691"/>
      <point x="71" y="645" type="curve"/>
      <point x="93" y="569" type="line"/>
      <point x="210" y="614"/>
      <point x="388" y="643"/>
      <point x="551" y="643" type="curve" smooth="yes"/>
      <point x="716" y="643"/>
      <point x="804" y="537"/>
      <point x="804" y="377" type="curve" smooth="yes"/>
      <point x="804" y="155"/>
      <point x="768" y="2"/>
      <point x="645" y="2" type="curve" smooth="yes"/>
      <point x="569" y="2"/>
      <point x="507" y="12"/>
      <point x="458" y="27" type="curve"/>
      <point x="458" y="-61" type="line"/>
      <point x="506" y="-71"/>
      <point x="568" y="-77"/>
    </contour>
    <contour>
      <point x="599" y="241" type="curve"/>
      <point x="666" y="294" type="line"/>
      <point x="602" y="371"/>
      <point x="528" y="447"/>
      <point x="444" y="522" type="curve"/>
      <point x="383" y="471" type="line"/>
      <point x="465" y="395"/>
      <point x="537" y="318"/>
    </contour>
  </outline>
</glyph>
<glyph name="uni2F67" format="2">
  <advance width="1000"/>
  <unicode hex="2F67"/>
  <outline>
    <contour>
      <point x="533" y="731" type="line"/>
      <point x="231" y="731" type="line"/>
      <point x="231" y="470" type="line" smooth="yes"/>
      <point x="231" y="325"/>
      <point x="223" y="112"/>
      <point x="134" y="-33" type="curve"/>
      <point x="205" y="-70" type="line"/>
      <point x="298" y="82"/>
      <point x="311" y="317"/>
      <point x="311" y="470" type="curve" smooth="yes"/>
      <point x="311" y="651" type="line"/>
      <point x="943" y="651" type="line"/>
      <point x="943" y="731" type="line"/>
      <point x="622" y="731" type="line"/>
      <point x="568" y="845" type="line"/>
      <point x="489" y="827" type="line"/>
    </contour>
    <contour>
      <point x="251" y="306" type="line"/>
      <point x="154" y="266" type="line"/>
      <point x="154" y="592" type="line"/>
      <point x="74" y="592" type="line"/>
      <point x="74" y="280" type="line" smooth="yes"/>
      <point x="74" y="246"/>
      <point x="56" y="227"/>
      <point x="44" y="219" type="curve"/>
      <point x="74" y="144" type="line"/>
      <point x="280" y="231" type="line"/>
    </contour>
  </outline>
</glyph>
<glyph name="uni2F6A" format="2">
  <advance width="1000"/>
  <unicode hex="2F6A"/>
  <outline>
    <contour>
      <point x="899" y="-89" type="curve"/>
      <point x="938" y="-6" type="line"/>
      <point x="657" y="60"/>
      <point x="530" y="240"/>
      <point x="289" y="240" type="curve" smooth="yes"/>
      <point x="169" y="240"/>
      <point x="85" y="179"/>
      <point x="85" y="86" type="curve" smooth="yes"/>
      <point x="85" y="-6"/>
      <point x="162" y="-61"/>
      <point x="267" y="-61" type="curve" smooth="yes"/>
      <point x="521" y="-61"/>
      <point x="791" y="160"/>
      <point x="791" y="282" type="curve" smooth="yes"/>
      <point x="791" y="393"/>
      <point x="706" y="444"/>
      <point x="511" y="444" type="curve" smooth="yes"/>
      <point x="409" y="444"/>
      <point x="304" y="427"/>
      <point x="213" y="400" type="curve"/>
      <point x="246" y="319" type="line"/>
      <point x="316" y="346"/>
      <point x="419" y="364"/>
      <point x="511" y="364" type="curve" smooth="yes"/>
      <point x="639" y="364"/>
      <point x="703" y="340"/>
      <point x="703" y="282" type="curve" smooth="yes"/>
      <point x="703" y="189"/>
      <point x="455" y="19"/>
      <point x="267" y="19" type="curve" smooth="yes"/>
      <point x="199" y="19"/>
      <point x="168" y="44"/>
      <point x="168" y="86" type="curve" smooth="yes"/>
      <point x="168" y="127"/>
      <point x="223" y="160"/>
      <point x="289" y="160" type="curve" smooth="yes"/>
      <point x="498" y="160"/>
      <point x="621" y="-20"/>
    </contour>
    <contour>
      <point x="459" y="388" type="line"/>
      <point x="541" y="388" type="line"/>
      <point x="541" y="835" type="line"/>
      <point x="459" y="835" type="line"/>
    </contour>
    <contour>
      <point x="811" y="501" type="curve"/>
      <point x="889" y="472" type="line"/>
      <point x="912" y="524"/>
      <point x="922" y="555"/>
      <point x="922" y="588" type="curve" smooth="yes"/>
      <point x="922" y="676"/>
      <point x="818" y="720"/>
      <point x="587" y="720" type="curve" smooth="yes"/>
      <point x="416" y="720"/>
      <point x="264" y="689"/>
      <point x="165" y="647" type="curve"/>
      <point x="165" y="704" type="line"/>
      <point x="83" y="704" type="line"/>
      <point x="83" y="490" type="line"/>
      <point x="165" y="490" type="line"/>
      <point x="165" y="578" type="line"/>
      <point x="277" y="615"/>
      <point x="433" y="639"/>
      <point x="587" y="639" type="curve" smooth="yes"/>
      <point x="782" y="639"/>
      <point x="837" y="616"/>
      <point x="837" y="582" type="curve" smooth="yes"/>
      <point x="837" y="562"/>
      <point x="830" y="541"/>
    </contour>
  </outline>
</glyph>
<glyph name="uni2F6B" format="2">
  <advance width="1000"/>
  <unicode hex="2F6B"/>
  <outline>
    <contour>
      <point x="725" y="119" type="curve"/>
      <point x="749" y="37" type="line"/>
      <point x="859" y="68"/>
      <point x="920" y="133"/>
      <point x="921" y="230" type="curve" smooth="yes"/>
      <point x="922" y="320"/>
      <point x="833" y="388"/>
      <point x="595" y="388" type="curve" smooth="yes"/>
      <point x="415" y="388"/>
      <point x="227" y="359"/>
      <point x="89" y="322" type="curve"/>
      <point x="106" y="244" type="line"/>
      <point x="242" y="280"/>
      <point x="436" y="308"/>
      <point x="595" y="308" type="curve" smooth="yes"/>
      <point x="779" y="308"/>
      <point x="837" y="269"/>
      <point x="837" y="228" type="curve" smooth="yes"/>
      <point x="837" y="168"/>
      <point x="791" y="137"/>
    </contour>
    <contour>
      <point x="301" y="207" type="line"/>
      <point x="301" y="128" type="line"/>
      <point x="654" y="128" type="line"/>
      <point x="654" y="207" type="line"/>
    </contour>
    <contour>
      <point x="123" y="15" type="line"/>
      <point x="123" y="-65" type="line"/>
      <point x="857" y="-65" type="line"/>
      <point x="857" y="15" type="line"/>
    </contour>
  </outline>
</glyph>
<glyph name="uni2F6F" format="2">
  <advance width="1000"/>
  <unicode hex="2F6F"/>
  <outline>
    <contour>
      <point x="592" y="699" type="curve"/>
      <point x="508" y="731" type="line"/>
      <point x="399" y="530"/>
      <point x="208" y="347"/>
      <point x="21" y="210" type="curve"/>
      <point x="77" y="144" type="line"/>
      <point x="268" y="289"/>
      <point x="473" y="494"/>
    </contour>
    <contour>
      <point x="555" y="60" type="curve"/>
      <point x="555" y="-24" type="line"/>
      <point x="826" y="-79"/>
      <point x="911" y="48"/>
      <point x="911" y="217" type="curve" smooth="yes"/>
      <point x="911" y="366"/>
      <point x="825" y="434"/>
      <point x="671" y="434" type="curve" smooth="yes"/>
      <point x="564" y="434"/>
      <point x="462" y="385"/>
      <point x="385" y="289" type="curve"/>
      <point x="385" y="443" type="line"/>
      <point x="304" y="443" type="line"/>
      <point x="304" y="-19" type="line"/>
      <point x="385" y="-19" type="line"/>
      <point x="385" y="204" type="line"/>
      <point x="491" y="329"/>
      <point x="578" y="355"/>
      <point x="671" y="355" type="curve" smooth="yes"/>
      <point x="776" y="355"/>
      <point x="825" y="299"/>
      <point x="825" y="217" type="curve" smooth="yes"/>
      <point x="825" y="88"/>
      <point x="768" y="9"/>
    </contour>
    <contour>
      <point x="66" y="684" type="line"/>
      <point x="936" y="684" type="line"/>
      <point x="936" y="764" type="line"/>
      <point x="66" y="764" type="line"/>
    </contour>
  </outline>
</glyph>
<glyph name="uni2F70" format="2">
  <advance width="1000"/>
  <unicode hex="2F70"/>
  <outline>
    <contour>
      <point x="349" y="799" type="curve"/>
      <point x="322" y="728" type="line"/>
      <point x="433" y="700"/>
      <point x="549" y="664"/>
      <point x="644" y="624" type="curve"/>
      <point x="678" y="703" type="line"/>
      <point x="580" y="738"/>
      <point x="464" y="772"/>
    </contour>
    <contour>
      <point x="447" y="-73" type="curve" smooth="yes"/>
      <point x="541" y="-73"/>
      <point x="593" y="-28"/>
      <point x="593" y="195" type="curve" smooth="yes"/>
      <point x="593" y="335"/>
      <point x="560" y="444"/>
      <point x="498" y="541" type="curve"/>
      <point x="426" y="501" type="line"/>
      <point x="483" y="397"/>
      <point x="512" y="303"/>
      <point x="512" y="195" type="curve" smooth="yes"/>
      <point x="512" y="73"/>
      <point x="505" y="6"/>
      <point x="445" y="6" type="curve" smooth="yes"/>
      <point x="404" y="6"/>
      <point x="366" y="15"/>
      <point x="323" y="30" type="curve"/>
      <point x="323" y="-55" type="line"/>
      <point x="366" y="-68"/>
      <point x="404" y="-73"/>
    </contour>
    <contour>
      <point x="50" y="134" type="curve"/>
      <point x="121" y="93" type="line"/>
      <point x="184" y="191"/>
      <point x="248" y="345"/>
      <point x="286" y="475" type="curve"/>
      <point x="203" y="497" type="line"/>
      <point x="173" y="379"/>
      <point x="111" y="228"/>
    </contour>
    <contour>
      <point x="879" y="84" type="curve"/>
      <point x="958" y="118" type="line"/>
      <point x="924" y="224"/>
      <point x="855" y="382"/>
      <point x="779" y="508" type="curve"/>
      <point x="706" y="468" type="line"/>
      <point x="780" y="340"/>
      <point x="848" y="188"/>
    </contour>
  </outline>
</glyph>
<glyph name="uni2F72" format="2">
  <advance width="1000"/>
  <unicode hex="2F72"/>
  <outline>
    <contour>
      <point x="943" y="30" type="curve"/>
      <point x="974" y="114" type="line"/>
      <point x="743" y="205"/>
      <point x="515" y="275"/>
      <point x="282" y="325" type="curve"/>
      <point x="263" y="249" type="line"/>
      <point x="495" y="201"/>
      <point x="727" y="121"/>
    </contour>
    <contour>
      <point x="60" y="52" type="curve"/>
      <point x="128" y="-2" type="line"/>
      <point x="258" y="132"/>
      <point x="353" y="306"/>
      <point x="391" y="471" type="curve"/>
      <point x="311" y="483" type="line"/>
      <point x="265" y="313"/>
      <point x="192" y="176"/>
    </contour>
    <contour>
      <point x="445" y="-57" type="curve" smooth="yes"/>
      <point x="518" y="-57"/>
      <point x="557" y="-21"/>
      <point x="557" y="52" type="curve" smooth="yes"/>
      <point x="557" y="750" type="line"/>
      <point x="477" y="750" type="line"/>
      <point x="477" y="67" type="line" smooth="yes"/>
      <point x="477" y="34"/>
      <point x="467" y="16"/>
      <point x="432" y="16" type="curve" smooth="yes"/>
      <point x="388" y="16"/>
      <point x="350" y="23"/>
      <point x="305" y="42" type="curve"/>
      <point x="305" y="-41" type="line"/>
      <point x="349" y="-52"/>
      <point x="399" y="-57"/>
    </contour>
    <contour>
      <point x="82" y="459" type="line"/>
      <point x="918" y="459" type="line"/>
      <point x="918" y="539" type="line"/>
      <point x="82" y="539" type="line"/>
    </contour>
    <contour>
      <point x="136" y="779" type="curve"/>
      <point x="163" y="700" type="line"/>
      <point x="390" y="703"/>
      <point x="661" y="722"/>
      <point x="846" y="754" type="curve"/>
      <point x="799" y="829" type="line"/>
      <point x="612" y="797"/>
      <point x="370" y="780"/>
    </contour>
  </outline>
</glyph>
<glyph name="uni2F73" format="2">
  <advance width="1000"/>
  <unicode hex="2F73"/>
  <outline>
    <contour>
      <point x="501" y="668" type="curve"/>
      <point x="576" y="689" type="line"/>
      <point x="559" y="740"/>
      <point x="529" y="800"/>
      <point x="498" y="847" type="curve"/>
      <point x="426" y="825" type="line"/>
      <point x="454" y="779"/>
      <point x="487" y="716"/>
    </contour>
    <contour>
      <point x="809" y="478" type="curve"/>
      <point x="888" y="447" type="line"/>
      <point x="912" y="501"/>
      <point x="923" y="536"/>
      <point x="923" y="573" type="curve" smooth="yes"/>
      <point x="923" y="668"/>
      <point x="818" y="713"/>
      <point x="587" y="713" type="curve" smooth="yes"/>
      <point x="415" y="713"/>
      <point x="264" y="679"/>
      <point x="166" y="633" type="curve"/>
      <point x="166" y="695" type="line"/>
      <point x="82" y="695" type="line"/>
      <point x="82" y="465" type="line"/>
      <point x="166" y="465" type="line"/>
      <point x="166" y="562" type="line"/>
      <point x="278" y="603"/>
      <point x="433" y="630"/>
      <point x="587" y="630" type="curve" smooth="yes"/>
      <point x="782" y="630"/>
      <point x="836" y="604"/>
      <point x="836" y="568" type="curve" smooth="yes"/>
      <point x="836" y="544"/>
      <point x="830" y="521"/>
    </contour>
    <contour>
      <point x="110" y="359" type="curve"/>
      <point x="167" y="310" type="line"/>
      <point x="261" y="374"/>
      <point x="362" y="456"/>
      <point x="423" y="536" type="curve"/>
      <point x="345" y="570" type="line"/>
      <point x="298" y="498"/>
      <point x="203" y="414"/>
    </contour>
    <contour>
      <point x="821" y="308" type="curve"/>
      <point x="889" y="352" type="line"/>
      <point x="830" y="421"/>
      <point x="729" y="508"/>
      <point x="646" y="574" type="curve"/>
      <point x="584" y="530" type="line"/>
      <point x="667" y="464"/>
      <point x="765" y="379"/>
    </contour>
  </outline>
</glyph>
<glyph name="uni2F74" format="2">
  <advance width="1000"/>
  <unicode hex="2F74"/>
  <outline>
    <contour>
      <point x="341" y="28" type="curve"/>
      <point x="446" y="-12" type="line"/>
      <point x="632" y="73"/>
      <point x="751" y="152"/>
      <point x="751" y="261" type="curve" smooth="yes"/>
      <point x="751" y="362"/>
      <point x="684" y="432"/>
      <point x="533" y="432" type="curve" smooth="yes"/>
      <point x="471" y="432"/>
      <point x="410" y="407"/>
      <point x="358" y="375" type="curve"/>
      <point x="398" y="427"/>
      <point x="488" y="587"/>
      <point x="561" y="826" type="curve"/>
      <point x="478" y="846" type="line"/>
      <point x="422" y="605"/>
      <point x="292" y="390"/>
      <point x="200" y="261" type="curve"/>
      <point x="276" y="203" type="line"/>
      <point x="341" y="290"/>
      <point x="422" y="350"/>
      <point x="533" y="350" type="curve" smooth="yes"/>
      <point x="632" y="350"/>
      <point x="664" y="305"/>
      <point x="664" y="261" type="curve" smooth="yes"/>
      <point x="664" y="174"/>
      <point x="509" y="89"/>
    </contour>
    <contour>
      <point x="54" y="-41" type="line"/>
      <point x="947" y="-41" type="line"/>
      <point x="947" y="40" type="line"/>
      <point x="54" y="40" type="line"/>
    </contour>
    <contour>
      <point x="97" y="543" type="line"/>
      <point x="906" y="543" type="line"/>
      <point x="906" y="623" type="line"/>
      <point x="97" y="623" type="line"/>
    </contour>
  </outline>
</glyph>
<glyph name="uni2F77" format="2">
  <advance width="1000"/>
  <unicode hex="2F77"/>
  <outline>
    <contour>
      <point x="315" y="379" type="curve"/>
      <point x="366" y="317" type="line"/>
      <point x="526" y="391"/>
      <point x="675" y="468"/>
      <point x="824" y="567" type="curve"/>
      <point x="763" y="626" type="line"/>
      <point x="687" y="579" type="line"/>
      <point x="330" y="573" type="line"/>
      <point x="412" y="635"/>
      <point x="500" y="709"/>
      <point x="587" y="790" type="curve"/>
      <point x="504" y="837" type="line"/>
      <point x="415" y="738"/>
      <point x="320" y="657"/>
      <point x="231" y="591" type="curve" smooth="yes"/>
      <point x="211" y="575"/>
      <point x="182" y="566"/>
      <point x="154" y="559" type="curve"/>
      <point x="192" y="474" type="line"/>
      <point x="226" y="490" type="line"/>
      <point x="547" y="495" type="line"/>
      <point x="484" y="458"/>
      <point x="402" y="420"/>
    </contour>
    <contour>
      <point x="467" y="-84" type="curve" smooth="yes"/>
      <point x="549" y="-84"/>
      <point x="594" y="-3"/>
      <point x="594" y="139" type="curve" smooth="yes"/>
      <point x="594" y="254"/>
      <point x="560" y="343"/>
      <point x="498" y="422" type="curve"/>
      <point x="431" y="383" type="line"/>
      <point x="485" y="300"/>
      <point x="511" y="225"/>
      <point x="511" y="139" type="curve" smooth="yes"/>
      <point x="511" y="44"/>
      <point x="487" y="-5"/>
      <point x="456" y="-5" type="curve" smooth="yes"/>
      <point x="421" y="-5"/>
      <point x="373" y="2"/>
      <point x="323" y="20" type="curve"/>
      <point x="323" y="-65" type="line"/>
      <point x="371" y="-79"/>
      <point x="419" y="-84"/>
    </contour>
    <contour>
      <point x="56" y="96" type="curve"/>
      <point x="122" y="52" type="line"/>
      <point x="185" y="125"/>
      <point x="249" y="242"/>
      <point x="287" y="340" type="curve"/>
      <point x="203" y="361" type="line"/>
      <point x="173" y="272"/>
      <point x="117" y="167"/>
    </contour>
    <contour>
      <point x="877" y="45" type="curve"/>
      <point x="956" y="77" type="line"/>
      <point x="922" y="157"/>
      <point x="853" y="276"/>
      <point x="777" y="370" type="curve"/>
      <point x="704" y="334" type="line"/>
      <point x="778" y="237"/>
      <point x="846" y="125"/>
    </contour>
  </outline>
</glyph>
<glyph name="uni2F78" format="2">
  <advance width="1000"/>
  <unicode hex="2F78"/>
  <outline>
    <contour>
      <point x="75" y="505" type="curve"/>
      <point x="150" y="471" type="line"/>
      <point x="205" y="567"/>
      <point x="253" y="702"/>
      <point x="278" y="810" type="curve"/>
      <point x="198" y="824" type="line"/>
      <point x="173" y="713"/>
      <point x="126" y="588"/>
    </contour>
    <contour>
      <point x="182" y="623" type="line"/>
      <point x="871" y="623" type="line"/>
      <point x="871" y="703" type="line"/>
      <point x="182" y="703" type="line"/>
    </contour>
    <contour>
      <point x="76" y="433" type="line"/>
      <point x="76" y="353" type="line"/>
      <point x="924" y="353" type="line"/>
      <point x="924" y="433" type="line"/>
    </contour>
    <contour>
      <point x="847" y="13" type="curve"/>
      <point x="918" y="57" type="line"/>
      <point x="868" y="145"/>
      <point x="811" y="234"/>
      <point x="745" y="321" type="curve"/>
      <point x="678" y="280" type="line"/>
      <point x="743" y="192"/>
      <point x="799" y="102"/>
    </contour>
    <contour>
      <point x="535" y="635" type="curve"/>
      <point x="460" y="665" type="line"/>
      <point x="180" y="173"/>
      <point x="160" y="125"/>
      <point x="160" y="57" type="curve" smooth="yes"/>
      <point x="160" y="-6"/>
      <point x="196" y="-49"/>
      <point x="290" y="-49" type="curve" smooth="yes"/>
      <point x="575" y="-49" type="line" smooth="yes"/>
      <point x="648" y="-49"/>
      <point x="680" y="16"/>
      <point x="699" y="185" type="curve"/>
      <point x="619" y="194" type="line"/>
      <point x="610" y="69"/>
      <point x="593" y="31"/>
      <point x="557" y="31" type="curve" smooth="yes"/>
      <point x="313" y="31" type="line" smooth="yes"/>
      <point x="265" y="31"/>
      <point x="246" y="42"/>
      <point x="246" y="66" type="curve" smooth="yes"/>
      <point x="246" y="113"/>
      <point x="263" y="151"/>
    </contour>
  </outline>
</glyph>
<glyph name="uni2F7A" format="2">
  <advance width="1000"/>
  <unicode hex="2F7A"/>
  <outline>
    <contour>
      <point x="436" y="-72" type="curve" smooth="yes"/>
      <point x="511" y="-72"/>
      <point x="554" y="-31"/>
      <point x="554" y="47" type="curve" smooth="yes"/>
      <point x="555" y="625" type="line"/>
      <point x="475" y="625" type="line"/>
      <point x="474" y="52" type="line" smooth="yes"/>
      <point x="474" y="20"/>
      <point x="464" y="4"/>
      <point x="426" y="4" type="curve" smooth="yes"/>
      <point x="397" y="4"/>
      <point x="352" y="11"/>
      <point x="312" y="24" type="curve"/>
      <point x="312" y="-59" type="line"/>
      <point x="347" y="-68"/>
      <point x="391" y="-72"/>
    </contour>
    <contour>
      <point x="77" y="175" type="line"/>
      <point x="923" y="175" type="line"/>
      <point x="923" y="255" type="line"/>
      <point x="77" y="255" type="line"/>
    </contour>
    <contour>
      <point x="145" y="384" type="line"/>
      <point x="855" y="384" type="line"/>
      <point x="855" y="464" type="line"/>
      <point x="145" y="464" type="line"/>
    </contour>
    <contour>
      <point x="305" y="669" type="curve"/>
      <point x="383" y="699" type="line"/>
      <point x="366" y="739"/>
      <point x="333" y="799"/>
      <point x="302" y="841" type="curve"/>
      <point x="228" y="814" type="line"/>
      <point x="256" y="773"/>
      <point x="291" y="709"/>
    </contour>
    <contour>
      <point x="112" y="591" type="line"/>
      <point x="895" y="591" type="line"/>
      <point x="895" y="671" type="line"/>
      <point x="112" y="671" type="line"/>
    </contour>
    <contour>
      <point x="632" y="678" type="curve"/>
      <point x="702" y="655" type="line"/>
      <point x="731" y="702"/>
      <point x="767" y="771"/>
      <point x="790" y="820" type="curve"/>
      <point x="705" y="845" type="line"/>
      <point x="690" y="797"/>
      <point x="660" y="728"/>
    </contour>
  </outline>
</glyph>
<glyph name="uni2F7B" format="2">
  <advance width="1000"/>
  <unicode hex="2F7B"/>
  <outline>
    <contour>
      <point x="201" y="-70" type="curve" smooth="yes"/>
      <point x="335" y="-70"/>
      <point x="437" y="76"/>
      <point x="437" y="394" type="curve" smooth="yes"/>
      <point x="437" y="613"/>
      <point x="409" y="784"/>
      <point x="259" y="784" type="curve" smooth="yes"/>
      <point x="206" y="784"/>
      <point x="149" y="770"/>
      <point x="102" y="751" type="curve"/>
      <point x="118" y="676" type="line"/>
      <point x="163" y="692"/>
      <point x="218" y="704"/>
      <point x="259" y="704" type="curve" smooth="yes"/>
      <point x="345" y="704"/>
      <point x="357" y="564"/>
      <point x="357" y="394" type="curve" smooth="yes"/>
      <point x="357" y="169"/>
      <point x="290" y="10"/>
      <point x="201" y="10" type="curve" smooth="yes"/>
      <point x="173" y="10"/>
      <point x="156" y="31"/>
      <point x="156" y="85" type="curve" smooth="yes"/>
      <point x="156" y="304"/>
      <point x="419" y="718"/>
      <point x="671" y="718" type="curve" smooth="yes"/>
      <point x="791" y="718"/>
      <point x="827" y="587"/>
      <point x="827" y="404" type="curve" smooth="yes"/>
      <point x="827" y="150"/>
      <point x="795" y="14"/>
      <point x="693" y="14" type="curve" smooth="yes"/>
      <point x="650" y="14"/>
      <point x="589" y="27"/>
      <point x="534" y="45" type="curve"/>
      <point x="534" y="-45" type="line"/>
      <point x="588" y="-58"/>
      <point x="643" y="-64"/>
      <point x="698" y="-64" type="curve" smooth="yes"/>
      <point x="851" y="-64"/>
      <point x="908" y="80"/>
      <point x="908" y="404" type="curve" smooth="yes"/>
      <point x="908" y="631"/>
      <point x="865" y="798"/>
      <point x="671" y="798" type="curve" smooth="yes"/>
      <point x="388" y="798"/>
      <point x="76" y="357"/>
      <point x="76" y="85" type="curve" smooth="yes"/>
      <point x="76" y="-16"/>
      <point x="128" y="-70"/>
    </contour>
    <contour>
      <point x="734" y="173" type="curve"/>
      <point x="763" y="248" type="line"/>
      <point x="676" y="283"/>
      <point x="588" y="316"/>
      <point x="499" y="335" type="curve"/>
      <point x="472" y="262" type="line"/>
      <point x="563" y="239"/>
      <point x="648" y="212"/>
    </contour>
    <contour>
      <point x="746" y="389" type="curve"/>
      <point x="774" y="466" type="line"/>
      <point x="691" y="498"/>
      <point x="605" y="522"/>
      <point x="519" y="541" type="curve"/>
      <point x="494" y="468" type="line"/>
      <point x="578" y="449"/>
      <point x="662" y="422"/>
    </contour>
  </outline>
</glyph>
<glyph name="uni2F81" format="2">
  <advance width="1000"/>
  <unicode hex="2F81"/>
  <outline>
    <contour>
      <point x="391" y="260" type="curve"/>
      <point x="466" y="225" type="line"/>
      <point x="548" y="292"/>
      <point x="650" y="385"/>
      <point x="709" y="449" type="curve"/>
      <point x="645" y="507" type="line"/>
      <point x="627" y="497" type="line"/>
      <point x="410" y="497" type="line"/>
      <point x="461" y="582"/>
      <point x="513" y="707"/>
      <point x="550" y="827" type="curve"/>
      <point x="469" y="845" type="line"/>
      <point x="425" y="701"/>
      <point x="368" y="563"/>
      <point x="298" y="471" type="curve"/>
      <point x="351" y="407" type="line"/>
      <point x="373" y="417" type="line"/>
      <point x="562" y="417" type="line"/>
      <point x="520" y="370"/>
      <point x="461" y="315"/>
    </contour>
    <contour>
      <point x="745" y="131" type="curve"/>
      <point x="767" y="209" type="line"/>
      <point x="596" y="256"/>
      <point x="427" y="290"/>
      <point x="265" y="316" type="curve"/>
      <point x="237" y="241" type="line"/>
      <point x="411" y="211"/>
      <point x="579" y="176"/>
    </contour>
    <contour>
      <point x="131" y="642" type="curve"/>
      <point x="150" y="568" type="line"/>
      <point x="225" y="590"/>
      <point x="306" y="600"/>
      <point x="407" y="600" type="curve" smooth="yes"/>
      <point x="729" y="600" type="line" smooth="yes"/>
      <point x="795" y="600"/>
      <point x="825" y="573"/>
      <point x="825" y="514" type="curve" smooth="yes"/>
      <point x="825" y="42" type="line" smooth="yes"/>
      <point x="825" y="14"/>
      <point x="820" y="0"/>
      <point x="793" y="0" type="curve" smooth="yes"/>
      <point x="762" y="0"/>
      <point x="716" y="8"/>
      <point x="666" y="24" type="curve"/>
      <point x="666" y="-62" type="line"/>
      <point x="714" y="-73"/>
      <point x="758" y="-79"/>
      <point x="797" y="-79" type="curve" smooth="yes"/>
      <point x="869" y="-79"/>
      <point x="905" y="-48"/>
      <point x="905" y="30" type="curve" smooth="yes"/>
      <point x="905" y="524" type="line" smooth="yes"/>
      <point x="905" y="621"/>
      <point x="856" y="679"/>
      <point x="736" y="679" type="curve" smooth="yes"/>
      <point x="405" y="679" type="line" smooth="yes"/>
      <point x="295" y="679"/>
      <point x="213" y="666"/>
    </contour>
    <contour>
      <point x="178" y="-82" type="line"/>
      <point x="178" y="679" type="line"/>
      <point x="98" y="679" type="line"/>
      <point x="98" y="-82" type="line"/>
    </contour>
  </outline>
</glyph>
<glyph name="uni2F89" format="2">
  <advance width="1000"/>
  <unicode hex="2F89"/>
  <outline>
    <contour>
      <point x="668" y="421" type="curve" smooth="yes"/>
      <point x="779" y="421"/>
      <point x="814" y="512"/>
      <point x="831" y="792" type="curve"/>
      <point x="772" y="811" type="line"/>
      <point x="752" y="800" type="line"/>
      <point x="160" y="800" type="line"/>
      <point x="160" y="720" type="line"/>
      <point x="748" y="720" type="line"/>
      <point x="738" y="548"/>
      <point x="712" y="501"/>
      <point x="658" y="501" type="curve" smooth="yes"/>
      <point x="561" y="501"/>
      <point x="490" y="512"/>
      <point x="414" y="527" type="curve"/>
      <point x="414" y="442" type="line"/>
      <point x="490" y="429"/>
      <point x="566" y="421"/>
    </contour>
    <contour>
      <point x="147" y="-4" type="curve"/>
      <point x="172" y="-80" type="line"/>
      <point x="523" y="26" type="line"/>
      <point x="500" y="104" type="line"/>
      <point x="267" y="34" type="line"/>
      <point x="267" y="595" type="line"/>
      <point x="187" y="595" type="line"/>
      <point x="187" y="58" type="line" smooth="yes"/>
      <point x="187" y="18"/>
      <point x="165" y="3"/>
    </contour>
    <contour>
      <point x="850" y="-66" type="curve"/>
      <point x="922" y="-16" type="line"/>
      <point x="828" y="95"/>
      <point x="668" y="235"/>
      <point x="499" y="336" type="curve"/>
      <point x="452" y="277" type="line"/>
      <point x="621" y="172"/>
      <point x="759" y="45"/>
    </contour>
  </outline>
</glyph>
<glyph name="uni2F8B" format="2">
  <advance width="1000"/>
  <unicode hex="2F8B"/>
  <outline>
    <contour>
      <point x="315" y="615" type="curve"/>
      <point x="388" y="643" type="line"/>
      <point x="370" y="690"/>
      <point x="335" y="767"/>
      <point x="298" y="819" type="curve"/>
      <point x="226" y="791" type="line"/>
      <point x="261" y="739"/>
      <point x="295" y="672"/>
    </contour>
    <contour>
      <point x="88" y="533" type="line"/>
      <point x="919" y="533" type="line"/>
      <point x="919" y="613" type="line"/>
      <point x="88" y="613" type="line"/>
    </contour>
    <contour>
      <point x="616" y="618" type="curve"/>
      <point x="680" y="593" type="line"/>
      <point x="725" y="659"/>
      <point x="762" y="731"/>
      <point x="790" y="798" type="curve"/>
      <point x="707" y="824" type="line"/>
      <point x="687" y="759"/>
      <point x="656" y="683"/>
    </contour>
  </outline>
</glyph>
<glyph name="uni2F8E" format="2">
  <advance width="1000"/>
  <unicode hex="2F8E"/>
  <outline>
    <contour>
      <point x="662" y="570" type="curve"/>
      <point x="714" y="639" type="line"/>
      <point x="604" y="700"/>
      <point x="477" y="759"/>
      <point x="327" y="819" type="curve"/>
      <point x="284" y="754" type="line"/>
      <point x="430" y="694"/>
      <point x="557" y="631"/>
    </contour>
    <contour>
      <point x="383" y="42" type="curve"/>
      <point x="465" y="12" type="line"/>
      <point x="565" y="68"/>
      <point x="670" y="149"/>
      <point x="670" y="245" type="curve" smooth="yes"/>
      <point x="670" y="314"/>
      <point x="616" y="373"/>
      <point x="503" y="373" type="curve" smooth="yes"/>
      <point x="391" y="373"/>
      <point x="341" y="320"/>
      <point x="341" y="255" type="curve" smooth="yes"/>
      <point x="341" y="187"/>
      <point x="408" y="139"/>
      <point x="546" y="139" type="curve" smooth="yes"/>
      <point x="758" y="139"/>
      <point x="879" y="237"/>
      <point x="879" y="381" type="curve" smooth="yes"/>
      <point x="879" y="492"/>
      <point x="770" y="563"/>
      <point x="555" y="563" type="curve" smooth="yes"/>
      <point x="352" y="563"/>
      <point x="193" y="513"/>
      <point x="100" y="472" type="curve"/>
      <point x="138" y="399" type="line"/>
      <point x="232" y="438"/>
      <point x="399" y="482"/>
      <point x="555" y="482" type="curve" smooth="yes"/>
      <point x="701" y="482"/>
      <point x="791" y="448"/>
      <point x="791" y="381" type="curve" smooth="yes"/>
      <point x="791" y="281"/>
      <point x="712" y="217"/>
      <point x="546" y="217" type="curve" smooth="yes"/>
      <point x="462" y="217"/>
      <point x="426" y="228"/>
      <point x="426" y="255" type="curve" smooth="yes"/>
      <point x="426" y="275"/>
      <point x="449" y="296"/>
      <point x="503" y="296" type="curve" smooth="yes"/>
      <point x="553" y="296"/>
      <point x="584" y="277"/>
      <point x="584" y="245" type="curve" smooth="yes"/>
      <point x="584" y="164"/>
      <point x="489" y="94"/>
    </contour>
    <contour>
      <point x="78" y="-30" type="line"/>
      <point x="922" y="-30" type="line"/>
      <point x="922" y="50" type="line"/>
      <point x="78" y="50" type="line"/>
    </contour>
  </outline>
</glyph>
<glyph name="uni2F92" format="2">
  <advance width="1000"/>
  <unicode hex="2F92"/>
  <outline>
    <contour>
      <point x="145" y="303" type="line"/>
      <point x="225" y="303" type="line"/>
      <point x="225" y="780" type="line"/>
      <point x="145" y="780" type="line"/>
    </contour>
    <contour>
      <point x="316" y="420" type="curve"/>
      <point x="316" y="339" type="line"/>
      <point x="708" y="300"/>
      <point x="859" y="384"/>
      <point x="859" y="579" type="curve" smooth="yes"/>
      <point x="859" y="735"/>
      <point x="756" y="811"/>
      <point x="547" y="811" type="curve" smooth="yes"/>
      <point x="358" y="811"/>
      <point x="222" y="739"/>
      <point x="154" y="673" type="curve"/>
      <point x="202" y="609" type="line"/>
      <point x="269" y="670"/>
      <point x="393" y="730"/>
      <point x="547" y="730" type="curve" smooth="yes"/>
      <point x="710" y="730"/>
      <point x="777" y="680"/>
      <point x="777" y="579" type="curve" smooth="yes"/>
      <point x="777" y="422"/>
      <point x="635" y="377"/>
    </contour>
    <contour>
      <point x="55" y="13" type="curve"/>
      <point x="80" y="-67" type="line"/>
      <point x="466" y="-1"/>
      <point x="529" y="174"/>
      <point x="529" y="386" type="curve" smooth="yes"/>
      <point x="529" y="596" type="line"/>
      <point x="449" y="596" type="line"/>
      <point x="449" y="388" type="line" smooth="yes"/>
      <point x="449" y="227"/>
      <point x="437" y="76"/>
    </contour>
    <contour>
      <point x="680" y="-69" type="curve" smooth="yes"/>
      <point x="797" y="-69" type="line" smooth="yes"/>
      <point x="920" y="-69"/>
      <point x="937" y="-4"/>
      <point x="949" y="158" type="curve"/>
      <point x="869" y="166" type="line"/>
      <point x="861" y="36"/>
      <point x="852" y="11"/>
      <point x="804" y="11" type="curve" smooth="yes"/>
      <point x="670" y="11" type="line" smooth="yes"/>
      <point x="629" y="11"/>
      <point x="620" y="18"/>
      <point x="620" y="48" type="curve" smooth="yes"/>
      <point x="620" y="253" type="line"/>
      <point x="540" y="253" type="line"/>
      <point x="540" y="23" type="line" smooth="yes"/>
      <point x="540" y="-46"/>
      <point x="580" y="-69"/>
    </contour>
  </outline>
</glyph>
<glyph name="uni2F94" format="2">
  <advance width="1000"/>
  <unicode hex="2F94"/>
  <outline>
    <contour>
      <point x="427" y="13" type="curve"/>
      <point x="427" y="-72" type="line"/>
      <point x="677" y="-109"/>
      <point x="835" y="-42"/>
      <point x="835" y="80" type="curve" smooth="yes"/>
      <point x="835" y="181"/>
      <point x="745" y="244"/>
      <point x="550" y="244" type="curve" smooth="yes"/>
      <point x="403" y="244"/>
      <point x="250" y="188"/>
      <point x="135" y="94" type="curve"/>
      <point x="206" y="29" type="line"/>
      <point x="307" y="121"/>
      <point x="441" y="163"/>
      <point x="550" y="163" type="curve" smooth="yes"/>
      <point x="694" y="163"/>
      <point x="754" y="130"/>
      <point x="754" y="80" type="curve" smooth="yes"/>
      <point x="754" y="17"/>
      <point x="655" y="-22"/>
    </contour>
    <contour>
      <point x="64" y="325" type="line"/>
      <point x="936" y="325" type="line"/>
      <point x="936" y="405" type="line"/>
      <point x="64" y="405" type="line"/>
    </contour>
    <contour>
      <point x="191" y="515" type="line"/>
      <point x="809" y="515" type="line"/>
      <point x="809" y="595" type="line"/>
      <point x="191" y="595" type="line"/>
    </contour>
    <contour>
      <point x="191" y="699" type="line"/>
      <point x="809" y="699" type="line"/>
      <point x="809" y="779" type="line"/>
      <point x="191" y="779" type="line"/>
    </contour>
  </outline>
</glyph>
<glyph name="uni2F99" format="2">
  <advance width="1000"/>
  <unicode hex="2F99"/>
  <outline>
    <contour>
      <point x="144" y="669" type="curve"/>
      <point x="180" y="604" type="line"/>
      <point x="280" y="683"/>
      <point x="383" y="730"/>
      <point x="546" y="730" type="curve" smooth="yes"/>
      <point x="740" y="730"/>
      <point x="800" y="673"/>
      <point x="800" y="570" type="curve" smooth="yes"/>
      <point x="800" y="401"/>
      <point x="591" y="377"/>
      <point x="296" y="424" type="curve"/>
      <point x="296" y="340" type="line"/>
      <point x="626" y="304"/>
      <point x="880" y="323"/>
      <point x="880" y="570" type="curve" smooth="yes"/>
      <point x="880" y="709"/>
      <point x="815" y="810"/>
      <point x="546" y="810" type="curve" smooth="yes"/>
      <point x="351" y="810"/>
      <point x="228" y="746"/>
    </contour>
    <contour>
      <point x="76" y="-10" type="curve"/>
      <point x="123" y="-79" type="line"/>
      <point x="495" y="70"/>
      <point x="553" y="349"/>
      <point x="550" y="575" type="curve"/>
      <point x="470" y="575" type="line"/>
      <point x="469" y="353"/>
      <point x="433" y="126"/>
    </contour>
    <contour>
      <point x="867" y="-81" type="curve"/>
      <point x="929" y="-22" type="line"/>
      <point x="822" y="74"/>
      <point x="687" y="176"/>
      <point x="561" y="261" type="curve"/>
      <point x="511" y="202" type="line"/>
      <point x="632" y="119"/>
      <point x="767" y="15"/>
    </contour>
    <contour>
      <point x="194" y="310" type="line"/>
      <point x="194" y="771" type="line"/>
      <point x="114" y="771" type="line"/>
      <point x="114" y="310" type="line"/>
    </contour>
  </outline>
</glyph>
<glyph name="uni2FA0" format="2">
  <advance width="1000"/>
  <unicode hex="2FA0"/>
  <outline>
    <contour>
      <point x="943" y="791" type="line"/>
      <point x="131" y="791" type="line"/>
      <point x="131" y="470" type="line" smooth="yes"/>
      <point x="131" y="325"/>
      <point x="122" y="121"/>
      <point x="31" y="-14" type="curve"/>
      <point x="108" y="-60" type="line"/>
      <point x="198" y="92"/>
      <point x="209" y="317"/>
      <point x="209" y="470" type="curve" smooth="yes"/>
      <point x="209" y="714" type="line"/>
      <point x="943" y="714" type="line"/>
    </contour>
    <contour>
      <point x="884" y="-57" type="curve"/>
      <point x="949" y="-2" type="line"/>
      <point x="859" y="77"/>
      <point x="724" y="172"/>
      <point x="577" y="254" type="curve"/>
      <point x="524" y="199" type="line"/>
      <point x="673" y="114"/>
      <point x="796" y="22"/>
    </contour>
    <contour>
      <point x="494" y="477" type="curve"/>
      <point x="548" y="418" type="line"/>
      <point x="656" y="475"/>
      <point x="760" y="541"/>
      <point x="848" y="623" type="curve"/>
      <point x="787" y="671" type="line"/>
      <point x="710" y="598"/>
      <point x="608" y="528"/>
    </contour>
    <contour>
      <point x="436" y="24" type="line"/>
      <point x="436" y="680" type="line"/>
      <point x="355" y="680" type="line"/>
      <point x="355" y="39" type="line" smooth="yes"/>
      <point x="355" y="9"/>
      <point x="337" y="-3"/>
      <point x="322" y="-9" type="curve"/>
      <point x="352" y="-78" type="line"/>
      <point x="636" y="3" type="line"/>
      <point x="616" y="72" type="line"/>
    </contour>
    <contour>
      <point x="247" y="306" type="line"/>
      <point x="940" y="306" type="line"/>
      <point x="940" y="381" type="line"/>
      <point x="247" y="381" type="line"/>
    </contour>
  </outline>
</glyph>
<glyph name="uni2FA1" format="2">
  <advance width="1000"/>
  <unicode hex="2FA1"/>
  <outline>
    <contour>
      <point x="928" y="-54" type="curve"/>
      <point x="952" y="31" type="line"/>
      <point x="654" y="8"/>
      <point x="427" y="9"/>
      <point x="283" y="52" type="curve" smooth="yes"/>
      <point x="196" y="78"/>
      <point x="135" y="144"/>
      <point x="109" y="238" type="curve"/>
      <point x="31" y="216" type="line"/>
      <point x="66" y="88"/>
      <point x="144" y="10"/>
      <point x="253" y="-21" type="curve" smooth="yes"/>
      <point x="403" y="-64"/>
      <point x="625" y="-76"/>
    </contour>
  </outline>
</glyph>
<glyph name="uni2FA3" format="2">
  <advance width="1000"/>
  <unicode hex="2FA3"/>
  <outline>
    <contour>
      <point x="339" y="-52" type="curve" smooth="yes"/>
      <point x="766" y="-52" type="line" smooth="yes"/>
      <point x="876" y="-52"/>
      <point x="912" y="-12"/>
      <point x="923" y="152" type="curve"/>
      <point x="843" y="162" type="line"/>
      <point x="838" y="47"/>
      <point x="821" y="28"/>
      <point x="764" y="28" type="curve" smooth="yes"/>
      <point x="341" y="28" type="line" smooth="yes"/>
      <point x="282" y="28"/>
      <point x="243" y="42"/>
      <point x="243" y="71" type="curve" smooth="yes"/>
      <point x="243" y="106"/>
      <point x="280" y="138"/>
      <point x="741" y="426" type="curve"/>
      <point x="687" y="498" type="line"/>
      <point x="661" y="485" type="line"/>
      <point x="427" y="485" type="line"/>
      <point x="479" y="552"/>
      <point x="538" y="632"/>
      <point x="589" y="712" type="curve"/>
      <point x="510" y="747" type="line"/>
      <point x="452" y="643"/>
      <point x="353" y="511"/>
      <point x="284" y="447" type="curve"/>
      <point x="343" y="386" type="line"/>
      <point x="368" y="405" type="line"/>
      <point x="555" y="405" type="line"/>
      <point x="172" y="163"/>
      <point x="154" y="121"/>
      <point x="154" y="64" type="curve" smooth="yes"/>
      <point x="154" y="-9"/>
      <point x="213" y="-52"/>
    </contour>
    <contour>
      <point x="59" y="278" type="curve"/>
      <point x="133" y="249" type="line"/>
      <point x="171" y="334"/>
      <point x="207" y="457"/>
      <point x="226" y="560" type="curve"/>
      <point x="142" y="571" type="line"/>
      <point x="127" y="473"/>
      <point x="94" y="353"/>
    </contour>
    <contour>
      <point x="100" y="698" type="line"/>
      <point x="900" y="698" type="line"/>
      <point x="900" y="778" type="line"/>
      <point x="100" y="778" type="line"/>
    </contour>
    <contour>
      <point x="863" y="247" type="curve"/>
      <point x="944" y="271" type="line"/>
      <point x="929" y="356"/>
      <point x="903" y="476"/>
      <point x="865" y="576" type="curve"/>
      <point x="790" y="557" type="line"/>
      <point x="826" y="455"/>
      <point x="850" y="331"/>
    </contour>
  </outline>
</glyph>
<glyph name="uni2FA5" format="2">
  <advance width="1000"/>
  <unicode hex="2FA5"/>
  <outline>
    <contour>
      <point x="118" y="-56" type="line"/>
      <point x="880" y="-56" type="line"/>
      <point x="880" y="24" type="line"/>
      <point x="118" y="24" type="line"/>
    </contour>
    <contour>
      <point x="373" y="20" type="curve"/>
      <point x="520" y="20" type="line"/>
      <point x="581" y="64"/>
      <point x="605" y="151"/>
      <point x="605" y="228" type="curve" smooth="yes"/>
      <point x="605" y="320"/>
      <point x="560" y="363"/>
      <point x="483" y="363" type="curve" smooth="yes"/>
      <point x="421" y="363"/>
      <point x="361" y="320"/>
      <point x="361" y="245" type="curve" smooth="yes"/>
      <point x="361" y="166"/>
      <point x="415" y="125"/>
      <point x="483" y="125" type="curve" smooth="yes"/>
      <point x="501" y="125"/>
      <point x="517" y="129"/>
      <point x="531" y="139" type="curve"/>
      <point x="508" y="83"/>
      <point x="454" y="38"/>
    </contour>
    <contour>
      <point x="129" y="440" type="line"/>
      <point x="209" y="440" type="line"/>
      <point x="209" y="609" type="line"/>
      <point x="308" y="685"/>
      <point x="418" y="732"/>
      <point x="589" y="732" type="curve" smooth="yes"/>
      <point x="761" y="732"/>
      <point x="811" y="689"/>
      <point x="811" y="624" type="curve" smooth="yes"/>
      <point x="811" y="511"/>
      <point x="605" y="504"/>
      <point x="310" y="538" type="curve"/>
      <point x="310" y="452" type="line"/>
      <point x="640" y="427"/>
      <point x="893" y="435"/>
      <point x="893" y="624" type="curve" smooth="yes"/>
      <point x="893" y="730"/>
      <point x="829" y="812"/>
      <point x="589" y="812" type="curve" smooth="yes"/>
      <point x="402" y="812"/>
      <point x="282" y="758"/>
      <point x="209" y="679" type="curve"/>
      <point x="209" y="772" type="line"/>
      <point x="129" y="772" type="line"/>
    </contour>
    <contour>
      <point x="573" y="292" type="line"/>
      <point x="573" y="630" type="line"/>
      <point x="496" y="630" type="line"/>
      <point x="496" y="322" type="line"/>
    </contour>
    <contour>
      <point x="483" y="195" type="curve" smooth="yes"/>
      <point x="455" y="195"/>
      <point x="433" y="217"/>
      <point x="433" y="245" type="curve" smooth="yes"/>
      <point x="433" y="273"/>
      <point x="455" y="295"/>
      <point x="483" y="295" type="curve" smooth="yes"/>
      <point x="511" y="295"/>
      <point x="533" y="273"/>
      <point x="533" y="245" type="curve" smooth="yes"/>
      <point x="533" y="217"/>
      <point x="511" y="195"/>
    </contour>
  </outline>
</glyph>
<glyph name="uni2FA6" format="2">
  <advance width="1000"/>
  <unicode hex="2FA6"/>
  <outline>
    <contour>
      <point x="58" y="500" type="curve"/>
      <point x="129" y="454" type="line"/>
      <point x="214" y="569"/>
      <point x="267" y="688"/>
      <point x="316" y="833" type="curve"/>
      <point x="237" y="852" type="line"/>
      <point x="189" y="707"/>
      <point x="126" y="588"/>
    </contour>
    <contour>
      <point x="62" y="156" type="curve"/>
      <point x="137" y="129" type="line"/>
      <point x="176" y="202"/>
      <point x="207" y="306"/>
      <point x="226" y="396" type="curve"/>
      <point x="146" y="406" type="line"/>
      <point x="130" y="320"/>
      <point x="101" y="220"/>
    </contour>
    <contour>
      <point x="78" y="-54" type="line"/>
      <point x="930" y="-54" type="line"/>
      <point x="930" y="26" type="line"/>
      <point x="78" y="26" type="line"/>
    </contour>
    <contour>
      <point x="278" y="192" type="line"/>
      <point x="730" y="192" type="line"/>
      <point x="730" y="272" type="line"/>
      <point x="278" y="272" type="line"/>
    </contour>
    <contour>
      <point x="460" y="-10" type="line"/>
      <point x="540" y="-10" type="line"/>
      <point x="540" y="471" type="line"/>
      <point x="460" y="471" type="line"/>
    </contour>
    <contour>
      <point x="243" y="441" type="line"/>
      <point x="797" y="441" type="line"/>
      <point x="797" y="521" type="line"/>
      <point x="243" y="521" type="line"/>
    </contour>
    <contour>
      <point x="863" y="122" type="curve"/>
      <point x="946" y="144" type="line"/>
      <point x="932" y="218"/>
      <point x="903" y="325"/>
      <point x="867" y="414" type="curve"/>
      <point x="790" y="395" type="line"/>
      <point x="826" y="308"/>
      <point x="850" y="194"/>
    </contour>
    <contour>
      <point x="211" y="638" type="line"/>
      <point x="887" y="638" type="line"/>
      <point x="887" y="718" type="line"/>
      <point x="211" y="718" type="line"/>
    </contour>
  </outline>
</glyph>
<glyph name="uni2FA8" format="2">
  <advance width="1000"/>
  <unicode hex="2FA8"/>
  <outline>
    <contour>
      <point x="775" y="518" type="curve"/>
      <point x="827" y="447" type="line"/>
      <point x="884" y="486"/>
      <point x="923" y="539"/>
      <point x="923" y="606" type="curve" smooth="yes"/>
      <point x="923" y="717"/>
      <point x="866" y="807"/>
      <point x="644" y="807" type="curve" smooth="yes"/>
      <point x="418" y="807"/>
      <point x="209" y="688"/>
      <point x="70" y="575" type="curve"/>
      <point x="132" y="516" type="line"/>
      <point x="261" y="615"/>
      <point x="451" y="724"/>
      <point x="644" y="724" type="curve" smooth="yes"/>
      <point x="785" y="724"/>
      <point x="840" y="684"/>
      <point x="840" y="606" type="curve" smooth="yes"/>
      <point x="840" y="566"/>
      <point x="812" y="540"/>
    </contour>
  </outline>
</glyph>
<glyph name="uni2FAB" format="2">
  <advance width="1000"/>
  <unicode hex="2FAB"/>
  <outline>
    <contour>
      <point x="77" y="-68" type="line"/>
      <point x="935" y="-68" type="line"/>
      <point x="935" y="10" type="line"/>
      <point x="77" y="10" type="line"/>
    </contour>
    <contour>
      <point x="563" y="1" type="curve"/>
      <point x="643" y="-9" type="line"/>
      <point x="712" y="32"/>
      <point x="782" y="111"/>
      <point x="782" y="167" type="curve" smooth="yes"/>
      <point x="782" y="242"/>
      <point x="714" y="321"/>
      <point x="512" y="321" type="curve" smooth="yes"/>
      <point x="321" y="321"/>
      <point x="209" y="262"/>
      <point x="209" y="192" type="curve" smooth="yes"/>
      <point x="209" y="115"/>
      <point x="283" y="77"/>
      <point x="390" y="77" type="curve" smooth="yes"/>
      <point x="522" y="77"/>
      <point x="594" y="133"/>
      <point x="594" y="270" type="curve" smooth="yes"/>
      <point x="594" y="654" type="line"/>
      <point x="514" y="654" type="line"/>
      <point x="514" y="283" type="line" smooth="yes"/>
      <point x="514" y="181"/>
      <point x="461" y="155"/>
      <point x="390" y="155" type="curve" smooth="yes"/>
      <point x="320" y="155"/>
      <point x="292" y="172"/>
      <point x="292" y="192" type="curve" smooth="yes"/>
      <point x="292" y="218"/>
      <point x="359" y="243"/>
      <point x="512" y="243" type="curve" smooth="yes"/>
      <point x="657" y="243"/>
      <point x="695" y="196"/>
      <point x="695" y="165" type="curve" smooth="yes"/>
      <point x="695" y="131"/>
      <point x="649" y="57"/>
    </contour>
    <contour>
      <point x="109" y="390" type="line"/>
      <point x="913" y="390" type="line"/>
      <point x="913" y="468" type="line"/>
      <point x="109" y="468" type="line"/>
    </contour>
    <contour>
      <point x="26" y="553" type="curve"/>
      <point x="78" y="490" type="line"/>
      <point x="212" y="581"/>
      <point x="341" y="689"/>
      <point x="444" y="824" type="curve"/>
      <point x="366" y="862" type="line"/>
      <point x="279" y="744"/>
      <point x="156" y="633"/>
    </contour>
    <contour>
      <point x="535" y="708" type="line"/>
      <point x="464" y="646"/>
      <point x="375" y="585"/>
      <point x="280" y="537" type="curve"/>
      <point x="350" y="470" type="line"/>
      <point x="470" y="546"/>
      <point x="615" y="659"/>
      <point x="699" y="736" type="curve"/>
      <point x="638" y="793" type="line"/>
      <point x="619" y="786" type="line"/>
      <point x="317" y="786" type="line"/>
      <point x="317" y="708" type="line"/>
    </contour>
  </outline>
</glyph>
<glyph name="uni2FB3" format="2">
  <advance width="1000"/>
  <unicode hex="2FB3"/>
  <outline>
    <contour>
      <point x="618" y="-69" type="curve" smooth="yes"/>
      <point x="793" y="-69"/>
      <point x="808" y="77"/>
      <point x="808" y="205" type="curve" smooth="yes"/>
      <point x="808" y="282"/>
      <point x="787" y="345"/>
      <point x="599" y="345" type="curve" smooth="yes"/>
      <point x="519" y="345"/>
      <point x="421" y="337"/>
      <point x="312" y="323" type="curve"/>
      <point x="315" y="245" type="line"/>
      <point x="427" y="260"/>
      <point x="517" y="265"/>
      <point x="599" y="265" type="curve" smooth="yes"/>
      <point x="709" y="265"/>
      <point x="728" y="243"/>
      <point x="728" y="205" type="curve" smooth="yes"/>
      <point x="728" y="124"/>
      <point x="715" y="9"/>
      <point x="608" y="9" type="curve" smooth="yes"/>
      <point x="556" y="9"/>
      <point x="501" y="13"/>
      <point x="452" y="23" type="curve"/>
      <point x="452" y="-59" type="line"/>
      <point x="508" y="-68"/>
      <point x="548" y="-69"/>
    </contour>
    <contour>
      <point x="135" y="-33" type="curve"/>
      <point x="218" y="-66" type="line"/>
      <point x="307" y="61"/>
      <point x="326" y="171"/>
      <point x="332" y="337" type="curve"/>
      <point x="252" y="337" type="line"/>
      <point x="244" y="175"/>
      <point x="226" y="86"/>
    </contour>
    <contour>
      <point x="661" y="103" type="line"/>
      <point x="664" y="182" type="line"/>
      <point x="372" y="187" type="line"/>
      <point x="368" y="108" type="line"/>
    </contour>
    <contour>
      <point x="55" y="388" type="line"/>
      <point x="945" y="388" type="line"/>
      <point x="945" y="468" type="line"/>
      <point x="55" y="468" type="line"/>
    </contour>
    <contour>
      <point x="262" y="521" type="line"/>
      <point x="738" y="521" type="line"/>
      <point x="738" y="601" type="line"/>
      <point x="262" y="601" type="line"/>
    </contour>
    <contour>
      <point x="112" y="654" type="line"/>
      <point x="888" y="654" type="line"/>
      <point x="888" y="734" type="line"/>
      <point x="112" y="734" type="line"/>
    </contour>
    <contour>
      <point x="460" y="564" type="line"/>
      <point x="540" y="564" type="line"/>
      <point x="540" y="835" type="line"/>
      <point x="460" y="835" type="line"/>
    </contour>
  </outline>
</glyph>
<glyph name="uni2FB5" format="2">
  <advance width="1000"/>
  <unicode hex="2FB5"/>
  <outline>
    <contour>
      <point x="38" y="-35" type="curve"/>
      <point x="107" y="-77" type="line"/>
      <point x="223" y="85"/>
      <point x="237" y="331"/>
      <point x="237" y="501" type="curve" smooth="yes"/>
      <point x="237" y="726" type="line"/>
      <point x="757" y="726" type="line"/>
      <point x="757" y="480" type="line" smooth="yes"/>
      <point x="757" y="105"/>
      <point x="787" y="-70"/>
      <point x="894" y="-70" type="curve" smooth="yes"/>
      <point x="952" y="-70"/>
      <point x="974" y="-18"/>
      <point x="983" y="112" type="curve"/>
      <point x="918" y="121" type="line"/>
      <point x="914" y="44"/>
      <point x="906" y="10"/>
      <point x="894" y="10" type="curve" smooth="yes"/>
      <point x="861" y="10"/>
      <point x="837" y="145"/>
      <point x="837" y="467" type="curve" smooth="yes"/>
      <point x="837" y="806" type="line"/>
      <point x="157" y="806" type="line"/>
      <point x="157" y="501" type="line" smooth="yes"/>
      <point x="157" y="341"/>
      <point x="147" y="118"/>
    </contour>
    <contour>
      <point x="412" y="92" type="curve" smooth="yes"/>
      <point x="635" y="92" type="line" smooth="yes"/>
      <point x="696" y="92"/>
      <point x="719" y="139"/>
      <point x="734" y="242" type="curve"/>
      <point x="662" y="254" type="line"/>
      <point x="656" y="192"/>
      <point x="646" y="168"/>
      <point x="606" y="168" type="curve" smooth="yes"/>
      <point x="402" y="168" type="line" smooth="yes"/>
      <point x="364" y="168"/>
      <point x="355" y="172"/>
      <point x="355" y="184" type="curve" smooth="yes"/>
      <point x="355" y="198"/>
      <point x="372" y="214"/>
      <point x="694" y="404" type="curve"/>
      <point x="656" y="477" type="line"/>
      <point x="637" y="467" type="line"/>
      <point x="308" y="467" type="line"/>
      <point x="308" y="391" type="line"/>
      <point x="529" y="392" type="line"/>
      <point x="300" y="260"/>
      <point x="274" y="233"/>
      <point x="274" y="178" type="curve" smooth="yes"/>
      <point x="274" y="113"/>
      <point x="325" y="92"/>
    </contour>
    <contour>
      <point x="313" y="564" type="line"/>
      <point x="675" y="564" type="line"/>
      <point x="675" y="640" type="line"/>
      <point x="313" y="640" type="line"/>
    </contour>
  </outline>
</glyph>
<glyph name="uni2FB7" format="2">
  <advance width="1000"/>
  <unicode hex="2FB7"/>
  <outline>
    <contour>
      <point x="649" y="242" type="curve" smooth="yes"/>
      <point x="762" y="242"/>
      <point x="790" y="343"/>
      <point x="796" y="538" type="curve"/>
      <point x="729" y="558" type="line"/>
      <point x="713" y="544" type="line"/>
      <point x="260" y="544" type="line"/>
      <point x="260" y="464" type="line"/>
      <point x="711" y="464" type="line"/>
      <point x="711" y="367"/>
      <point x="691" y="320"/>
      <point x="641" y="320" type="curve" smooth="yes"/>
      <point x="561" y="320"/>
      <point x="482" y="331"/>
      <point x="414" y="346" type="curve"/>
      <point x="414" y="261" type="line"/>
      <point x="482" y="250"/>
      <point x="565" y="242"/>
    </contour>
    <contour>
      <point x="200" y="-10" type="curve"/>
      <point x="226" y="-88" type="line"/>
      <point x="569" y="17" type="line"/>
      <point x="545" y="95" type="line"/>
      <point x="320" y="24" type="line"/>
      <point x="320" y="355" type="line"/>
      <point x="240" y="355" type="line"/>
      <point x="240" y="50" type="line" smooth="yes"/>
      <point x="240" y="14"/>
      <point x="218" y="-3"/>
    </contour>
    <contour>
      <point x="851" y="-86" type="curve"/>
      <point x="912" y="-27" type="line"/>
      <point x="840" y="40"/>
      <point x="743" y="124"/>
      <point x="639" y="190" type="curve"/>
      <point x="583" y="136" type="line"/>
      <point x="682" y="72"/>
      <point x="780" y="-17"/>
    </contour>
    <contour>
      <point x="62" y="518" type="curve"/>
      <point x="133" y="475" type="line"/>
      <point x="206" y="584"/>
      <point x="265" y="707"/>
      <point x="304" y="822" type="curve"/>
      <point x="221" y="848" type="line"/>
      <point x="185" y="729"/>
      <point x="129" y="615"/>
    </contour>
    <contour>
      <point x="215" y="647" type="line"/>
      <point x="861" y="647" type="line"/>
      <point x="861" y="727" type="line"/>
      <point x="215" y="727" type="line"/>
    </contour>
  </outline>
</glyph>
<glyph name="uni2FBA" format="2">
  <advance width="1000"/>
  <unicode hex="2FBA"/>
  <outline>
    <contour>
      <point x="526" y="-83" type="curve" smooth="yes"/>
      <point x="759" y="-83"/>
      <point x="914" y="12"/>
      <point x="914" y="148" type="curve" smooth="yes"/>
      <point x="914" y="262"/>
      <point x="814" y="355"/>
      <point x="603" y="355" type="curve" smooth="yes"/>
      <point x="533" y="355"/>
      <point x="494" y="350"/>
      <point x="441" y="339" type="curve"/>
      <point x="565" y="409"/>
      <point x="682" y="480"/>
      <point x="783" y="542" type="curve"/>
      <point x="712" y="607" type="line"/>
      <point x="688" y="597" type="line"/>
      <point x="253" y="597" type="line"/>
      <point x="253" y="518" type="line"/>
      <point x="600" y="518" type="line"/>
      <point x="504" y="450"/>
      <point x="385" y="373"/>
      <point x="289" y="316" type="curve" smooth="yes"/>
      <point x="265" y="302"/>
      <point x="229" y="287"/>
      <point x="181" y="277" type="curve"/>
      <point x="232" y="205" type="line"/>
      <point x="338" y="249"/>
      <point x="456" y="275"/>
      <point x="579" y="275" type="curve" smooth="yes"/>
      <point x="744" y="275"/>
      <point x="826" y="230"/>
      <point x="826" y="148" type="curve" smooth="yes"/>
      <point x="826" y="40"/>
      <point x="646" y="-3"/>
      <point x="521" y="-3" type="curve" smooth="yes"/>
      <point x="424" y="-3"/>
      <point x="377" y="13"/>
      <point x="377" y="44" type="curve" smooth="yes"/>
      <point x="377" y="69"/>
      <point x="409" y="90"/>
      <point x="462" y="90" type="curve" smooth="yes"/>
      <point x="542" y="90"/>
      <point x="592" y="55"/>
      <point x="606" y="-29" type="curve"/>
      <point x="685" y="-15" type="line"/>
      <point x="666" y="90"/>
      <point x="592" y="159"/>
      <point x="463" y="159" type="curve" smooth="yes"/>
      <point x="358" y="159"/>
      <point x="289" y="107"/>
      <point x="289" y="44" type="curve" smooth="yes"/>
      <point x="289" y="-32"/>
      <point x="363" y="-83"/>
    </contour>
    <contour>
      <point x="131" y="707" type="line"/>
      <point x="892" y="707" type="line"/>
      <point x="892" y="787" type="line"/>
      <point x="131" y="787" type="line"/>
    </contour>
  </outline>
</glyph>
<glyph name="uni2FC2" format="2">
  <advance width="1000"/>
  <unicode hex="2FC2"/>
  <outline>
    <contour>
      <point x="172" y="116" type="curve"/>
      <point x="252" y="116" type="line"/>
      <point x="216" y="417"/>
      <point x="264" y="598"/>
      <point x="428" y="799" type="curve"/>
      <point x="353" y="838" type="line"/>
      <point x="188" y="634"/>
      <point x="127" y="420"/>
    </contour>
    <contour>
      <point x="549" y="173" type="line"/>
      <point x="549" y="631" type="line"/>
      <point x="469" y="631" type="line"/>
      <point x="469" y="173" type="line"/>
    </contour>
    <contour>
      <point x="326" y="363" type="line"/>
      <point x="692" y="363" type="line"/>
      <point x="692" y="442" type="line"/>
      <point x="326" y="442" type="line"/>
    </contour>
    <contour>
      <point x="87" y="34" type="line"/>
      <point x="87" y="-46" type="line"/>
      <point x="913" y="-46" type="line"/>
      <point x="913" y="34" type="line"/>
    </contour>
    <contour>
      <point x="235" y="592" type="curve"/>
      <point x="254" y="514" type="line"/>
      <point x="326" y="554"/>
      <point x="427" y="587"/>
      <point x="568" y="587" type="curve" smooth="yes"/>
      <point x="755" y="587"/>
      <point x="790" y="499"/>
      <point x="790" y="403" type="curve" smooth="yes"/>
      <point x="790" y="260"/>
      <point x="722" y="203"/>
      <point x="627" y="203" type="curve" smooth="yes"/>
      <point x="510" y="203"/>
      <point x="419" y="208"/>
      <point x="343" y="219" type="curve"/>
      <point x="343" y="133" type="line"/>
      <point x="419" y="125"/>
      <point x="510" y="122"/>
      <point x="627" y="122" type="curve" smooth="yes"/>
      <point x="794" y="122"/>
      <point x="870" y="237"/>
      <point x="870" y="403" type="curve" smooth="yes"/>
      <point x="870" y="533"/>
      <point x="826" y="667"/>
      <point x="568" y="667" type="curve" smooth="yes"/>
      <point x="407" y="667"/>
      <point x="304" y="634"/>
    </contour>
  </outline>
</glyph>
<glyph name="uni2FC3" format="2">
  <advance width="1000"/>
  <unicode hex="2FC3"/>
  <outline>
    <contour>
      <point x="473" y="-82" type="curve" smooth="yes"/>
      <point x="714" y="-82"/>
      <point x="904" y="-5"/>
      <point x="904" y="122" type="curve" smooth="yes"/>
      <point x="904" y="229"/>
      <point x="800" y="291"/>
      <point x="589" y="291" type="curve" smooth="yes"/>
      <point x="519" y="291"/>
      <point x="442" y="282"/>
      <point x="382" y="271" type="curve"/>
      <point x="424" y="313"/>
      <point x="480" y="400"/>
      <point x="514" y="469" type="curve"/>
      <point x="427" y="486" type="line"/>
      <point x="399" y="415"/>
      <point x="341" y="316"/>
      <point x="279" y="259" type="curve"/>
      <point x="251" y="249" type="line"/>
      <point x="302" y="176" type="line"/>
      <point x="374" y="198"/>
      <point x="456" y="213"/>
      <point x="569" y="213" type="curve" smooth="yes"/>
      <point x="734" y="213"/>
      <point x="816" y="202"/>
      <point x="816" y="122" type="curve" smooth="yes"/>
      <point x="816" y="21"/>
      <point x="604" y="-5"/>
      <point x="473" y="-5" type="curve" smooth="yes"/>
      <point x="366" y="-5"/>
      <point x="316" y="4"/>
      <point x="316" y="23" type="curve" smooth="yes"/>
      <point x="316" y="41"/>
      <point x="356" y="55"/>
      <point x="411" y="55" type="curve" smooth="yes"/>
      <point x="492" y="55"/>
      <point x="548" y="35"/>
      <point x="562" y="-37" type="curve"/>
      <point x="645" y="-24" type="line"/>
      <point x="625" y="66"/>
      <point x="548" y="124"/>
      <point x="412" y="124" type="curve" smooth="yes"/>
      <point x="304" y="124"/>
      <point x="230" y="73"/>
      <point x="230" y="23" type="curve" smooth="yes"/>
      <point x="230" y="-45"/>
      <point x="305" y="-82"/>
    </contour>
    <contour>
      <point x="287" y="578" type="curve"/>
      <point x="308" y="500" type="line"/>
      <point x="386" y="523"/>
      <point x="493" y="545"/>
      <point x="603" y="545" type="curve" smooth="yes"/>
      <point x="732" y="545"/>
      <point x="778" y="531"/>
      <point x="778" y="486" type="curve" smooth="yes"/>
      <point x="778" y="420"/>
      <point x="712" y="380"/>
      <point x="397" y="409" type="curve"/>
      <point x="397" y="331" type="line"/>
      <point x="778" y="297"/>
      <point x="865" y="384"/>
      <point x="865" y="486" type="curve" smooth="yes"/>
      <point x="865" y="579"/>
      <point x="773" y="623"/>
      <point x="603" y="623" type="curve" smooth="yes"/>
      <point x="479" y="623"/>
      <point x="365" y="600"/>
    </contour>
    <contour>
      <point x="473" y="606" type="curve"/>
      <point x="545" y="566" type="line"/>
      <point x="635" y="626"/>
      <point x="710" y="686"/>
      <point x="752" y="730" type="curve"/>
      <point x="696" y="780" type="line"/>
      <point x="673" y="766" type="line"/>
      <point x="326" y="766" type="line"/>
      <point x="326" y="686" type="line"/>
      <point x="583" y="686" type="line"/>
      <point x="555" y="660"/>
      <point x="517" y="633"/>
    </contour>
    <contour>
      <point x="109" y="573" type="curve"/>
      <point x="172" y="514" type="line"/>
      <point x="268" y="582"/>
      <point x="385" y="709"/>
      <point x="439" y="826" type="curve"/>
      <point x="355" y="847" type="line"/>
      <point x="301" y="730"/>
      <point x="197" y="626"/>
    </contour>
  </outline>
</glyph>
<glyph name="uni2FC5" format="2">
  <advance width="1000"/>
  <unicode hex="2FC5"/>
  <outline>
    <contour>
      <point x="87" y="715" type="line"/>
      <point x="87" y="635" type="line"/>
      <point x="923" y="635" type="line"/>
      <point x="923" y="715" type="line"/>
    </contour>
    <contour>
      <point x="346" y="494" type="curve"/>
      <point x="425" y="519" type="line"/>
      <point x="401" y="607"/>
      <point x="349" y="745"/>
      <point x="303" y="840" type="curve"/>
      <point x="228" y="813" type="line"/>
      <point x="274" y="721"/>
      <point x="323" y="583"/>
    </contour>
    <contour>
      <point x="580" y="520" type="curve"/>
      <point x="653" y="493" type="line"/>
      <point x="695" y="574"/>
      <point x="751" y="704"/>
      <point x="792" y="813" type="curve"/>
      <point x="711" y="841" type="line"/>
      <point x="679" y="738"/>
      <point x="623" y="605"/>
    </contour>
    <contour>
      <point x="913" y="526" type="line"/>
      <point x="130" y="526" type="line"/>
      <point x="130" y="322" type="line" smooth="yes"/>
      <point x="130" y="216"/>
      <point x="122" y="76"/>
      <point x="33" y="-28" type="curve"/>
      <point x="105" y="-75" type="line"/>
      <point x="198" y="39"/>
      <point x="210" y="208"/>
      <point x="210" y="322" type="curve" smooth="yes"/>
      <point x="210" y="446" type="line"/>
      <point x="913" y="446" type="line"/>
    </contour>
  </outline>
</glyph>
<glyph name="uni2FC7" format="2">
  <advance width="1000"/>
  <unicode hex="2FC7"/>
  <outline>
    <contour>
      <point x="515" y="734" type="line"/>
      <point x="130" y="734" type="line"/>
      <point x="130" y="470" type="line" smooth="yes"/>
      <point x="130" y="325"/>
      <point x="122" y="122"/>
      <point x="34" y="-23" type="curve"/>
      <point x="106" y="-60" type="line"/>
      <point x="199" y="92"/>
      <point x="210" y="317"/>
      <point x="210" y="470" type="curve" smooth="yes"/>
      <point x="210" y="654" type="line"/>
      <point x="943" y="654" type="line"/>
      <point x="943" y="734" type="line"/>
      <point x="600" y="734" type="line"/>
      <point x="546" y="845" type="line"/>
      <point x="471" y="827" type="line"/>
    </contour>
    <contour>
      <point x="251" y="561" type="line"/>
      <point x="251" y="481" type="line"/>
      <point x="920" y="481" type="line"/>
      <point x="920" y="561" type="line"/>
    </contour>
    <contour>
      <point x="396" y="626" type="line"/>
      <point x="396" y="239" type="line"/>
      <point x="476" y="239" type="line"/>
      <point x="476" y="626" type="line"/>
    </contour>
    <contour>
      <point x="251" y="401" type="line"/>
      <point x="251" y="321" type="line"/>
      <point x="920" y="321" type="line"/>
      <point x="920" y="401" type="line"/>
    </contour>
    <contour>
      <point x="670" y="626" type="line"/>
      <point x="670" y="239" type="line"/>
      <point x="750" y="239" type="line"/>
      <point x="750" y="626" type="line"/>
    </contour>
  </outline>
</glyph>
<glyph name="uni2FCC" format="2">
  <advance width="1000"/>
  <unicode hex="2FCC"/>
  <outline>
    <contour>
      <point x="119" y="464" type="line"/>
      <point x="199" y="464" type="line"/>
      <point x="199" y="621" type="line"/>
      <point x="292" y="691"/>
      <point x="397" y="733"/>
      <point x="556" y="733" type="curve" smooth="yes"/>
      <point x="716" y="733"/>
      <point x="764" y="694"/>
      <point x="764" y="636" type="curve" smooth="yes"/>
      <point x="764" y="532"/>
      <point x="572" y="525"/>
      <point x="293" y="556" type="curve"/>
      <point x="293" y="476" type="line"/>
      <point x="604" y="452"/>
      <point x="845" y="457"/>
      <point x="845" y="636" type="curve" smooth="yes"/>
      <point x="845" y="735"/>
      <point x="783" y="812"/>
      <point x="556" y="812" type="curve" smooth="yes"/>
      <point x="381" y="812"/>
      <point x="268" y="764"/>
      <point x="199" y="691" type="curve"/>
      <point x="199" y="775" type="line"/>
      <point x="119" y="775" type="line"/>
    </contour>
    <contour>
      <point x="560" y="-68" type="curve" smooth="yes"/>
      <point x="781" y="-68" type="line" smooth="yes"/>
      <point x="876" y="-68"/>
      <point x="895" y="-14"/>
      <point x="905" y="88" type="curve"/>
      <point x="825" y="93" type="line"/>
      <point x="822" y="31"/>
      <point x="817" y="12"/>
      <point x="771" y="12" type="curve" smooth="yes"/>
      <point x="576" y="12" type="line" smooth="yes"/>
      <point x="526" y="12"/>
      <point x="517" y="25"/>
      <point x="517" y="75" type="curve" smooth="yes"/>
      <point x="517" y="643" type="line"/>
      <point x="437" y="643" type="line"/>
      <point x="437" y="75" type="line" smooth="yes"/>
      <point x="437" y="-39"/>
      <point x="462" y="-68"/>
    </contour>
    <contour>
      <point x="586" y="141" type="line"/>
      <point x="874" y="141" type="line"/>
      <point x="874" y="220" type="line"/>
      <point x="765" y="220" type="line"/>
      <point x="765" y="423" type="line"/>
      <point x="685" y="423" type="line"/>
      <point x="685" y="220" type="line"/>
      <point x="586" y="220" type="line"/>
    </contour>
    <contour>
      <point x="243" y="229" type="curve"/>
      <point x="272" y="281"/>
      <point x="301" y="339"/>
      <point x="333" y="408" type="curve"/>
      <point x="257" y="436" type="line"/>
      <point x="194" y="292"/>
      <point x="122" y="183"/>
      <point x="52" y="123" type="curve"/>
      <point x="124" y="74" type="line"/>
      <point x="145" y="100"/>
      <point x="171" y="127"/>
      <point x="190" y="141" type="curve" smooth="yes"/>
      <point x="204" y="151"/>
      <point x="221" y="153"/>
      <point x="234" y="149" type="curve" smooth="yes"/>
      <point x="248" y="145"/>
      <point x="263" y="123"/>
      <point x="273" y="79" type="curve"/>
      <point x="412" y="146" type="line"/>
      <point x="387" y="206" type="line"/>
      <point x="310" y="177" type="line"/>
      <point x="303" y="203"/>
      <point x="282" y="219"/>
    </contour>
  </outline>
</glyph>
<glyph name="uni2FCE" format="2">
  <advance width="1000"/>
  <unicode hex="2FCE"/>
  <outline>
    <contour>
      <point x="501" y="692" type="line"/>
      <point x="71" y="692" type="line"/>
      <point x="71" y="613" type="line"/>
      <point x="501" y="613" type="line"/>
    </contour>
    <contour>
      <point x="329" y="463" type="line"/>
      <point x="329" y="842" type="line"/>
      <point x="249" y="842" type="line"/>
      <point x="249" y="463" type="line"/>
    </contour>
    <contour>
      <point x="474" y="497" type="line"/>
      <point x="94" y="497" type="line"/>
      <point x="94" y="419" type="line"/>
      <point x="474" y="419" type="line"/>
    </contour>
    <contour>
      <point x="480" y="338" type="line"/>
      <point x="93" y="338" type="line"/>
      <point x="93" y="259" type="line"/>
      <point x="480" y="259" type="line"/>
    </contour>
    <contour>
      <point x="329" y="59" type="line"/>
      <point x="329" y="306" type="line"/>
      <point x="249" y="306" type="line"/>
      <point x="249" y="59" type="line"/>
    </contour>
    <contour>
      <point x="504" y="160" type="line"/>
      <point x="60" y="40" type="line"/>
      <point x="83" y="-43" type="line"/>
      <point x="527" y="87" type="line"/>
    </contour>
    <contour>
      <point x="486" y="-6" type="curve"/>
      <point x="538" y="-78" type="line"/>
      <point x="742" y="14"/>
      <point x="886" y="213"/>
      <point x="902" y="452" type="curve"/>
      <point x="841" y="475" type="line"/>
      <point x="823" y="463" type="line"/>
      <point x="550" y="463" type="line"/>
      <point x="550" y="384" type="line"/>
      <point x="806" y="384" type="line"/>
      <point x="780" y="234"/>
      <point x="705" y="89"/>
    </contour>
    <contour>
      <point x="870" y="-76" type="curve"/>
      <point x="940" y="-18" type="line"/>
      <point x="864" y="80"/>
      <point x="731" y="207"/>
      <point x="606" y="305" type="curve"/>
      <point x="549" y="255" type="line"/>
      <point x="671" y="154"/>
      <point x="798" y="19"/>
    </contour>
    <contour>
      <point x="680" y="847" type="line"/>
      <point x="680" y="445" type="line"/>
      <point x="760" y="445" type="line"/>
      <point x="760" y="847" type="line"/>
    </contour>
    <contour>
      <point x="541" y="692" type="line"/>
      <point x="541" y="613" type="line"/>
      <point x="909" y="613" type="line"/>
      <point x="909" y="692" type="line"/>
    </contour>
  </outline>
</glyph>
<glyph name="uni2FD3" format="2">
  <advance width="1000"/>
  <unicode hex="2FD3"/>
  <outline>
    <contour>
      <point x="304" y="621" type="curve"/>
      <point x="360" y="681" type="line"/>
      <point x="308" y="727"/>
      <point x="250" y="771"/>
      <point x="184" y="814" type="curve"/>
      <point x="133" y="756" type="line"/>
      <point x="198" y="713"/>
      <point x="255" y="667"/>
    </contour>
    <contour>
      <point x="194" y="-66" type="curve" smooth="yes"/>
      <point x="335" y="-66"/>
      <point x="404" y="66"/>
      <point x="404" y="188" type="curve" smooth="yes"/>
      <point x="404" y="297"/>
      <point x="343" y="388"/>
      <point x="199" y="431" type="curve"/>
      <point x="172" y="356" type="line"/>
      <point x="285" y="319"/>
      <point x="324" y="255"/>
      <point x="324" y="188" type="curve" smooth="yes"/>
      <point x="324" y="100"/>
      <point x="278" y="14"/>
      <point x="194" y="14" type="curve" smooth="yes"/>
      <point x="161" y="14"/>
      <point x="139" y="29"/>
      <point x="139" y="70" type="curve" smooth="yes"/>
      <point x="139" y="146"/>
      <point x="228" y="213"/>
      <point x="411" y="311" type="curve"/>
      <point x="367" y="377" type="line"/>
      <point x="185" y="282"/>
      <point x="59" y="182"/>
      <point x="59" y="70" type="curve" smooth="yes"/>
      <point x="59" y="-22"/>
      <point x="113" y="-66"/>
    </contour>
    <contour>
      <point x="201" y="403" type="curve"/>
      <point x="269" y="363" type="line"/>
      <point x="330" y="425"/>
      <point x="391" y="505"/>
      <point x="426" y="565" type="curve"/>
      <point x="362" y="613" type="line"/>
      <point x="347" y="604" type="line"/>
      <point x="79" y="604" type="line"/>
      <point x="79" y="524" type="line"/>
      <point x="300" y="524" type="line"/>
      <point x="275" y="484"/>
      <point x="240" y="439"/>
    </contour>
    <contour>
      <point x="441" y="565" type="line"/>
      <point x="924" y="565" type="line"/>
      <point x="924" y="645" type="line"/>
      <point x="441" y="645" type="line"/>
    </contour>
    <contour>
      <point x="689" y="348" type="line"/>
      <point x="457" y="103"/>
      <point x="442" y="73"/>
      <point x="442" y="22" type="curve" smooth="yes"/>
      <point x="442" y="-31"/>
      <point x="470" y="-62"/>
      <point x="538" y="-62" type="curve" smooth="yes"/>
      <point x="825" y="-62" type="line" smooth="yes"/>
      <point x="883" y="-62"/>
      <point x="906" y="-14"/>
      <point x="922" y="116" type="curve"/>
      <point x="842" y="127" type="line"/>
      <point x="836" y="42"/>
      <point x="822" y="18"/>
      <point x="794" y="18" type="curve" smooth="yes"/>
      <point x="564" y="18" type="line" smooth="yes"/>
      <point x="543" y="18"/>
      <point x="534" y="23"/>
      <point x="534" y="35" type="curve" smooth="yes"/>
      <point x="534" y="56"/>
      <point x="542" y="74"/>
      <point x="822" y="378" type="curve"/>
      <point x="768" y="436" type="line"/>
      <point x="754" y="427" type="line"/>
      <point x="609" y="428" type="line"/>
      <point x="654" y="532"/>
      <point x="695" y="672"/>
      <point x="718" y="817" type="curve"/>
      <point x="639" y="826" type="line"/>
      <point x="617" y="682"/>
      <point x="566" y="508"/>
      <point x="503" y="377" type="curve"/>
      <point x="565" y="334" type="line"/>
      <point x="582" y="348" type="line"/>
    </contour>
    <contour>
      <point x="906" y="290" type="curve"/>
      <point x="978" y="329" type="line"/>
      <point x="948" y="388"/>
      <point x="914" y="445"/>
      <point x="877" y="500" type="curve"/>
      <point x="809" y="463" type="line"/>
      <point x="845" y="407"/>
      <point x="877" y="349"/>
    </contour>
  </outline>
</glyph>
<glyph name="uni3405" format="2">
  <advance width="1000"/>
  <unicode hex="3405"/>
  <unicode hex="4E42"/>
  <outline>
    <contour>
      <point x="888" y="-45" type="curve"/>
      <point x="951" y="7" type="line"/>
      <point x="787" y="213"/>
      <point x="469" y="578"/>
      <point x="253" y="578" type="curve" smooth="yes"/>
      <point x="154" y="578"/>
      <point x="66" y="498"/>
      <point x="66" y="297" type="curve" smooth="yes"/>
      <point x="66" y="118"/>
      <point x="130" y="21"/>
      <point x="254" y="21" type="curve" smooth="yes"/>
      <point x="488" y="21"/>
      <point x="680" y="316"/>
      <point x="877" y="784" type="curve"/>
      <point x="799" y="809" type="line"/>
      <point x="617" y="376"/>
      <point x="435" y="102"/>
      <point x="254" y="102" type="curve" smooth="yes"/>
      <point x="184" y="102"/>
      <point x="147" y="194"/>
      <point x="147" y="297" type="curve" smooth="yes"/>
      <point x="147" y="426"/>
      <point x="184" y="497"/>
      <point x="253" y="497" type="curve" smooth="yes"/>
      <point x="412" y="497"/>
      <point x="730" y="156"/>
    </contour>
  </outline>
</glyph>
<glyph name="uni340C" format="2">
  <advance width="1000"/>
  <unicode hex="340C"/>
  <outline>
    <contour>
      <point x="425" y="-63" type="curve" smooth="yes"/>
      <point x="788" y="-63" type="line" smooth="yes"/>
      <point x="892" y="-63"/>
      <point x="919" y="-9"/>
      <point x="932" y="147" type="curve"/>
      <point x="857" y="156" type="line"/>
      <point x="851" y="40"/>
      <point x="838" y="17"/>
      <point x="784" y="17" type="curve" smooth="yes"/>
      <point x="426" y="17" type="line" smooth="yes"/>
      <point x="374" y="17"/>
      <point x="360" y="30"/>
      <point x="360" y="82" type="curve" smooth="yes"/>
      <point x="360" y="570" type="line"/>
      <point x="280" y="570" type="line"/>
      <point x="280" y="82" type="line" smooth="yes"/>
      <point x="280" y="-35"/>
      <point x="315" y="-63"/>
    </contour>
    <contour>
      <point x="574" y="197" type="curve"/>
      <point x="613" y="126" type="line"/>
      <point x="748" y="198"/>
      <point x="805" y="253"/>
      <point x="805" y="366" type="curve" smooth="yes"/>
      <point x="805" y="447"/>
      <point x="751" y="520"/>
      <point x="598" y="521" type="curve" smooth="yes"/>
      <point x="404" y="522"/>
      <point x="223" y="398"/>
      <point x="76" y="258" type="curve"/>
      <point x="127" y="195" type="line"/>
      <point x="270" y="341"/>
      <point x="445" y="441"/>
      <point x="598" y="441" type="curve" smooth="yes"/>
      <point x="698" y="441"/>
      <point x="727" y="406"/>
      <point x="727" y="366" type="curve" smooth="yes"/>
      <point x="727" y="302"/>
      <point x="684" y="250"/>
    </contour>
    <contour>
      <point x="45" y="490" type="curve"/>
      <point x="116" y="444" type="line"/>
      <point x="207" y="546"/>
      <point x="277" y="690"/>
      <point x="318" y="831" type="curve"/>
      <point x="240" y="851" type="line"/>
      <point x="199" y="710"/>
      <point x="128" y="575"/>
    </contour>
    <contour>
      <point x="207" y="635" type="line"/>
      <point x="907" y="635" type="line"/>
      <point x="907" y="715" type="line"/>
      <point x="207" y="715" type="line"/>
    </contour>
  </outline>
</glyph>
<glyph name="uni342C" format="2">
  <advance width="1000"/>
  <unicode hex="342C"/>
  <outline>
    <contour>
      <point x="454" y="-71" type="curve" smooth="yes"/>
      <point x="582" y="-71"/>
      <point x="636" y="15"/>
      <point x="636" y="168" type="curve" smooth="yes"/>
      <point x="636" y="294"/>
      <point x="545" y="434"/>
      <point x="425" y="511" type="curve"/>
      <point x="364" y="458" type="line"/>
      <point x="476" y="379"/>
      <point x="556" y="267"/>
      <point x="556" y="168" type="curve" smooth="yes"/>
      <point x="556" y="60"/>
      <point x="524" y="7"/>
      <point x="443" y="7" type="curve" smooth="yes"/>
      <point x="395" y="7"/>
      <point x="354" y="14"/>
      <point x="310" y="27" type="curve"/>
      <point x="310" y="-59" type="line"/>
      <point x="350" y="-67"/>
      <point x="389" y="-71"/>
    </contour>
    <contour>
      <point x="52" y="100" type="curve"/>
      <point x="106" y="48" type="line"/>
      <point x="196" y="112"/>
      <point x="278" y="195"/>
      <point x="337" y="281" type="curve"/>
      <point x="264" y="321" type="line"/>
      <point x="214" y="243"/>
      <point x="135" y="163"/>
    </contour>
    <contour>
      <point x="232" y="416" type="curve"/>
      <point x="290" y="366" type="line"/>
      <point x="473" y="496"/>
      <point x="535" y="626"/>
      <point x="601" y="818" type="curve"/>
      <point x="520" y="843" type="line"/>
      <point x="467" y="652"/>
      <point x="392" y="534"/>
    </contour>
    <contour>
      <point x="859" y="51" type="curve"/>
      <point x="935" y="85" type="line"/>
      <point x="901" y="184"/>
      <point x="844" y="290"/>
      <point x="784" y="371" type="curve"/>
      <point x="714" y="341" type="line"/>
      <point x="773" y="258"/>
      <point x="827" y="149"/>
    </contour>
    <contour>
      <point x="85" y="588" type="line"/>
      <point x="905" y="588" type="line"/>
      <point x="905" y="668" type="line"/>
      <point x="85" y="668" type="line"/>
    </contour>
  </outline>
</glyph>
<glyph name="uni3431" format="2">
  <advance width="1000"/>
  <unicode hex="3431"/>
  <outline>
    <contour>
      <point x="455" y="-68" type="curve" smooth="yes"/>
      <point x="530" y="-68"/>
      <point x="554" y="-35"/>
      <point x="554" y="26" type="curve" smooth="yes"/>
      <point x="554" y="546" type="line"/>
      <point x="474" y="546" type="line"/>
      <point x="474" y="39" type="line" smooth="yes"/>
      <point x="474" y="18"/>
      <point x="463" y="10"/>
      <point x="444" y="10" type="curve" smooth="yes"/>
      <point x="405" y="9"/>
      <point x="345" y="19"/>
      <point x="288" y="35" type="curve"/>
      <point x="288" y="-55" type="line"/>
      <point x="345" y="-64"/>
      <point x="396" y="-68"/>
    </contour>
    <contour>
      <point x="45" y="117" type="curve"/>
      <point x="113" y="75" type="line"/>
      <point x="203" y="159"/>
      <point x="261" y="300"/>
      <point x="294" y="412" type="curve"/>
      <point x="211" y="429" type="line"/>
      <point x="186" y="327"/>
      <point x="130" y="198"/>
    </contour>
    <contour>
      <point x="54" y="486" type="curve"/>
      <point x="126" y="444" type="line"/>
      <point x="216" y="544"/>
      <point x="285" y="687"/>
      <point x="325" y="826" type="curve"/>
      <point x="246" y="842" type="line"/>
      <point x="206" y="704"/>
      <point x="135" y="570"/>
    </contour>
    <contour>
      <point x="888" y="67" type="curve"/>
      <point x="969" y="93" type="line"/>
      <point x="936" y="183"/>
      <point x="860" y="328"/>
      <point x="773" y="435" type="curve"/>
      <point x="697" y="410" type="line"/>
      <point x="782" y="300"/>
      <point x="857" y="157"/>
    </contour>
    <contour>
      <point x="211" y="628" type="line"/>
      <point x="902" y="628" type="line"/>
      <point x="902" y="708" type="line"/>
      <point x="211" y="708" type="line"/>
    </contour>
  </outline>
</glyph>
<glyph name="uni34B8" format="2">
  <advance width="1000"/>
  <unicode hex="34B8"/>
  <outline>
    <contour>
      <point x="312" y="653" type="curve"/>
      <point x="389" y="681" type="line"/>
      <point x="372" y="718"/>
      <point x="340" y="780"/>
      <point x="305" y="821" type="curve"/>
      <point x="230" y="793" type="line"/>
      <point x="263" y="751"/>
      <point x="293" y="698"/>
    </contour>
    <contour>
      <point x="88" y="589" type="line"/>
      <point x="919" y="589" type="line"/>
      <point x="919" y="669" type="line"/>
      <point x="88" y="669" type="line"/>
    </contour>
    <contour>
      <point x="614" y="662" type="curve"/>
      <point x="683" y="636" type="line"/>
      <point x="724" y="688"/>
      <point x="759" y="745"/>
      <point x="785" y="798" type="curve"/>
      <point x="701" y="824" type="line"/>
      <point x="682" y="774"/>
      <point x="652" y="713"/>
    </contour>
    <contour>
      <point x="41" y="105" type="curve"/>
      <point x="89" y="29" type="line"/>
      <point x="127" y="49"/>
      <point x="158" y="72"/>
      <point x="203" y="105" type="curve" smooth="yes"/>
      <point x="220" y="117"/>
      <point x="242" y="118"/>
      <point x="257" y="115" type="curve" smooth="yes"/>
      <point x="274" y="110"/>
      <point x="289" y="91"/>
      <point x="306" y="24" type="curve"/>
      <point x="466" y="119" type="line"/>
      <point x="431" y="177" type="line"/>
      <point x="342" y="134" type="line"/>
      <point x="337" y="161"/>
      <point x="322" y="174"/>
      <point x="291" y="184" type="curve"/>
      <point x="333" y="233"/>
      <point x="371" y="286"/>
      <point x="406" y="344" type="curve"/>
      <point x="341" y="380" type="line"/>
      <point x="257" y="254"/>
      <point x="149" y="156"/>
    </contour>
    <contour>
      <point x="478" y="-70" type="curve" smooth="yes"/>
      <point x="596" y="-70"/>
      <point x="648" y="35"/>
      <point x="646" y="154" type="curve" smooth="yes"/>
      <point x="646" y="270"/>
      <point x="572" y="422"/>
      <point x="461" y="543" type="curve"/>
      <point x="402" y="489" type="line"/>
      <point x="484" y="408"/>
      <point x="567" y="260"/>
      <point x="566" y="154" type="curve" smooth="yes"/>
      <point x="565" y="83"/>
      <point x="546" y="8"/>
      <point x="474" y="8" type="curve" smooth="yes"/>
      <point x="434" y="8"/>
      <point x="396" y="15"/>
      <point x="358" y="31" type="curve"/>
      <point x="358" y="-58" type="line"/>
      <point x="393" y="-67"/>
      <point x="433" y="-70"/>
    </contour>
    <contour>
      <point x="911" y="1" type="curve"/>
      <point x="962" y="75" type="line"/>
      <point x="835" y="148"/>
      <point x="663" y="220"/>
      <point x="454" y="296" type="curve"/>
      <point x="433" y="219" type="line"/>
      <point x="630" y="148"/>
      <point x="791" y="79"/>
    </contour>
    <contour>
      <point x="556" y="322" type="curve"/>
      <point x="580" y="250" type="line"/>
      <point x="694" y="285"/>
      <point x="777" y="312"/>
      <point x="874" y="365" type="curve"/>
      <point x="827" y="437" type="line"/>
      <point x="740" y="388"/>
      <point x="669" y="357"/>
    </contour>
    <contour>
      <point x="548" y="623" type="curve"/>
      <point x="469" y="650" type="line"/>
      <point x="413" y="508"/>
      <point x="281" y="452"/>
      <point x="78" y="383" type="curve"/>
      <point x="111" y="307" type="line"/>
      <point x="329" y="387"/>
      <point x="486" y="460"/>
    </contour>
  </outline>
</glyph>
<glyph name="uni34DE" format="2">
  <advance width="1000"/>
  <unicode hex="34DE"/>
  <outline>
    <contour>
      <point x="266" y="76" type="curve"/>
      <point x="336" y="44" type="line"/>
      <point x="422" y="133"/>
      <point x="488" y="221"/>
      <point x="488" y="336" type="curve" smooth="yes"/>
      <point x="488" y="432"/>
      <point x="423" y="494"/>
      <point x="292" y="494" type="curve" smooth="yes"/>
      <point x="174" y="494"/>
      <point x="97" y="453"/>
      <point x="97" y="346" type="curve" smooth="yes"/>
      <point x="97" y="259"/>
      <point x="147" y="204"/>
      <point x="246" y="204" type="curve" smooth="yes"/>
      <point x="304" y="204"/>
      <point x="345" y="248"/>
      <point x="345" y="308" type="curve" smooth="yes"/>
      <point x="345" y="831" type="line"/>
      <point x="265" y="831" type="line"/>
      <point x="265" y="359" type="line" smooth="yes"/>
      <point x="265" y="301"/>
      <point x="252" y="284"/>
      <point x="228" y="284" type="curve" smooth="yes"/>
      <point x="211" y="284"/>
      <point x="177" y="310"/>
      <point x="177" y="346" type="curve" smooth="yes"/>
      <point x="177" y="386"/>
      <point x="204" y="414"/>
      <point x="292" y="414" type="curve" smooth="yes"/>
      <point x="369" y="414"/>
      <point x="408" y="371"/>
      <point x="408" y="332" type="curve" smooth="yes"/>
      <point x="408" y="271"/>
      <point x="379" y="197"/>
    </contour>
    <contour>
      <point x="79" y="-64" type="line"/>
      <point x="558" y="117" type="line"/>
      <point x="533" y="188" type="line"/>
      <point x="50" y="14" type="line"/>
    </contour>
    <contour>
      <point x="61" y="597" type="line"/>
      <point x="543" y="597" type="line"/>
      <point x="543" y="677" type="line"/>
      <point x="61" y="677" type="line"/>
    </contour>
    <contour>
      <point x="636" y="-20" type="curve"/>
      <point x="708" y="-87" type="line"/>
      <point x="830" y="32"/>
      <point x="939" y="172"/>
      <point x="941" y="434" type="curve" smooth="yes"/>
      <point x="942" y="581"/>
      <point x="892" y="661"/>
      <point x="779" y="661" type="curve" smooth="yes"/>
      <point x="719" y="661"/>
      <point x="669" y="642"/>
      <point x="623" y="613" type="curve"/>
      <point x="648" y="539" type="line"/>
      <point x="694" y="568"/>
      <point x="736" y="581"/>
      <point x="779" y="581" type="curve" smooth="yes"/>
      <point x="833" y="581"/>
      <point x="861" y="539"/>
      <point x="861" y="434" type="curve" smooth="yes"/>
      <point x="861" y="256"/>
      <point x="763" y="66"/>
    </contour>
    <contour>
      <point x="534" y="425" type="curve"/>
      <point x="604" y="382" type="line"/>
      <point x="673" y="484"/>
      <point x="716" y="626"/>
      <point x="729" y="828" type="curve"/>
      <point x="649" y="831" type="line"/>
      <point x="639" y="651"/>
      <point x="596" y="515"/>
    </contour>
  </outline>
</glyph>
<glyph name="uni34E8" format="2">
  <advance width="1000"/>
  <unicode hex="34E8"/>
  <unicode hex="523A"/>
  <unicode hex="523E"/>
  <outline>
    <contour>
      <point x="40" y="356" type="curve"/>
      <point x="114" y="335" type="line"/>
      <point x="142" y="387"/>
      <point x="165" y="473"/>
      <point x="178" y="543" type="curve"/>
      <point x="98" y="551" type="line"/>
      <point x="88" y="488"/>
      <point x="66" y="406"/>
    </contour>
    <contour>
      <point x="57" y="617" type="line"/>
      <point x="597" y="617" type="line"/>
      <point x="597" y="696" type="line"/>
      <point x="57" y="696" type="line"/>
    </contour>
    <contour>
      <point x="515" y="339" type="curve"/>
      <point x="595" y="356" type="line"/>
      <point x="584" y="411"/>
      <point x="563" y="488"/>
      <point x="534" y="552" type="curve"/>
      <point x="458" y="538" type="line"/>
      <point x="485" y="472"/>
      <point x="506" y="393"/>
    </contour>
    <contour>
      <point x="258" y="136" type="curve"/>
      <point x="329" y="108" type="line"/>
      <point x="376" y="183"/>
      <point x="426" y="278"/>
      <point x="457" y="352" type="curve"/>
      <point x="396" y="393" type="line"/>
      <point x="377" y="382" type="line"/>
      <point x="300" y="382" type="line"/>
      <point x="344" y="490"/>
      <point x="385" y="656"/>
      <point x="410" y="814" type="curve"/>
      <point x="329" y="822" type="line"/>
      <point x="304" y="648"/>
      <point x="249" y="448"/>
      <point x="192" y="330" type="curve"/>
      <point x="248" y="289" type="line"/>
      <point x="268" y="302" type="line"/>
      <point x="350" y="302" type="line"/>
      <point x="332" y="257"/>
      <point x="302" y="198"/>
    </contour>
    <contour>
      <point x="862" y="397" type="curve"/>
      <point x="935" y="444" type="line"/>
      <point x="894" y="522"/>
      <point x="831" y="605"/>
      <point x="767" y="682" type="curve"/>
      <point x="702" y="643" type="line"/>
      <point x="772" y="559"/>
      <point x="821" y="480"/>
    </contour>
    <contour>
      <point x="729" y="313" type="curve" smooth="yes"/>
      <point x="512" y="313"/>
      <point x="257" y="175"/>
      <point x="76" y="15" type="curve"/>
      <point x="137" y="-44" type="line"/>
      <point x="303" y="111"/>
      <point x="551" y="233"/>
      <point x="729" y="233" type="curve" smooth="yes"/>
      <point x="827" y="233"/>
      <point x="859" y="204"/>
      <point x="859" y="149" type="curve" smooth="yes"/>
      <point x="859" y="73"/>
      <point x="775" y="20"/>
      <point x="624" y="-2" type="curve"/>
      <point x="672" y="-84" type="line"/>
      <point x="852" y="-28"/>
      <point x="940" y="34"/>
      <point x="940" y="149" type="curve" smooth="yes"/>
      <point x="940" y="254"/>
      <point x="881" y="313"/>
    </contour>
  </outline>
</glyph>
<glyph name="uni3537" format="2">
  <advance width="1000"/>
  <unicode hex="3537"/>
  <outline>
    <contour>
      <point x="91" y="798" type="line"/>
      <point x="91" y="718" type="line"/>
      <point x="883" y="718" type="line"/>
      <point x="883" y="798" type="line"/>
    </contour>
    <contour>
      <point x="917" y="-31" type="curve"/>
      <point x="917" y="51" type="line"/>
      <point x="695" y="-2"/>
      <point x="412" y="11"/>
      <point x="268" y="60" type="curve" smooth="yes"/>
      <point x="182" y="91"/>
      <point x="145" y="170"/>
      <point x="140" y="353" type="curve"/>
      <point x="62" y="341" type="line"/>
      <point x="65" y="144"/>
      <point x="119" y="28"/>
      <point x="237" y="-14" type="curve" smooth="yes"/>
      <point x="385" y="-68"/>
      <point x="690" y="-83"/>
    </contour>
    <contour>
      <point x="386" y="268" type="line"/>
      <point x="700" y="268" type="line"/>
      <point x="700" y="346" type="line"/>
      <point x="386" y="346" type="line"/>
    </contour>
    <contour>
      <point x="503" y="306" type="line"/>
      <point x="582" y="306" type="line"/>
      <point x="582" y="606" type="line"/>
      <point x="503" y="606" type="line"/>
    </contour>
    <contour>
      <point x="202" y="567" type="line"/>
      <point x="883" y="567" type="line"/>
      <point x="883" y="645" type="line"/>
      <point x="202" y="645" type="line"/>
    </contour>
    <contour>
      <point x="256" y="462" type="curve"/>
      <point x="271" y="391" type="line"/>
      <point x="333" y="409"/>
      <point x="399" y="418"/>
      <point x="482" y="418" type="curve" smooth="yes"/>
      <point x="699" y="418" type="line" smooth="yes"/>
      <point x="757" y="418"/>
      <point x="783" y="391"/>
      <point x="783" y="332" type="curve" smooth="yes"/>
      <point x="783" y="221" type="line" smooth="yes"/>
      <point x="783" y="193"/>
      <point x="779" y="179"/>
      <point x="755" y="179" type="curve" smooth="yes"/>
      <point x="728" y="179"/>
      <point x="686" y="186"/>
      <point x="643" y="199" type="curve"/>
      <point x="643" y="114" type="line"/>
      <point x="684" y="106"/>
      <point x="725" y="100"/>
      <point x="759" y="100" type="curve" smooth="yes"/>
      <point x="827" y="100"/>
      <point x="862" y="131"/>
      <point x="862" y="209" type="curve" smooth="yes"/>
      <point x="862" y="341" type="line" smooth="yes"/>
      <point x="862" y="438"/>
      <point x="817" y="496"/>
      <point x="707" y="496" type="curve" smooth="yes"/>
      <point x="481" y="496" type="line" smooth="yes"/>
      <point x="390" y="496"/>
      <point x="324" y="484"/>
    </contour>
    <contour>
      <point x="303" y="97" type="line"/>
      <point x="303" y="496" type="line"/>
      <point x="224" y="496" type="line"/>
      <point x="224" y="97" type="line"/>
    </contour>
  </outline>
</glyph>
<glyph name="uni3685" format="2">
  <advance width="1000"/>
  <unicode hex="3685"/>
  <outline>
    <contour>
      <point x="64" y="466" type="curve"/>
      <point x="109" y="392" type="line"/>
      <point x="416" y="461"/>
      <point x="704" y="595"/>
      <point x="823" y="738" type="curve"/>
      <point x="763" y="803" type="line"/>
      <point x="740" y="790" type="line"/>
      <point x="266" y="790" type="line"/>
      <point x="266" y="711" type="line"/>
      <point x="672" y="711" type="line"/>
      <point x="569" y="624"/>
      <point x="341" y="515"/>
    </contour>
    <contour>
      <point x="78" y="-56" type="line"/>
      <point x="920" y="-56" type="line"/>
      <point x="920" y="23" type="line"/>
      <point x="78" y="23" type="line"/>
    </contour>
    <contour>
      <point x="74" y="214" type="curve"/>
      <point x="144" y="163" type="line"/>
      <point x="218" y="242"/>
      <point x="285" y="334"/>
      <point x="344" y="428" type="curve"/>
      <point x="269" y="460" type="line"/>
      <point x="214" y="369"/>
      <point x="151" y="287"/>
    </contour>
    <contour>
      <point x="524" y="13" type="curve"/>
      <point x="609" y="-18" type="line"/>
      <point x="676" y="26"/>
      <point x="722" y="78"/>
      <point x="722" y="151" type="curve" smooth="yes"/>
      <point x="722" y="235"/>
      <point x="663" y="280"/>
      <point x="512" y="280" type="curve" smooth="yes"/>
      <point x="360" y="280"/>
      <point x="276" y="245"/>
      <point x="276" y="165" type="curve" smooth="yes"/>
      <point x="276" y="97"/>
      <point x="333" y="52"/>
      <point x="440" y="52" type="curve" smooth="yes"/>
      <point x="511" y="52"/>
      <point x="552" y="96"/>
      <point x="552" y="135" type="curve" smooth="yes"/>
      <point x="552" y="357" type="line"/>
      <point x="472" y="357" type="line"/>
      <point x="472" y="169" type="line" smooth="yes"/>
      <point x="472" y="142"/>
      <point x="451" y="129"/>
      <point x="423" y="129" type="curve" smooth="yes"/>
      <point x="399" y="129"/>
      <point x="356" y="141"/>
      <point x="356" y="165" type="curve" smooth="yes"/>
      <point x="356" y="191"/>
      <point x="393" y="202"/>
      <point x="512" y="202" type="curve" smooth="yes"/>
      <point x="599" y="202"/>
      <point x="642" y="185"/>
      <point x="642" y="149" type="curve" smooth="yes"/>
      <point x="642" y="103"/>
      <point x="601" y="59"/>
    </contour>
    <contour>
      <point x="243" y="319" type="line"/>
      <point x="807" y="319" type="line"/>
      <point x="807" y="398" type="line"/>
      <point x="243" y="398" type="line"/>
    </contour>
    <contour>
      <point x="48" y="584" type="curve"/>
      <point x="121" y="537" type="line"/>
      <point x="212" y="600"/>
      <point x="322" y="718"/>
      <point x="373" y="827" type="curve"/>
      <point x="293" y="854" type="line"/>
      <point x="242" y="745"/>
      <point x="131" y="634"/>
    </contour>
    <contour>
      <point x="870" y="400" type="curve"/>
      <point x="916" y="472" type="line"/>
      <point x="770" y="529"/>
      <point x="530" y="601"/>
      <point x="307" y="645" type="curve"/>
      <point x="269" y="573" type="line"/>
      <point x="494" y="528"/>
      <point x="727" y="459"/>
    </contour>
  </outline>
</glyph>
<glyph name="uni3775" format="2">
  <advance width="1000"/>
  <unicode hex="3775"/>
  <outline>
    <contour>
      <point x="474" y="-61" type="curve" smooth="yes"/>
      <point x="712" y="-61"/>
      <point x="895" y="55"/>
      <point x="895" y="232" type="curve" smooth="yes"/>
      <point x="895" y="381"/>
      <point x="810" y="494"/>
      <point x="578" y="494" type="curve" smooth="yes"/>
      <point x="524" y="494"/>
      <point x="485" y="491"/>
      <point x="437" y="482" type="curve"/>
      <point x="565" y="563"/>
      <point x="672" y="641"/>
      <point x="805" y="747" type="curve"/>
      <point x="751" y="811" type="line"/>
      <point x="728" y="800" type="line"/>
      <point x="151" y="800" type="line"/>
      <point x="151" y="720" type="line"/>
      <point x="641" y="720" type="line"/>
      <point x="556" y="646"/>
      <point x="402" y="531"/>
      <point x="286" y="460" type="curve" smooth="yes"/>
      <point x="262" y="445"/>
      <point x="231" y="435"/>
      <point x="197" y="424" type="curve"/>
      <point x="242" y="344" type="line"/>
      <point x="332" y="389"/>
      <point x="471" y="414"/>
      <point x="578" y="414" type="curve" smooth="yes"/>
      <point x="728" y="414"/>
      <point x="814" y="340"/>
      <point x="814" y="232" type="curve" smooth="yes"/>
      <point x="814" y="80"/>
      <point x="632" y="19"/>
      <point x="474" y="19" type="curve" smooth="yes"/>
      <point x="382" y="19"/>
      <point x="328" y="44"/>
      <point x="328" y="96" type="curve" smooth="yes"/>
      <point x="328" y="138"/>
      <point x="359" y="163"/>
      <point x="417" y="163" type="curve" smooth="yes"/>
      <point x="496" y="163"/>
      <point x="546" y="111"/>
      <point x="559" y="5" type="curve"/>
      <point x="638" y="22" type="line"/>
      <point x="618" y="155"/>
      <point x="545" y="243"/>
      <point x="417" y="243" type="curve" smooth="yes"/>
      <point x="317" y="243"/>
      <point x="248" y="187"/>
      <point x="248" y="96" type="curve" smooth="yes"/>
      <point x="248" y="5"/>
      <point x="330" y="-61"/>
    </contour>
  </outline>
</glyph>
